<svg id="Layer_1" data-name="Layer 1" xmlns="http://www.w3.org/2000/svg" xmlns:xlink="http://www.w3.org/1999/xlink" viewBox="0 0 195 195"><defs><style>.cls-1{stroke:#d9d9d9;fill:url(#linear-gradient);}.cls-2{fill:url(#linear-gradient-2);}.cls-3{fill:url(#linear-gradient-3);}.cls-4{fill:url(#linear-gradient-4);}</style><linearGradient id="linear-gradient" x1="-197.47" y1="516.73" x2="-197.47" y2="516.23" gradientTransform="matrix(194, 0, 0, -194, 38407.5, 100342.16)" gradientUnits="userSpaceOnUse"><stop offset="0" stop-color="#fff"/><stop offset="1" stop-color="#e9e5e5"/></linearGradient><linearGradient id="linear-gradient-2" x1="-170.36" y1="514.99" x2="-170.36" y2="514.12" gradientTransform="matrix(7.07, 0, 0, -82.89, 1235.39, 42744.36)" gradientUnits="userSpaceOnUse"><stop offset="0" stop-color="#0339f1"/><stop offset="1" stop-color="#01ade5"/></linearGradient><linearGradient id="linear-gradient-3" x1="-196.13" y1="514.95" x2="-195.53" y2="514.29" gradientTransform="matrix(72.81, 0, 0, -84.09, 14330.99, 43363.55)" gradientUnits="userSpaceOnUse"><stop offset="0" stop-color="#0756ee"/><stop offset="0.37" stop-color="#00a3f5"/><stop offset="0.72" stop-color="#18b5b6"/><stop offset="1" stop-color="#80df43"/></linearGradient><linearGradient id="linear-gradient-4" x1="-195.45" y1="515" x2="-194.72" y2="514.13" gradientTransform="matrix(57.92, 0, 0, -84.08, 11443.08, 43359.97)" gradientUnits="userSpaceOnUse"><stop offset="0" stop-color="#20bba6"/><stop offset="0.5" stop-color="#9bec23"/><stop offset="1" stop-color="#d9ef35"/></linearGradient></defs><title>ios</title><rect class="cls-1" x="0.5" y="0.5" width="194" height="194" rx="45" ry="45"/><path class="cls-2" d="M32.88,137.54H28.32v-61h4.56ZM30.54,61.61a3.48,3.48,0,1,1,3.56-3.45A3.48,3.48,0,0,1,30.54,61.61Z" transform="translate(-0.5 -0.5)"/><path class="cls-3" d="M77.21,138.73c-22.31,0-36.41-16.25-36.41-42.08s14.16-42,36.41-42,36.4,16.31,36.4,42S99.51,138.73,77.21,138.73Zm0-79.89c-19.42,0-31.82,14.66-31.82,37.81s12.46,37.89,31.82,37.89S109,119.82,109,96.65,96.63,58.84,77.21,58.84Z" transform="translate(-0.5 -0.5)"/><path class="cls-4" d="M146.1,138.73c-16.75,0-28.76-9.46-29.44-23h4.47c.68,11.09,11.1,18.85,25.31,18.85,13.87,0,23.55-7.88,23.55-18.51,0-8.56-5.77-13.48-19.47-16.93l-9.68-2.38c-15.11-3.86-22-10-22-20.21,0-12.74,11.9-21.92,26.79-21.92,15.4,0,26.89,9.06,27.4,21.06h-4.47c-.63-9.79-10.19-16.93-23-16.93-12.29,0-22.09,7.36-22.09,17.67,0,8.16,6,12.85,19.13,16.13l9.12,2.32c15.79,3.91,22.87,10,22.87,20.83,0,13.53-11.38,23-28.48,23Z" transform="translate(-0.5 -0.5)"/></svg>