<svg id="svg27450" xmlns="http://www.w3.org/2000/svg" xmlns:xlink="http://www.w3.org/1999/xlink" viewBox="0 0 249.15 297.07"><defs><style>.cls-1{fill:none;}.cls-2{fill:#020204;}.cls-3{fill:#fdfdfb;}.cls-11,.cls-4{opacity:0.25;}.cls-10,.cls-11,.cls-13,.cls-20,.cls-24,.cls-25,.cls-4,.cls-45,.cls-47,.cls-6,.cls-79,.cls-8,.cls-81{isolation:isolate;}.cls-4{filter:url(#filter4487-6);}.cls-5{fill:url(#radial-gradient);}.cls-6{opacity:0.42;filter:url(#filter4427-5-7);}.cls-7{fill:url(#radial-gradient-2);}.cls-25,.cls-8{opacity:0.2;}.cls-8{filter:url(#filter4538-7);}.cls-9{fill:url(#radial-gradient-3);}.cls-10{opacity:0.11;filter:url(#filter4592-2);}.cls-11{filter:url(#filter15211-9);}.cls-12{fill:#7c7c7c;}.cls-13{opacity:0.75;filter:url(#filter14706-3);}.cls-14{filter:url(#filter15133-1);}.cls-15{filter:url(#filter15185-2);}.cls-16{fill:#838384;}.cls-17{clip-path:url(#clip-path);}.cls-18{filter:url(#filter30479-2);}.cls-19{opacity:0.26;}.cls-20{opacity:0.3;filter:url(#filter30475-4);}.cls-21{clip-path:url(#clip-path-3);}.cls-22{filter:url(#filter14666-9);}.cls-23{clip-path:url(#clip-path-4);}.cls-24{opacity:0.95;filter:url(#filter15053-7);}.cls-25{filter:url(#filter15115-3);}.cls-26{fill:url(#linear-gradient);}.cls-27{fill:url(#linear-gradient-2);}.cls-28{clip-path:url(#clip-path-5);}.cls-29{filter:url(#filter14416-8);}.cls-30{fill:#cd8907;}.cls-31{clip-path:url(#clip-path-6);}.cls-32{filter:url(#filter14432-2);}.cls-33{fill:#f5c021;}.cls-34{clip-path:url(#clip-path-7);}.cls-35{filter:url(#filter17044);}.cls-36{fill:url(#linear-gradient-3);}.cls-37{fill:url(#linear-gradient-4);}.cls-38{clip-path:url(#clip-path-8);}.cls-39{filter:url(#filter14148-8);}.cls-40{fill:#d99a03;}.cls-41{filter:url(#filter14140-3);}.cls-42{fill:#f5bd0c;}.cls-43{filter:url(#filter14176-5);}.cls-44{fill:url(#linear-gradient-5);}.cls-45,.cls-47{opacity:0.35;}.cls-45{filter:url(#filter14897-2);}.cls-46{fill:url(#radial-gradient-4);}.cls-47{filter:url(#filter14951-8);}.cls-48{fill:url(#radial-gradient-5);}.cls-49{clip-path:url(#clip-path-10);}.cls-50{filter:url(#filter14812-5);}.cls-51{fill:url(#radial-gradient-6);}.cls-52{filter:url(#filter14812-0-9);}.cls-53{fill:url(#linear-gradient-6);}.cls-54{fill:url(#radial-gradient-7);}.cls-55{filter:url(#filter29493-2);}.cls-56{fill:url(#linear-gradient-7);}.cls-57{clip-path:url(#clip-path-12);}.cls-58{fill:url(#radial-gradient-8);}.cls-59{filter:url(#filter29447-1);}.cls-60{fill:url(#linear-gradient-8);}.cls-61{fill:url(#radial-gradient-9);}.cls-62{filter:url(#filter28927-8);}.cls-63{fill:#141413;}.cls-64{filter:url(#filter28949-8);}.cls-65{fill:url(#linear-gradient-9);}.cls-66{clip-path:url(#clip-path-13);}.cls-67{fill:url(#linear-gradient-10);}.cls-68{filter:url(#filter29350-1);}.cls-69{fill:url(#linear-gradient-11);}.cls-70{fill:url(#radial-gradient-10);}.cls-71{fill:url(#radial-gradient-11);}.cls-72{filter:url(#filter28502-8);}.cls-73{fill:#d9b30d;}.cls-74{filter:url(#filter15145-6);}.cls-75{fill:#604405;}.cls-76{fill:url(#linear-gradient-12);}.cls-77{filter:url(#filter14963-7);}.cls-78{fill:#f6da4a;}.cls-79,.cls-81{opacity:0.8;}.cls-79{filter:url(#filter15177-1);}.cls-80{fill:url(#radial-gradient-12);}.cls-81{filter:url(#filter15173-0);}.cls-82{fill:url(#radial-gradient-13);}.cls-83{clip-path:url(#clip-path-14);}.cls-84{filter:url(#filter28584-4);}.cls-85{fill:url(#linear-gradient-13);}</style><filter id="filter4487-6" name="filter4487-6"><feGaussianBlur result="feGaussianBlur4489-4" stdDeviation="0.64"/></filter><radialGradient id="radial-gradient" cx="6.89" cy="57.71" r="27.39" gradientTransform="translate(100.79 208.86) rotate(180) scale(0.81 0.76)" gradientUnits="userSpaceOnUse"><stop offset="0"/><stop offset="1" stop-opacity="0.25"/></radialGradient><filter id="filter4427-5-7" name="filter4427-5-7"><feGaussianBlur result="feGaussianBlur4429-4-8" stdDeviation="1.14"/></filter><radialGradient id="radial-gradient-2" cx="312.15" cy="41.88" r="27.39" gradientTransform="matrix(1, 0, 0, -0.76, -142, 208.86)" xlink:href="#radial-gradient"/><filter id="filter4538-7" name="filter4538-7"><feGaussianBlur result="feGaussianBlur4540-9" stdDeviation="0.79"/></filter><radialGradient id="radial-gradient-3" cx="275.55" cy="144.55" r="10.85" gradientTransform="matrix(1, 0, 0, -1.07, -142, 326.66)" xlink:href="#radial-gradient"/><filter id="filter4592-2" x="-25.8" y="-24.23" width="2.63" height="1.12" name="filter4592-2"><feGaussianBlur result="feGaussianBlur4594-6" stdDeviation="1.45"/></filter><filter id="filter15211-9" x="-25.46" y="-24.45" width="1.94" height="1.55" name="filter15211-9"><feGaussianBlur result="feGaussianBlur15213-7" stdDeviation="0.86"/></filter><filter id="filter14706-3" x="-25.59" y="-24.66" width="2.21" height="1.96" name="filter14706-3"><feGaussianBlur result="feGaussianBlur14708-8" stdDeviation="2.64"/></filter><filter id="filter15133-1" x="-25.28" y="-24.48" width="1.58" height="1.62" name="filter15133-1"><feGaussianBlur result="feGaussianBlur15135-5" stdDeviation="1.74"/></filter><filter id="filter15185-2" x="-25.17" y="-24.33" width="1.36" height="1.32" name="filter15185-2"><feGaussianBlur result="feGaussianBlur15187-7" stdDeviation="0.9"/></filter><clipPath id="clip-path" transform="translate(-24.99 -24.18)"><path class="cls-1" d="M120.7,110.05a11.87,11.87,0,0,0-2.14,4.51,24,24,0,0,0-.63,5c-.13,3.35.08,6.77-.81,10-.95,3.46-3.08,6.46-5.16,9.38-3.6,5.06-7.25,10.25-9,16.2a28.78,28.78,0,0,0-1,11.16,118.07,118.07,0,0,0-10.42,18.78A102.74,102.74,0,0,0,83,216.42a80,80,0,0,0,5.63,39.1,64.06,64.06,0,0,0,16.69,23.25,57.05,57.05,0,0,0,12.19,8.1c15.21,7.48,34,7.49,49-.48,7.82-4.17,14.42-10.26,20.78-16.42,3.83-3.71,7.64-7.51,10.57-12,5.63-8.59,7.59-19,8.81-29.23,2.13-17.83,2.2-36.67-5.62-52.84a58.29,58.29,0,0,0-10.58-15.14,83,83,0,0,0-6.69-22.54c-2.37-5.16-5.27-10.06-7.47-15.29-.9-2.15-1.69-4.34-2.69-6.45a19.36,19.36,0,0,0-3.92-5.74,16.17,16.17,0,0,0-6.14-3.57,26.67,26.67,0,0,0-7-1.21c-4.76-.24-9.54.38-14.31.19-3.79-.15-7.58-.82-11.37-.59a17.48,17.48,0,0,0-5.55,1.16,11.19,11.19,0,0,0-4.57,3.3"/></clipPath><filter id="filter30479-2" x="-25.06" y="-24.3" width="1.15" height="1.26" name="filter30479-2"><feGaussianBlur result="feGaussianBlur30481-9" stdDeviation="2.04"/></filter><filter id="filter30475-4" name="filter30475-4"><feGaussianBlur result="feGaussianBlur30477-9" stdDeviation="0.93"/></filter><clipPath id="clip-path-3" transform="translate(-24.99 -24.18)"><path class="cls-1" d="M213.1,171.69a32,32,0,0,1,11.14,20,48.44,48.44,0,0,1-1,18.13,147.72,147.72,0,0,1-5.53,17.4,34.35,34.35,0,0,0-2,7,11.58,11.58,0,0,0,1,7.09,10.78,10.78,0,0,0,6.48,4.92,15.56,15.56,0,0,0,8.15.1,19.89,19.89,0,0,0,7.33-3.65c5.52-4.28,8.84-10.95,10.13-17.81s.7-14-.5-20.83a140.31,140.31,0,0,0-7.88-27.41,95.48,95.48,0,0,0-9.79-18.52c-3.85-5.67-9.31-10.09-13.34-15.64-1.4-1.93-3.09-3.93-4.46-5.88-3-4.2-2.3-3.41-4.14-6.13-1.34-2-3.45-2.65-5.67-3.51a11.17,11.17,0,0,0-7-.47,11,11,0,0,0-6.8,6.08,15.94,15.94,0,0,0-1,9.22A32.92,32.92,0,0,0,192.74,153a40.16,40.16,0,0,0,8.54,10.65c3.67,3.05,8.1,5.07,11.82,8.06"/></clipPath><filter id="filter14666-9" x="-25.11" y="-24.22" width="1.24" height="1.08" name="filter14666-9"><feGaussianBlur result="feGaussianBlur14668-7" stdDeviation="1.35"/></filter><clipPath id="clip-path-4" transform="translate(-24.99 -24.18)"><path class="cls-1" d="M98.47,141.27c-7.07,8-14.35,15.82-18.35,24.51-2,4.41-2.91,9.21-4.26,13.85a104.81,104.81,0,0,1-6,15.34C67.73,199.55,65.34,204,63,208.5c-1.74,3.25-3.51,6.58-4.11,10.22a21,21,0,0,0,.53,8.67,40,40,0,0,0,3.24,8.11,79.69,79.69,0,0,0,24.24,27.92,85.15,85.15,0,0,0,14.6,8.53,22.42,22.42,0,0,0,8.77,2.46,10.68,10.68,0,0,0,4.47-.84,7.94,7.94,0,0,0,3.48-2.89,8.32,8.32,0,0,0,1.16-5.41,12.94,12.94,0,0,0-1.91-5.26c-2.39-3.92-6.17-6.76-9.8-9.57C99.8,244.36,92.22,238,85,231.19a29.62,29.62,0,0,1-5.53-6.28,23.54,23.54,0,0,1-2.66-7.69,42.66,42.66,0,0,1,1.46-22.13c1-2.76,2.27-5.39,3.52-8,2.16-4.59,4.21-9.27,7-13.47,3.54-5.23,8.27-9.66,11.15-15.28,2.43-4.74,3.42-10.07,4.36-15.32.74-4.1,2.15-8.12,2.87-12.23-1.41,2.67-5.94,7-8.71,10.53Z"/></clipPath><filter id="filter15053-7" x="-25.09" y="-24.22" width="1.2" height="1.09" name="filter15053-7"><feGaussianBlur result="feGaussianBlur15055-3" stdDeviation="1.13"/></filter><filter id="filter15115-3" name="filter15115-3"><feGaussianBlur result="feGaussianBlur15117-8" stdDeviation="2.21"/></filter><linearGradient id="linear-gradient" x1="354.45" y1="32.67" x2="358.14" y2="5.09" gradientTransform="matrix(1.03, 0, 0, -1, -148.7, 300.13)" gradientUnits="userSpaceOnUse"><stop offset="0"/><stop offset="1" stop-opacity="0"/></linearGradient><linearGradient id="linear-gradient-2" x1="439.13" y1="-15.86" x2="487.21" y2="62.1" gradientTransform="matrix(1, 0, 0, -1, -242, 300.13)" gradientUnits="userSpaceOnUse"><stop offset="0" stop-color="#3e2a06"/><stop offset="1" stop-color="#ad780a"/></linearGradient><clipPath id="clip-path-5" transform="translate(-24.99 -24.18)"><path class="cls-1" d="M271.19,282.85c-2.62,3.11-6.27,5.17-9.9,7-6.19,3.15-12.6,5.92-18.42,9.72A75.58,75.58,0,0,0,232,308.33a87,87,0,0,1-8.83,8,25.4,25.4,0,0,1-11,4.65,26.34,26.34,0,0,1-14.3-2.16c-3.14-1.37-6.16-3.32-8-6.23s-2.23-6.49-2.23-9.92c0-6.08,1.12-12.09,2.18-18.07.88-5,1.72-10,2.26-15a154.19,154.19,0,0,0,.32-27.51,20.88,20.88,0,0,1,0-4.6,5.85,5.85,0,0,1,6-5.45,21.3,21.3,0,0,1,4.24.35,89.61,89.61,0,0,1,9.89,1.72c2,.54,4,1.26,6.07,1.81a27.87,27.87,0,0,0,10.47,1c3.77-.44,7.43-1.86,11.22-1.76a16.64,16.64,0,0,1,4.59.8,9.81,9.81,0,0,1,4.12,2.3,9.06,9.06,0,0,1,1.88,3.07,18.58,18.58,0,0,1,1.17,5.25,45.44,45.44,0,0,0,.41,4.76,15.63,15.63,0,0,0,3.53,6.93,44.84,44.84,0,0,0,5.7,5.41c2,1.68,4,3.35,6.17,4.83,1,.69,2.06,1.34,3,2.1a9.49,9.49,0,0,1,2.45,2.72,6.17,6.17,0,0,1,.54,4.88,13.93,13.93,0,0,1-2.67,4.69Z"/></clipPath><filter id="filter14416-8" x="-25.13" y="-24.32" width="1.29" height="1.29" name="filter14416-8"><feGaussianBlur result="feGaussianBlur14418-5" stdDeviation="4.78"/></filter><clipPath id="clip-path-6" transform="translate(-24.99 -24.18)"><path class="cls-1" d="M271.19,282.85c-2.62,3.11-6.27,5.17-9.9,7-6.19,3.15-12.6,5.92-18.42,9.72A75.58,75.58,0,0,0,232,308.33a87,87,0,0,1-8.83,8,25.4,25.4,0,0,1-11,4.65,26.34,26.34,0,0,1-14.3-2.16c-3.14-1.37-6.16-3.32-8-6.23s-2.23-6.49-2.23-9.92c0-6.08,1.12-12.09,2.18-18.07.88-5,1.72-10,2.26-15a154.19,154.19,0,0,0,.32-27.51,20.88,20.88,0,0,1,0-4.6,5.85,5.85,0,0,1,6-5.45,21.3,21.3,0,0,1,4.24.35,89.61,89.61,0,0,1,9.89,1.72c2,.54,4,1.26,6.07,1.81a27.87,27.87,0,0,0,10.47,1c3.77-.44,7.43-1.86,11.22-1.76a16.64,16.64,0,0,1,4.59.8,9.81,9.81,0,0,1,4.12,2.3,9.06,9.06,0,0,1,1.88,3.07,18.59,18.59,0,0,1,1.17,5.25,45.44,45.44,0,0,0,.41,4.76,15.63,15.63,0,0,0,3.53,6.93,44.84,44.84,0,0,0,5.7,5.41c2,1.68,4,3.35,6.17,4.83,1,.69,2.06,1.34,3,2.1a9.49,9.49,0,0,1,2.45,2.72,6.17,6.17,0,0,1,.54,4.88,13.93,13.93,0,0,1-2.67,4.69Z"/></clipPath><filter id="filter14432-2" x="-25.1" y="-24.3" width="1.23" height="1.25" name="filter14432-2"><feGaussianBlur result="feGaussianBlur14434-2" stdDeviation="3.17"/></filter><clipPath id="clip-path-7" transform="translate(-24.99 -24.18)"><path class="cls-1" d="M271.19,282.85c-2.62,3.11-6.27,5.17-9.9,7-6.19,3.15-12.6,5.92-18.42,9.72A75.58,75.58,0,0,0,232,308.33a87,87,0,0,1-8.83,8,25.4,25.4,0,0,1-11,4.65,26.34,26.34,0,0,1-14.3-2.16c-3.14-1.37-6.16-3.32-8-6.23s-2.23-6.49-2.23-9.92c0-6.08,1.12-12.09,2.18-18.07.88-5,1.72-10,2.26-15a154.19,154.19,0,0,0,.32-27.51,20.88,20.88,0,0,1,0-4.6,5.85,5.85,0,0,1,6-5.45,21.3,21.3,0,0,1,4.24.35,89.62,89.62,0,0,1,9.89,1.72c2,.54,4,1.26,6.07,1.81a27.87,27.87,0,0,0,10.47,1c3.77-.44,7.43-1.86,11.22-1.76a16.64,16.64,0,0,1,4.59.8,9.8,9.8,0,0,1,4.12,2.3,9.06,9.06,0,0,1,1.88,3.07,18.58,18.58,0,0,1,1.17,5.25,45.44,45.44,0,0,0,.41,4.76,15.63,15.63,0,0,0,3.53,6.93,44.84,44.84,0,0,0,5.7,5.41c2,1.68,4,3.35,6.17,4.83,1,.69,2.06,1.34,3,2.1a9.49,9.49,0,0,1,2.45,2.72,6.17,6.17,0,0,1,.54,4.88,13.93,13.93,0,0,1-2.67,4.69Z"/></clipPath><filter id="filter17044" x="-25.01" y="-24.3" width="1.04" height="1.26" name="filter17044"><feGaussianBlur result="feGaussianBlur17046" stdDeviation="0.48"/></filter><linearGradient id="linear-gradient-3" x1="364.29" y1="63.29" x2="362.87" y2="50.56" gradientTransform="matrix(1, 0, 0, -1, -142, 298.13)" gradientUnits="userSpaceOnUse"><stop offset="0" stop-color="#f3cd0c"/><stop offset="1" stop-color="#f3cd0c" stop-opacity="0"/></linearGradient><linearGradient id="linear-gradient-4" x1="118.43" y1="49.55" x2="166.16" y2="-30.53" gradientTransform="matrix(1, 0, 0, -1, -72, 300.13)" gradientUnits="userSpaceOnUse"><stop offset="0" stop-color="#b98309"/><stop offset="1" stop-color="#382605"/></linearGradient><clipPath id="clip-path-8" transform="translate(-24.99 -24.18)"><path class="cls-1" d="M65.58,227.26a9.09,9.09,0,0,1,5.1-.47,12.58,12.58,0,0,1,4.74,2c2.86,1.95,5,4.78,7,7.58,4.67,6.43,9.17,13,13.24,19.83,3.31,5.54,6.34,11.26,10.16,16.45,2.49,3.39,5.31,6.54,7.81,9.92a34.19,34.19,0,0,1,5.84,11.12,22.3,22.3,0,0,1-1.63,16,21.07,21.07,0,0,1-7.77,8.34,20,20,0,0,1-11,2.87c-6.11-.23-11.7-3.29-17.38-5.55-11.58-4.61-24.16-6.06-36.1-9.65-3.67-1.1-7.28-2.41-11-3.43a32.43,32.43,0,0,1-4.86-1.55,8.39,8.39,0,0,1-3.86-3.22,7.29,7.29,0,0,1-.93-3.79,11.86,11.86,0,0,1,.77-3.85c.9-2.47,2.34-4.71,3.32-7.16A30.07,30.07,0,0,0,30.75,270c-.22-4.29-.91-8.54-1.2-12.83a22.17,22.17,0,0,1,.18-5.74A8.61,8.61,0,0,1,37,244.06a23.28,23.28,0,0,1,5.28-.34,50.79,50.79,0,0,0,5.3,0,12.19,12.19,0,0,0,5.07-1.42,12,12,0,0,0,3.64-3.43,42.14,42.14,0,0,0,2.61-4.31,27.6,27.6,0,0,1,2.74-4.23,10.44,10.44,0,0,1,3.94-3.07"/></clipPath><filter id="filter14148-8" x="-25.1" y="-24.28" width="1.22" height="1.22" name="filter14148-8"><feGaussianBlur result="feGaussianBlur14150-8" stdDeviation="3.92"/></filter><filter id="filter14140-3" name="filter14140-3"><feGaussianBlur result="feGaussianBlur14142-5" stdDeviation="2.44"/></filter><filter id="filter14176-5" name="filter14176-5"><feGaussianBlur result="feGaussianBlur14178-0" stdDeviation="0.37"/></filter><linearGradient id="linear-gradient-5" x1="171.87" y1="30.06" x2="186.89" y2="1.77" gradientTransform="matrix(1, 0, 0, -1, -72.53, 298.36)" gradientUnits="userSpaceOnUse"><stop offset="0" stop-color="#ebc40c"/><stop offset="1" stop-color="#ebc40c" stop-opacity="0"/></linearGradient><filter id="filter14897-2" x="-25.19" y="-24.41" width="1.4" height="1.47" name="filter14897-2"><feGaussianBlur result="feGaussianBlur14899-5" stdDeviation="2.84"/></filter><radialGradient id="radial-gradient-4" cx="367.81" cy="155.45" r="16.85" gradientTransform="matrix(1.31, 0.35, 0.37, -1.37, -317.2, 334.45)" gradientUnits="userSpaceOnUse"><stop offset="0" stop-color="#110800"/><stop offset="0.59" stop-color="#a65a00" stop-opacity="0.8"/><stop offset="1" stop-color="#ff921e" stop-opacity="0"/></radialGradient><filter id="filter14951-8" x="-25.08" y="-24.28" width="1.18" height="1.21" name="filter14951-8"><feGaussianBlur result="feGaussianBlur14953-7" stdDeviation="1.3"/></filter><radialGradient id="radial-gradient-5" cx="385.68" cy="91.92" r="16.85" gradientTransform="matrix(1.31, 0.25, 0.37, -0.99, -317.2, 238.04)" xlink:href="#radial-gradient-4"/><clipPath id="clip-path-10" transform="translate(-24.99 -24.18)"><path class="cls-1" d="M244.19,231.57a7.32,7.32,0,0,0-2-2.87,10.6,10.6,0,0,0-3-1.85,32.77,32.77,0,0,0-6.83-1.7c-2.18-.41-4.34-.91-6.53-1.28a17.79,17.79,0,0,0-6.87-.13,11.72,11.72,0,0,0-5.27,2.82,15.07,15.07,0,0,0-3.48,4.89,21.12,21.12,0,0,0-1.65,10.4,12.56,12.56,0,0,0,2.61,7.34,11.36,11.36,0,0,0,5.43,3.22,18.39,18.39,0,0,0,10.86-.16,28.59,28.59,0,0,0,14.33-10.78,15.78,15.78,0,0,0,2.55-5.4,8,8,0,0,0-.18-4.51"/></clipPath><filter id="filter14812-5" x="-25.06" y="-24.33" width="1.14" height="1.3" name="filter14812-5"><feGaussianBlur result="feGaussianBlur14814-2" stdDeviation="1.02"/></filter><radialGradient id="radial-gradient-6" cx="826.14" cy="-557.98" r="20.54" gradientTransform="matrix(0.36, 0.16, 0.07, -0.17, -18.75, 6.77)" gradientUnits="userSpaceOnUse"><stop offset="0" stop-color="#7c7c7c"/><stop offset="1" stop-color="#7c7c7c" stop-opacity="0.33"/></radialGradient><filter id="filter14812-0-9" x="-25.06" y="-24.33" width="1.14" height="1.3" name="filter14812-0-9"><feGaussianBlur result="feGaussianBlur14814-6-7" stdDeviation="1.02"/></filter><linearGradient id="linear-gradient-6" x1="358.74" y1="68.86" x2="361.74" y2="68.99" gradientTransform="matrix(1, 0, 0, -1, -142, 300.13)" xlink:href="#radial-gradient-6"/><radialGradient id="radial-gradient-7" cx="249.24" cy="259.96" r="14.57" gradientTransform="matrix(0.82, -0.03, -0.03, -1.25, -70.89, 416.81)" gradientUnits="userSpaceOnUse"><stop offset="0" stop-color="#fefefc"/><stop offset="0.76" stop-color="#fefefc"/><stop offset="1" stop-color="#d4d4d4"/></radialGradient><filter id="filter29493-2" x="-25.22" y="-24.32" width="1.47" height="1.29" name="filter29493-2"><feGaussianBlur result="feGaussianBlur29495-7" stdDeviation="0.51"/></filter><linearGradient id="linear-gradient-7" x1="164.21" y1="221.92" x2="170.04" y2="211.49" gradientTransform="matrix(1, 0, 0, -1, -42, 300.13)" gradientUnits="userSpaceOnUse"><stop offset="0" stop-color="#757574" stop-opacity="0"/><stop offset="0.26" stop-color="#757574"/><stop offset="0.5" stop-color="#757574"/><stop offset="1" stop-color="#757574" stop-opacity="0"/></linearGradient><clipPath id="clip-path-12" transform="translate(-24.99 -24.18)"><path class="cls-1" d="M122.23,68.6a7.75,7.75,0,0,0-4.79,2.14,10.82,10.82,0,0,0-2.79,4.5c-1.13,3.38-.88,7.05-.62,10.61a31.27,31.27,0,0,0,1.68,9.5,12.39,12.39,0,0,0,2.58,4.06,8.86,8.86,0,0,0,4.12,2.43,8.31,8.31,0,0,0,4.48-.16,9.71,9.71,0,0,0,3.85-2.34A12.9,12.9,0,0,0,134,93.66a22.57,22.57,0,0,0,.75-6.56,27.35,27.35,0,0,0-1.27-8.16,18.38,18.38,0,0,0-4.17-7.09,11.8,11.8,0,0,0-3.2-2.4,7.88,7.88,0,0,0-3.88-.85"/></clipPath><radialGradient id="radial-gradient-8" cx="637.47" cy="-931.32" r="35.51" gradientTransform="matrix(0.2, -0.03, -0.03, -0.19, -34.19, -77.3)" gradientUnits="userSpaceOnUse"><stop offset="0" stop-color="#c8c8c8"/><stop offset="1" stop-color="#797978"/></radialGradient><filter id="filter29447-1" name="filter29447-1"><feGaussianBlur result="feGaussianBlur29449-4" stdDeviation="0.14"/></filter><linearGradient id="linear-gradient-8" x1="254.41" y1="239.45" x2="267.81" y2="226.55" gradientTransform="matrix(1, 0, 0, -1, -132, 300.13)" gradientUnits="userSpaceOnUse"><stop offset="0" stop-color="#646464" stop-opacity="0"/><stop offset="0.31" stop-color="#646464" stop-opacity="0.58"/><stop offset="0.47" stop-color="#646464"/><stop offset="0.73" stop-color="#646464" stop-opacity="0.26"/><stop offset="1" stop-color="#646464" stop-opacity="0"/></linearGradient><radialGradient id="radial-gradient-9" cx="204.35" cy="261.19" r="14.57" gradientTransform="matrix(1.09, -0.03, -0.04, -1.25, -50.35, 416.81)" xlink:href="#radial-gradient-7"/><filter id="filter28927-8" x="-25.15" y="-24.38" width="1.32" height="1.42" name="filter28927-8"><feGaussianBlur result="feGaussianBlur28929-2" stdDeviation="0.25"/></filter><filter id="filter28949-8" x="-25.17" y="-24.36" width="1.36" height="1.36" name="filter28949-8"><feGaussianBlur result="feGaussianBlur28951-1" stdDeviation="0.52"/></filter><linearGradient id="linear-gradient-9" x1="213.02" y1="221.13" x2="219.74" y2="213.17" gradientTransform="matrix(1, 0, 0, -1, -52, 300.13)" gradientUnits="userSpaceOnUse"><stop offset="0" stop-color="#949494" stop-opacity="0.39"/><stop offset="0.5" stop-color="#949494"/><stop offset="1" stop-color="#949494" stop-opacity="0.39"/></linearGradient><clipPath id="clip-path-13" transform="translate(-24.99 -24.18)"><path class="cls-1" d="M153.75,68.6a16.34,16.34,0,0,0-6.25,7.75c-1.44,4-.89,8.48.5,12.5s3.79,8,7.38,10.51a13.51,13.51,0,0,0,6,2.34,11,11,0,0,0,6.34-1.1A12.22,12.22,0,0,0,173,94.82a21.17,21.17,0,0,0,1.74-7.72,26.05,26.05,0,0,0-1.25-10A16.8,16.8,0,0,0,167,68.43a12.65,12.65,0,0,0-5.11-1.94,10.9,10.9,0,0,0-5.42.6,13.58,13.58,0,0,0-2.75,1.5"/></clipPath><linearGradient id="linear-gradient-10" x1="338.48" y1="236" x2="359.85" y2="223.5" gradientTransform="matrix(1, 0, 0, -1, -182, 300.13)" gradientUnits="userSpaceOnUse"><stop offset="0" stop-color="#747474"/><stop offset="0.13" stop-color="#8c8c8c"/><stop offset="0.25" stop-color="#a4a4a4"/><stop offset="0.5" stop-color="#d4d4d4"/><stop offset="0.62" stop-color="#d4d4d4"/><stop offset="1" stop-color="#7c7c7c"/></linearGradient><filter id="filter29350-1" name="filter29350-1"><feGaussianBlur result="feGaussianBlur29352-7" stdDeviation="0.15"/></filter><linearGradient id="linear-gradient-11" x1="295.2" y1="240.05" x2="309.43" y2="226.62" xlink:href="#linear-gradient-8"/><radialGradient id="radial-gradient-10" cx="100.1" cy="84.79" r="15.38" gradientTransform="matrix(0.7, -0.51, -0.46, -0.63, 106.71, 198.42)" gradientUnits="userSpaceOnUse"><stop offset="0" stop-color="#020204"/><stop offset="0.73" stop-color="#020204"/><stop offset="1" stop-color="#5c5c5c"/></radialGradient><radialGradient id="radial-gradient-11" cx="189.73" cy="8.79" r="31.11" gradientTransform="matrix(0.94, -0.39, -0.27, -0.66, -23.63, 185.2)" gradientUnits="userSpaceOnUse"><stop offset="0" stop-color="#d2940a"/><stop offset="0.75" stop-color="#d89c08"/><stop offset="0.87" stop-color="#b67e07"/><stop offset="1" stop-color="#946106"/></radialGradient><filter id="filter28502-8" x="-25.14" y="-24.39" width="1.31" height="1.43" name="filter28502-8"><feGaussianBlur result="feGaussianBlur28504-3" stdDeviation="0.9"/></filter><filter id="filter15145-6" name="filter15145-6"><feGaussianBlur result="feGaussianBlur15147-1" stdDeviation="0.76"/></filter><linearGradient id="linear-gradient-12" x1="256.85" y1="195.89" x2="313.33" y2="196.34" gradientTransform="matrix(1, 0, 0, -1, -142, 300.13)" gradientUnits="userSpaceOnUse"><stop offset="0" stop-color="#ad780a"/><stop offset="0.12" stop-color="#d89e08"/><stop offset="0.26" stop-color="#edb80b"/><stop offset="0.39" stop-color="#ebc80d"/><stop offset="0.53" stop-color="#f5d838"/><stop offset="0.77" stop-color="#f6d811"/><stop offset="1" stop-color="#f5cd31"/></linearGradient><filter id="filter14963-7" x="-25.15" y="-24.31" width="1.32" height="1.26" name="filter14963-7"><feGaussianBlur result="feGaussianBlur14965-0" stdDeviation="0.85"/></filter><filter id="filter15177-1" name="filter15177-1"><feGaussianBlur result="feGaussianBlur15179-3" stdDeviation="0.11"/></filter><radialGradient id="radial-gradient-12" cx="77.67" cy="32.51" r="3.23" gradientTransform="matrix(1, 0, 0, -0.58, 68, 112.42)" gradientUnits="userSpaceOnUse"><stop offset="0" stop-color="#3a2903"/><stop offset="0.55" stop-color="#735208"/><stop offset="1" stop-color="#ac8c04"/></radialGradient><filter id="filter15173-0" x="-25.1" y="-24.28" width="1.23" height="1.21" name="filter15173-0"><feGaussianBlur result="feGaussianBlur15175-4" stdDeviation="0.11"/></filter><radialGradient id="radial-gradient-13" cx="63.13" cy="223.5" r="1.54" gradientTransform="matrix(1, 0, 0, -1.08, 68, 333.95)" xlink:href="#radial-gradient-12"/><clipPath id="clip-path-14" transform="translate(-24.99 -24.18)"><path class="cls-1" d="M141.72,88.86a23.32,23.32,0,0,0-8.12,1.34,27.75,27.75,0,0,0-12,8.19,23.75,23.75,0,0,0-5.13,4.69,11.11,11.11,0,0,0-2,3.41,25.77,25.77,0,0,0-.66,3.07,5.73,5.73,0,0,0-.17,1.16,1.89,1.89,0,0,0,.09.58,1.47,1.47,0,0,0,.07.16,2.72,2.72,0,0,0,.27.65,3.87,3.87,0,0,0,1.07,1.11c.42.31.87.56,1.31.83a23.7,23.7,0,0,1,5.93,5.71c2.27,2.92,4.27,6.17,7.3,8.29a15.4,15.4,0,0,0,7.29,2.62,23.88,23.88,0,0,0,9.08-1.05,32.06,32.06,0,0,0,7.78-3.42c4.6-2.84,8.44-7,13.51-8.86,1.11-.41,2.26-.7,3.33-1.2a5.23,5.23,0,0,0,2.58-2.32,11.18,11.18,0,0,0,.63-3.32c.17-1.2.55-2.36.76-3.56a6,6,0,0,0-.28-3.57,4,4,0,0,0-.42-.69,2.58,2.58,0,0,0-.37-1.26,4.47,4.47,0,0,0-2.11-1.7,20.78,20.78,0,0,0-3.61-1.06,51.68,51.68,0,0,1-10.84-4c-1.72-.85-3.38-1.8-5.07-2.7a29.92,29.92,0,0,0-5.39-2.39,18.14,18.14,0,0,0-4.86-.76Z"/></clipPath><filter id="filter28584-4" x="-25.1" y="-24.31" width="1.21" height="1.27" name="filter28584-4"><feGaussianBlur result="feGaussianBlur28586-3" stdDeviation="0.26"/></filter><linearGradient id="linear-gradient-13" x1="255.23" y1="280.16" x2="255.67" y2="277.41" gradientTransform="matrix(1.1, 0, 0.17, -1.52, -155.94, 527.8)" gradientUnits="userSpaceOnUse"><stop offset="0" stop-color="#f5ce2d"/><stop offset="1" stop-color="#d79b08"/></linearGradient></defs><title>linux</title><g id="layer2"><g id="g463"><path id="path28712-2" class="cls-2" d="M148.81,24.18A42.8,42.8,0,0,0,128.08,29a37.38,37.38,0,0,0-15.59,16.22c-3.38,6.82-4.71,14.11-4.91,22.13A448.65,448.65,0,0,0,109.07,113c.31,4.41.85,7,.29,11.52-1.89,9.63-10.31,16.11-14.8,24.57-5,9.33-7,19.88-10.78,29.76-3.42,9-8.23,17.52-11.47,26.63-4.53,12.74-5.89,26.73-2.89,39.91A69,69,0,0,0,82.9,273c-.93,1.68-1.83,3.37-2.79,5-3,5.15-6.62,10-8.32,15.73a18.88,18.88,0,0,0-.63,8.81,12.65,12.65,0,0,0,4.35,7.57,13.15,13.15,0,0,0,5.25,2.43,23.52,23.52,0,0,0,5.8.5c7.39-.16,14.56-2.41,21.71-4.28q6.36-1.67,12.8-3c15.24-3.12,32.25-1.88,46.4.18,4.79.72,9.55,1.67,14.26,2.81,7.38,1.79,14.73,4.07,22.32,4.28a24.25,24.25,0,0,0,6-.46,13.26,13.26,0,0,0,5.4-2.47,12.66,12.66,0,0,0,4.36-7.59,18.84,18.84,0,0,0-.65-8.83c-1.72-5.71-5.39-10.57-8.44-15.7-1.2-2-2.32-4.09-3.51-6.12A100.33,100.33,0,0,0,228,236.6c4.66-14.28,5.51-29.65,3.55-44.53s-6.68-29.32-12.9-43c-7.8-17.14-14.35-23.33-19.1-38.38-5.13-16.27-.89-35.51-4.71-50.27a51.71,51.71,0,0,0-6.33-14.19,48.67,48.67,0,0,0-12.36-13.32,47.69,47.69,0,0,0-27.33-8.74Z" transform="translate(-24.99 -24.18)"/><path id="path29719-5" class="cls-3" d="M120.7,110.05a11.87,11.87,0,0,0-2.14,4.51,24,24,0,0,0-.63,5c-.13,3.35.08,6.77-.81,10-.95,3.46-3.08,6.46-5.16,9.38-3.6,5.06-7.25,10.25-9,16.2a28.78,28.78,0,0,0-1,11.16,118.07,118.07,0,0,0-10.42,18.78A102.74,102.74,0,0,0,83,216.42a80,80,0,0,0,5.63,39.1,64.06,64.06,0,0,0,16.69,23.25,57.05,57.05,0,0,0,12.19,8.1c15.21,7.48,34,7.49,49-.48,7.82-4.17,14.42-10.26,20.78-16.42,3.83-3.71,7.64-7.51,10.57-12,5.63-8.59,7.59-19,8.81-29.23,2.13-17.83,2.2-36.67-5.62-52.84a58.29,58.29,0,0,0-10.58-15.14,83,83,0,0,0-6.69-22.54c-2.37-5.16-5.27-10.06-7.47-15.29-.9-2.15-1.69-4.34-2.69-6.45a19.36,19.36,0,0,0-3.92-5.74,16.17,16.17,0,0,0-6.14-3.57,26.67,26.67,0,0,0-7-1.21c-4.76-.24-9.54.38-14.31.19-3.79-.15-7.58-.82-11.37-.59a17.48,17.48,0,0,0-5.55,1.16,11.19,11.19,0,0,0-4.57,3.3" transform="translate(-24.99 -24.18)"/></g><g id="g562"><g class="cls-4"><path class="cls-5" d="M103.92,157.83c1,1.52-.63,6.78,23,3.42a81.57,81.57,0,0,0-8.26,1.4c-6.37,2.13-11.92,4.52-16.21,7.68s-7.35,7.2-11.24,10.7c0,0,6.3-11.52,7.88-15s-.26-3.31,1-8.41a40,40,0,0,1,4.29-10S101.91,154.83,103.92,157.83Z" transform="translate(-24.99 -24.18)"/></g><g class="cls-6"><path class="cls-7" d="M180,156.46c-4.83,3.36-7.65,3-13.51,3.62s-21.7.42-21.7.42a41.86,41.86,0,0,1,7.38.9c5.08.95,15.45,1.85,21.29,4.07s8,2.86,11.52,5.1c5.05,3.19,8.76,8.2,13.59,11.7a17.28,17.28,0,0,0-1.72-8.11c-1.95-3.47-7.19-8.93-8.73-14S185.9,145,185.9,145s-1,8.1-5.85,11.47Z" transform="translate(-24.99 -24.18)"/></g><g class="cls-8"><path class="cls-9" d="M134.67,149.28q-.27,2.18-.7,4.34a12.17,12.17,0,0,1-.56,2.09,4.71,4.71,0,0,1-1.18,1.8,6.26,6.26,0,0,1-1.62,1,24.36,24.36,0,0,1-7.11,2q1.47.11,2.94.27a13.09,13.09,0,0,1,1.83.3,4.89,4.89,0,0,1,1.68.76,4.59,4.59,0,0,1,1.3,1.55,10,10,0,0,1,1,3.91,32,32,0,0,1,0,5.18,16,16,0,0,1,.72-3.4,14.77,14.77,0,0,1,3.12-5.39A11.66,11.66,0,0,1,138,162a10.29,10.29,0,0,1,7.24-1.76A11.24,11.24,0,0,1,138,158a9.36,9.36,0,0,1-2.58-2.9,8.11,8.11,0,0,1-.75-5.86" transform="translate(-24.99 -24.18)"/></g><g class="cls-10"><path d="M128.5,183.32A88.71,88.71,0,0,0,126,197.6c-.64,6.81-.48,13.67-.85,20.5-.31,5.8-1,11.66,0,17.37a29.84,29.84,0,0,0,2.55,7.87,26.9,26.9,0,0,0,.42-2.88c.43-4.64-.35-9.29-.62-13.94-.46-8.15.67-16.29,1.13-24.44a149.28,149.28,0,0,0-.12-18.78h0" transform="translate(-24.99 -24.18)"/></g><g class="cls-11"><path class="cls-12" d="M106.57,137.24c-.12-1.44-2.17-1.65-3.08-.94s-1.5,2.67-.83,3.48C103.74,141.09,106.74,139.21,106.57,137.24Z" transform="translate(-24.99 -24.18)"/></g><g class="cls-13"><path class="cls-12" d="M210,176.46c1.19-.18,8.52,6,7.51,8.36s-2.88.92-4.23.94-5,1.69-5.65.63,1.63-3.52,2.8-5.58c.95-1.66-1.63-4.17-.44-4.35Z" transform="translate(-24.99 -24.18)"/></g><g class="cls-14"><path class="cls-12" d="M165.24,37.09c-2.56,1.81-1.44,4.07-.34,6.33s-2.42,8.8-2.46,9.08,6.94-3.31,8.84-5.65c2.25-2.76,7.92,3.73,7.61,2.74C178.9,47.83,167.81,35.28,165.24,37.09Z" transform="translate(-24.99 -24.18)"/></g><g class="cls-15"><path class="cls-16" d="M184.69,113.1c-2.16,2,1,4.93,2.52,8.4.94,2.16,3.53,5.21,6,4.72,1.88-.37,3.05-3.08,2.88-5-.34-3.69-3.46-4.55-5.72-5.82C188.61,114.41,186.21,111.72,184.69,113.1Z" transform="translate(-24.99 -24.18)"/></g><g class="cls-17"><g class="cls-18"><path class="cls-19" d="M118.37,127.84a28.32,28.32,0,0,0,9.19,12.44,20.14,20.14,0,0,0,4.37,2.82,10.32,10.32,0,0,0,5.06,1,11.94,11.94,0,0,0,4.79-1.65c1.48-.84,2.86-1.85,4.29-2.76,2.46-1.56,5.1-2.82,7.66-4.22a44.13,44.13,0,0,0,8.66-6,39.36,39.36,0,0,1,3.61-3.2,7.11,7.11,0,0,1,4.49-1.5,25.18,25.18,0,0,1,3.51.85,5,5,0,0,0,1.8.1,2.58,2.58,0,0,0,2.31-2.82,5,5,0,0,0-.63-2.11c-.69-1.31-1.73-2.44-2.2-3.84a11.38,11.38,0,0,1-.29-3.91,7.84,7.84,0,0,0-.6-3.86,5,5,0,0,0-2.12-2.06,7.67,7.67,0,0,0-2.88-.8,40.08,40.08,0,0,0-6,.31c-2.66.15-5.32-.18-8,0-3.31.2-6.56,1.16-9.87,1.17-3.79,0-7.57-1.23-11.31-.64a29.52,29.52,0,0,0-4.68,1.35,14.51,14.51,0,0,1-4.76.94c-1.84,0-3.63-.67-5.47-.8a6.47,6.47,0,0,0-2.73.32,3.81,3.81,0,0,0-2.07,1.74,3.66,3.66,0,0,0-.39,1.52,5.54,5.54,0,0,0,.18,1.57,24.48,24.48,0,0,0,1.11,3c1.39,3.55,1.69,7.45,2.94,11.06" transform="translate(-24.99 -24.18)"/></g></g><g class="cls-17"><g class="cls-20"><path d="M113.62,113.76a38.4,38.4,0,0,1,8.77,7.42c2.31,2.66,4.28,5.67,7.3,7.63a16.1,16.1,0,0,0,7.29,2.41,25.91,25.91,0,0,0,9.08-1,33.47,33.47,0,0,0,7.78-3.15c4.6-2.61,8.44-6.44,13.51-8.16,1.11-.37,2.26-.64,3.33-1.11a5.1,5.1,0,0,0,2.58-2.13,9.59,9.59,0,0,0,.63-3.06c.17-1.11.55-2.18.76-3.28a5.1,5.1,0,0,0-.28-3.29,4.45,4.45,0,0,0-2.1-1.92,7.65,7.65,0,0,0-2.9-.66,46.72,46.72,0,0,0-6,.55c-2.65.22-5.32-.09-8,0-3.31.09-6.57.78-9.87.93-3.77.16-7.53-.38-11.31-.51a25.52,25.52,0,0,0-4.88.23,12.53,12.53,0,0,0-4.55,1.59,40.43,40.43,0,0,0-3.61,2.85,10.38,10.38,0,0,1-2,1.24A6,6,0,0,1,117,111c-.41,0-.82,0-1.22,0a2.63,2.63,0,0,0-1.7,1,2.24,2.24,0,0,0-.42,1.8h0" transform="translate(-24.99 -24.18)"/></g></g></g><g id="g481"><path id="path29705-5-0" class="cls-2" d="M213.1,171.69a32,32,0,0,1,11.14,20,48.44,48.44,0,0,1-1,18.13,147.72,147.72,0,0,1-5.53,17.4,34.35,34.35,0,0,0-2,7,11.58,11.58,0,0,0,1,7.09,10.78,10.78,0,0,0,6.48,4.92,15.56,15.56,0,0,0,8.15.1c2.67-.66,7.16-1.53,9.33-3.21,5.52-4.28,6.82-11.72,8.13-18.25,1.36-6.81.7-14-.5-20.83a140.31,140.31,0,0,0-7.88-27.41,95.48,95.48,0,0,0-9.79-18.52c-3.85-5.67-9.31-10.09-13.34-15.64-1.4-1.93-3.09-3.93-4.46-5.88-3-4.2-2.3-3.41-4.14-6.13-1.34-2-3.45-2.65-5.67-3.51a11.17,11.17,0,0,0-7-.47,11,11,0,0,0-6.8,6.08,15.94,15.94,0,0,0-1,9.22A32.92,32.92,0,0,0,192.75,153a40.16,40.16,0,0,0,8.54,10.65c3.67,3.05,8.1,5.07,11.82,8.06" transform="translate(-24.99 -24.18)"/><path id="path14967-1-0" class="cls-2" d="M98.47,141.27c-7.07,8-14.35,15.82-18.35,24.51-2,4.41-2.91,9.21-4.26,13.85a104.81,104.81,0,0,1-6,15.34C67.73,199.55,65.34,204,63,208.5c-1.74,3.25-3.51,6.58-4.11,10.22a21,21,0,0,0,.53,8.67,40,40,0,0,0,3.24,8.11,79.69,79.69,0,0,0,24.24,27.92,85.15,85.15,0,0,0,14.6,8.53,22.42,22.42,0,0,0,8.77,2.46,10.68,10.68,0,0,0,4.47-.84,7.94,7.94,0,0,0,3.48-2.89,8.32,8.32,0,0,0,1.16-5.41,12.94,12.94,0,0,0-1.91-5.26c-2.39-3.92-6.17-6.76-9.8-9.57C99.8,244.36,92.22,238,85,231.19a29.62,29.62,0,0,1-5.53-6.28,23.54,23.54,0,0,1-2.66-7.69,42.66,42.66,0,0,1,1.46-22.13c1-2.76,2.27-5.39,3.52-8,2.16-4.59,4.21-9.27,7-13.47,3.54-5.23,8.27-9.66,11.15-15.28,2.43-4.74,3.42-10.07,4.36-15.32.74-4.1,2.15-8.12,2.87-12.23-1.41,2.67-5.94,7-8.71,10.53Z" transform="translate(-24.99 -24.18)"/></g><g id="g514"><g class="cls-21"><g class="cls-22"><path class="cls-16" d="M198.78,162.26c.49.47,1,.94,1.53,1.38,3.73,3.05,5.72,6.49,9.51,9.48,6.19,4.89,12.48,13.34,13.7,21.06.95,6-.31,9.29-1.84,16.39s-5.87,17.15-8.22,24c-.94,2.73,1.89,1.6,1.52,4.48a17.41,17.41,0,0,0,0,4.26c0-.27,0-.55.07-.82a52.3,52.3,0,0,1,3-11.4c2.52-7.12,5.41-14.1,7.4-21.41a40.12,40.12,0,0,0,.73-18.84,31.69,31.69,0,0,0-12.41-20c-4.6-3.4-10-5.58-14.92-8.56Z" transform="translate(-24.99 -24.18)"/></g></g><g class="cls-23"><g class="cls-24"><path class="cls-12" d="M90.33,170.51a33,33,0,0,0-6,7.32c-2.67,4.46-4.24,9.47-6.18,14.29-1.44,3.59-3.13,7.19-3.33,11.06-.1,2,.19,4,.26,6A11,11,0,0,1,74,214.91a7,7,0,0,1-3.73,3.14,11.07,11.07,0,0,1,5.34,3.87c1.11,1.5,1.83,3.25,2.8,4.85a12.86,12.86,0,0,0,2.94,3.44A8.44,8.44,0,0,0,85.5,232a7.26,7.26,0,0,0,5.77-1.84,135.28,135.28,0,0,1,5.15-53.8,15.32,15.32,0,0,0,.77-3.34,4.79,4.79,0,0,0-.82-3.26,3.52,3.52,0,0,0-6,.72h0" transform="translate(-24.99 -24.18)"/></g></g></g><g id="g457"><g id="g444"><g class="cls-25"><path class="cls-26" d="M254.06,274.37a16.41,16.41,0,0,1-2.1,4.41c-2,3-5,5.28-7.93,7.37-5,3.57-10.27,6.84-15,10.89a75,75,0,0,0-8.65,9,86.48,86.48,0,0,1-7,8.06,24.39,24.39,0,0,1-9,5.53,21.77,21.77,0,0,1-12.15.26,12.57,12.57,0,0,1-7-4.1c-1.69-2.2-2.24-5.15-2.43-8.05a90.41,90.41,0,0,1,.82-15.58c.46-4.33.89-8.65,1.07-13a130.46,130.46,0,0,0-1.26-23.27,17.59,17.59,0,0,1-.26-3.89,5.66,5.66,0,0,1,4.71-5.47,18,18,0,0,1,3.59-.32,73.57,73.57,0,0,1,8.42,0c1.75.16,3.46.47,5.21.64a23.46,23.46,0,0,0,8.86-.72c3.15-.92,6.15-2.65,9.34-3.13a13.66,13.66,0,0,1,3.9,0,7.36,7.36,0,0,1,3.6,1.34,6.65,6.65,0,0,1,1.75,2.32,14.65,14.65,0,0,1,1.27,4.26,37.27,37.27,0,0,0,.61,4,11.62,11.62,0,0,0,3.36,5.34,32.47,32.47,0,0,0,5.09,3.73,57.36,57.36,0,0,0,5.46,3.18c.89.44,1.8.83,2.66,1.33a6.87,6.87,0,0,1,2.21,1.94,5.48,5.48,0,0,1,.84,4h0" transform="translate(-24.99 -24.18)"/></g><path id="path14296-0" class="cls-27" d="M271.19,282.85c-2.62,3.11-6.27,5.17-9.9,7-6.19,3.15-12.6,5.92-18.42,9.72A75.58,75.58,0,0,0,232,308.33a87,87,0,0,1-8.83,8,25.4,25.4,0,0,1-11,4.65,26.34,26.34,0,0,1-14.3-2.16c-3.14-1.37-6.16-3.32-8-6.23s-2.23-6.49-2.23-9.92c0-6.08,1.12-12.09,2.18-18.07.88-5,1.72-10,2.26-15a154.19,154.19,0,0,0,.32-27.51,20.88,20.88,0,0,1,0-4.6,5.85,5.85,0,0,1,6-5.45,21.3,21.3,0,0,1,4.24.35,89.62,89.62,0,0,1,9.89,1.72c2,.54,4,1.26,6.07,1.81a27.87,27.87,0,0,0,10.47,1c3.77-.44,7.43-1.86,11.22-1.76a16.64,16.64,0,0,1,4.59.8,9.8,9.8,0,0,1,4.12,2.3,9.06,9.06,0,0,1,1.88,3.07,18.58,18.58,0,0,1,1.17,5.25,45.44,45.44,0,0,0,.41,4.76,15.63,15.63,0,0,0,3.53,6.93,44.84,44.84,0,0,0,5.7,5.41c2,1.68,4,3.35,6.17,4.83,1,.69,2.06,1.34,3,2.1a9.49,9.49,0,0,1,2.45,2.72,6.17,6.17,0,0,1,.54,4.88,13.93,13.93,0,0,1-2.67,4.69Z" transform="translate(-24.99 -24.18)"/><g class="cls-28"><g class="cls-29"><path class="cls-30" d="M270.89,275a15.31,15.31,0,0,1-2.57,4.26c-2.4,2.81-5.73,4.65-9,6.31-5.65,2.83-11.5,5.32-16.82,8.74a69.08,69.08,0,0,0-9.92,7.86,79.43,79.43,0,0,1-8.07,7.21,23.37,23.37,0,0,1-10,4.18,24.44,24.44,0,0,1-13.06-1.95,15.53,15.53,0,0,1-7.27-5.6c-1.65-2.62-2-5.83-2-8.92,0-5.46,1-10.87,2-16.25.81-4.47,1.58-8.95,2.06-13.46a141.45,141.45,0,0,0,.29-24.74,18.78,18.78,0,0,1,0-4.14,5.3,5.3,0,0,1,5.42-4.92,19.63,19.63,0,0,1,3.87.33,86,86,0,0,1,9,1.54c1.87.48,3.68,1.13,5.55,1.63a25.79,25.79,0,0,0,9.56.86c3.44-.4,6.79-1.67,10.25-1.59a15.55,15.55,0,0,1,4.19.72,8.85,8.85,0,0,1,3.77,2.06,8.56,8.56,0,0,1,1.72,2.76,13,13,0,0,1,1.07,4.72,44.16,44.16,0,0,0-.11,5.07,9.64,9.64,0,0,0,1.5,3.81,30.19,30.19,0,0,0,2.52,3.26,33,33,0,0,0,5.59,5.65c2.45,1.77,5.36,2.81,7.9,4.47a7.52,7.52,0,0,1,2,1.78,4.76,4.76,0,0,1,.62,4.34h0" transform="translate(-24.99 -24.18)"/></g></g><g class="cls-31"><g class="cls-32"><path class="cls-33" d="M270.54,273.22a18.59,18.59,0,0,1-2.64,4.3,21.89,21.89,0,0,1-9.28,6.37c-5.76,2.18-12.05,2.47-17.71,4.95a61.18,61.18,0,0,0-9.69,5.94,48.82,48.82,0,0,1-7.92,4.63,40.6,40.6,0,0,1-9.86,2.68,30.26,30.26,0,0,1-6.46.48,13.94,13.94,0,0,1-6.23-1.73,8.72,8.72,0,0,1-3.52-3.6,12.65,12.65,0,0,1-1-5.73c.05-5.23,1.17-10.41,1.14-15.64,0-4.55-.93-9.05-1.19-13.6-.5-8.74,1.38-17.64-.27-26.21a20.74,20.74,0,0,1-.6-4.15,6,6,0,0,1,.36-2.05,3.79,3.79,0,0,1,1.17-1.65,3.42,3.42,0,0,1,1.51-.65,5,5,0,0,1,1.64,0,24.53,24.53,0,0,1,3.17.91c3,.9,6.21.88,9.28,1.56,1.93.43,3.79,1.12,5.7,1.64a25.92,25.92,0,0,0,9.82.86c3.53-.41,7-1.69,10.53-1.6a16.62,16.62,0,0,1,4.3.73,8.84,8.84,0,0,1,3.87,2.08,9.08,9.08,0,0,1,1.76,2.79,11.84,11.84,0,0,1,1.09,4.77c0,.86-.14,1.71-.21,2.56a7.78,7.78,0,0,0,.1,2.56,6.7,6.7,0,0,0,1.12,2.27c.49.68,1,1.31,1.55,2a43.4,43.4,0,0,1,3.54,6.15,19.15,19.15,0,0,0,4.09,5.69c2.38,2.06,5.46,2.88,8.11,4.51a6.92,6.92,0,0,1,2.07,1.8,4.84,4.84,0,0,1,.84,2.1,5,5,0,0,1-.2,2.28h0" transform="translate(-24.99 -24.18)"/></g></g><g class="cls-34"><g class="cls-35"><path class="cls-36" d="M195.31,234.89c3.28-.89,6.07,1.6,8.44,3.47,1.54,1.31,3.75,1,5.64,1,3.12-.11,6.23.52,9.35.14,6.14-.52,12.17-2,18.34-2.29,2.95-.19,6.26-.36,8.81,1.37,1,.72,2.55,3.74,3.57,2.6a8.61,8.61,0,0,0-5.94-7.1c-2.47-.39-5,.29-7.49.07-7.42-.18-14.79-1.56-22.23-1.16-5.18,0-10.35-.2-15.52-.4-2-.41-2.75,1.39-3.85,2.08" transform="translate(-24.99 -24.18)"/></g></g></g><g id="g411"><path id="path4635-1" class="cls-37" d="M65.58,227.26a9.09,9.09,0,0,1,5.1-.47,12.58,12.58,0,0,1,4.74,2c2.86,1.95,5,4.78,7,7.58,4.67,6.43,9.17,13,13.24,19.83,3.31,5.54,6.34,11.26,10.16,16.45,2.49,3.39,5.31,6.54,7.81,9.92a34.19,34.19,0,0,1,5.84,11.12,22.3,22.3,0,0,1-1.63,16,21.07,21.07,0,0,1-7.77,8.34,20,20,0,0,1-11,2.87c-6.11-.23-11.7-3.29-17.38-5.55-11.58-4.61-24.16-6.06-36.1-9.65-3.67-1.1-7.28-2.41-11-3.43a32.43,32.43,0,0,1-4.86-1.55,8.39,8.39,0,0,1-3.86-3.22,7.29,7.29,0,0,1-.93-3.79,11.86,11.86,0,0,1,.77-3.85c.9-2.47,2.34-4.71,3.32-7.16A30.07,30.07,0,0,0,30.75,270c-.22-4.29-.91-8.54-1.2-12.83a22.17,22.17,0,0,1,.18-5.74A8.61,8.61,0,0,1,37,244.06a23.28,23.28,0,0,1,5.28-.34,50.78,50.78,0,0,0,5.3,0,12.19,12.19,0,0,0,5.07-1.42,12,12,0,0,0,3.64-3.43,42.14,42.14,0,0,0,2.61-4.31,27.6,27.6,0,0,1,2.74-4.23,10.44,10.44,0,0,1,3.94-3.07" transform="translate(-24.99 -24.18)"/><g class="cls-38"><g class="cls-39"><path class="cls-40" d="M68.11,230a7.82,7.82,0,0,1,4.62-.3,10.85,10.85,0,0,1,4.19,2c2.48,1.91,4.2,4.61,5.85,7.27,4,6.43,7.85,12.93,11.52,19.57,2.78,5,5.42,10.09,8.84,14.68,2.26,3,4.85,5.83,7.16,8.84a29.82,29.82,0,0,1,5.39,9.93,19.56,19.56,0,0,1-1.5,14.23,19,19,0,0,1-7.19,7.51,18.5,18.5,0,0,1-10.09,2.49c-5.6-.26-10.71-3.05-16-5-10.1-3.67-21.05-4.16-31.42-7-3.71-1-7.34-2.35-11.07-3.29a33.58,33.58,0,0,1-4.9-1.42,8,8,0,0,1-3.9-3.16,6.9,6.9,0,0,1-.85-3.65,11.43,11.43,0,0,1,.81-3.69c.9-2.37,2.32-4.51,3.23-6.87a26.53,26.53,0,0,0,1.29-11.33c-.26-3.82-.92-7.61-1.15-11.43a19.49,19.49,0,0,1,.23-5.12,8.78,8.78,0,0,1,2.29-4.51,8.93,8.93,0,0,1,5-2.3,23.19,23.19,0,0,1,5.55,0,37.48,37.48,0,0,0,5.56.26,10.44,10.44,0,0,0,5.27-1.61,10.56,10.56,0,0,0,3.24-3.8,40.35,40.35,0,0,0,2-4.62,21.83,21.83,0,0,1,2.22-4.51A8.71,8.71,0,0,1,68.11,230" transform="translate(-24.99 -24.18)"/></g></g><g class="cls-38"><g class="cls-41"><path class="cls-42" d="M66.75,226.38a7.22,7.22,0,0,1,4.62-.53,9.88,9.88,0,0,1,4.2,2.06c2.43,2,4,4.79,5.42,7.55,3.3,6.34,6.38,12.82,10.34,18.78,2.87,4.33,6.18,8.36,9.08,12.67,3.94,5.84,7.14,12.27,8.46,19.16.89,4.63.86,9.63-1.37,13.81a15.39,15.39,0,0,1-6.66,6.41,17.25,17.25,0,0,1-9.19,1.7c-5-.44-9.45-2.87-14.12-4.57-8.27-3-17.22-3.73-25.73-6-3.59-1-7.11-2.2-10.75-3a31.94,31.94,0,0,1-4.78-1.16,7,7,0,0,1-3.77-3,5.94,5.94,0,0,1-.65-3.3,10.42,10.42,0,0,1,.86-3.28c.89-2.1,2.2-4,2.89-6.18,1-3.18.6-6.64-.16-9.89s-1.86-6.44-2.19-9.76a13.5,13.5,0,0,1,.19-4.43,7.81,7.81,0,0,1,2.11-3.88,8.8,8.8,0,0,1,5.28-2.19,24.56,24.56,0,0,1,5.82.34,31.08,31.08,0,0,0,5.81.49,9.53,9.53,0,0,0,5.45-1.79,9.32,9.32,0,0,0,3-4.75,32.85,32.85,0,0,0,.94-5.59,20.57,20.57,0,0,1,1.23-5.53,8.07,8.07,0,0,1,3.68-4.22" transform="translate(-24.99 -24.18)"/></g></g><g class="cls-43"><path class="cls-44" d="M84.41,242.21c2.61,4.71,4.2,10.12,6.78,14.88,2.38,4.37,5.08,8.87,7.5,12.91,1.08,1.8,3.58,4.55,6.12,8.84,2.3,3.88,4.62,9.3,5.92,11.12-.75-2.13-2.28-7.85-4.11-11.92-1.71-3.81-3.7-6-4.93-8-2.42-4-5-7.66-7.5-11.5-3.43-5.3-6-11.24-9.78-16.28Z" transform="translate(-24.99 -24.18)"/></g></g></g><g id="g526"><g class="cls-45"><path class="cls-46" d="M239.48,241.88a5.33,5.33,0,0,0-2.73-2.4,9.24,9.24,0,0,0-3.63-.62c-2.47,0-4.93.66-7.4.45a41.21,41.21,0,0,1-6.09-1.46,12.91,12.91,0,0,0-6.4-.14,9.42,9.42,0,0,0-5.42,4,12.71,12.71,0,0,0-1.76,5.78,33.78,33.78,0,0,0,.22,6.09,31.09,31.09,0,0,0,.67,4.36,11.56,11.56,0,0,0,1.77,4,10.84,10.84,0,0,0,5.07,3.67,14.09,14.09,0,0,0,10.13-.18,27.94,27.94,0,0,0,13.37-12.3,26.2,26.2,0,0,0,2.38-6.17,11.41,11.41,0,0,0,.38-2.6,5.5,5.5,0,0,0-.55-2.55" transform="translate(-24.99 -24.18)"/></g><g class="cls-47"><path class="cls-48" d="M239.48,238.72a5.15,5.15,0,0,0-2.73-1.74,12.46,12.46,0,0,0-3.63-.45c-2.47,0-4.93.48-7.4.33a54.78,54.78,0,0,1-6.09-1.05,17.72,17.72,0,0,0-6.4-.1,9.73,9.73,0,0,0-5.42,2.92,7.49,7.49,0,0,0-1.76,4.18,17.72,17.72,0,0,0,.22,4.4,16.78,16.78,0,0,0,.67,3.15,7.46,7.46,0,0,0,1.77,2.9,11.37,11.37,0,0,0,5.07,2.66,19.17,19.17,0,0,0,10.13-.13c5.66-1.78,10.45-5,13.37-8.89a16.23,16.23,0,0,0,2.38-4.46,6.15,6.15,0,0,0,.38-1.88,3.08,3.08,0,0,0-.55-1.84" transform="translate(-24.99 -24.18)"/></g></g><g id="g545"><path id="path29714-5-4" class="cls-2" d="M244.19,231.57a7.32,7.32,0,0,0-2-2.87,10.6,10.6,0,0,0-3-1.85,32.77,32.77,0,0,0-6.83-1.7c-2.18-.41-4.34-.91-6.53-1.28a17.79,17.79,0,0,0-6.87-.13,11.72,11.72,0,0,0-5.27,2.82,15.07,15.07,0,0,0-3.48,4.89,21.12,21.12,0,0,0-1.65,10.4,12.56,12.56,0,0,0,2.61,7.34,11.36,11.36,0,0,0,5.43,3.22,18.39,18.39,0,0,0,10.86-.16,28.59,28.59,0,0,0,14.33-10.78,15.78,15.78,0,0,0,2.55-5.4,8,8,0,0,0-.18-4.51" transform="translate(-24.99 -24.18)"/><g class="cls-49"><g class="cls-50"><path class="cls-51" d="M220.22,222.69a13.48,13.48,0,0,0-1.62.19,12.24,12.24,0,0,0-10.09,13,11.18,11.18,0,0,1,1.38-5,10.22,10.22,0,0,1,6.94-5.06,18,18,0,0,1,5.44.09c1.73.22,3.48.44,5.19.81a20.47,20.47,0,0,1,7.47,3,7.28,7.28,0,0,1,1.41,1.25,3.7,3.7,0,0,1,.84,1.66,4,4,0,0,1-.53,2.66,10,10,0,0,1-1.72,2.16c-.53.53-1.09,1-1.66,1.53a18.77,18.77,0,0,0,7.28-2.69,7.25,7.25,0,0,0,2.25-2.34,4.47,4.47,0,0,0,.5-3.19,4.66,4.66,0,0,0-1.06-1.94,9.45,9.45,0,0,0-1.69-1.44,20,20,0,0,0-9.06-3.47c-2.08-.38-4.18-.71-6.28-1a27.83,27.83,0,0,0-5-.28Z" transform="translate(-24.99 -24.18)"/></g></g><g class="cls-49"><g class="cls-52"><path class="cls-53" d="M220.22,222.69a13.48,13.48,0,0,0-1.62.19,12.24,12.24,0,0,0-10.09,13,11.18,11.18,0,0,1,1.38-5,10.22,10.22,0,0,1,6.94-5.06,18,18,0,0,1,5.44.09c1.73.22,3.48.44,5.19.81a20.47,20.47,0,0,1,7.47,3,7.28,7.28,0,0,1,1.41,1.25,3.7,3.7,0,0,1,.84,1.66,4,4,0,0,1-.53,2.66,10,10,0,0,1-1.72,2.16c-.53.53-1.09,1-1.66,1.53a18.77,18.77,0,0,0,7.28-2.69,7.25,7.25,0,0,0,2.25-2.34,4.47,4.47,0,0,0,.5-3.19,4.66,4.66,0,0,0-1.06-1.94,9.45,9.45,0,0,0-1.69-1.44,20,20,0,0,0-9.06-3.47c-2.08-.38-4.18-.71-6.28-1a27.83,27.83,0,0,0-5-.28Z" transform="translate(-24.99 -24.18)"/></g></g></g><g id="g777"><g id="g669"><g id="g643"><path id="path28795-9-5" class="cls-54" d="M122.23,68.6a7.75,7.75,0,0,0-4.79,2.14,10.82,10.82,0,0,0-2.79,4.5c-1.13,3.38-.88,7.05-.62,10.61a31.27,31.27,0,0,0,1.68,9.5,12.39,12.39,0,0,0,2.58,4.06,8.86,8.86,0,0,0,4.12,2.43,8.31,8.31,0,0,0,4.48-.16,9.71,9.71,0,0,0,3.85-2.34A12.9,12.9,0,0,0,134,93.66a22.57,22.57,0,0,0,.75-6.56,27.35,27.35,0,0,0-1.27-8.16,18.38,18.38,0,0,0-4.17-7.09,11.8,11.8,0,0,0-3.2-2.4,7.88,7.88,0,0,0-3.88-.85" transform="translate(-24.99 -24.18)"/><g id="g605"><path id="path29453-9" class="cls-2" d="M117.94,83.35a13.46,13.46,0,0,0,.39,6.74,11.27,11.27,0,0,0,2.37,3.8A7.87,7.87,0,0,0,123,95.7a4.3,4.3,0,0,0,2.87.37,4.24,4.24,0,0,0,2.22-1.5,7.3,7.3,0,0,0,1.22-2.42,13.47,13.47,0,0,0-.12-7.92,10.33,10.33,0,0,0-3-4.93A6,6,0,0,0,123.72,78a4.28,4.28,0,0,0-2.74.22,4.71,4.71,0,0,0-2.15,2.16,9.87,9.87,0,0,0-.89,3" transform="translate(-24.99 -24.18)"/><g class="cls-55"><path class="cls-56" d="M122.69,81.72c.24.63,1.05.86,1.5,1.38a5.76,5.76,0,0,1,1.13,1.63c.45,1.18-.45,2.92.5,3.75a1,1,0,0,0,1.19,0c1.15-1,.89-3.14.44-4.62a5.61,5.61,0,0,0-2.68-3.26c-.58-.3-1.45-.54-1.95-.12A1.19,1.19,0,0,0,122.69,81.72Z" transform="translate(-24.99 -24.18)"/></g></g><g class="cls-57"><path id="path29551-9" class="cls-58" d="M118.39,75.76a15,15,0,0,1,9.07-1.68,54.8,54.8,0,0,1,9.14,2,39.49,39.49,0,0,1,6.53,2.14,11.38,11.38,0,0,1,5.14,4.4c.18.32.35.65.54,1a3,3,0,0,0,.72.83,1.59,1.59,0,0,0,1,.34,1.16,1.16,0,0,0,.52-.15,1,1,0,0,0,.38-.39,1.2,1.2,0,0,0,.12-.62,2.94,2.94,0,0,0-.12-.62c-.76-2.75-2.53-5.09-3.89-7.6-.81-1.51-1.48-3.09-2.3-4.6A29.28,29.28,0,0,0,132.56,59a43.63,43.63,0,0,0-17-4.24,87.93,87.93,0,0,0-20.33,1.59,26.33,26.33,0,0,0-8.44,2.56,11.53,11.53,0,0,0-3.39,2.81,8.41,8.41,0,0,0-1.79,4,8.64,8.64,0,0,0,.5,4.2,13,13,0,0,0,2.16,3.66,54.09,54.09,0,0,0,6.22,5.83A59,59,0,0,0,97,84.94a13.66,13.66,0,0,0,3.84,1.82A9.05,9.05,0,0,0,105,87a9.84,9.84,0,0,0,4-1.9,21.46,21.46,0,0,0,3.15-3.1c1.92-2.24,3.72-4.69,6.26-6.2" transform="translate(-24.99 -24.18)"/></g><g class="cls-59"><path class="cls-60" d="M129.56,66.62a23.64,23.64,0,0,1,5.63,8.31c-.55-3.38-1.42-6.1-3.62-8.31a17,17,0,0,0-4.62-3.16,12.44,12.44,0,0,0-4.18-1.13c-1,0-1.2,0-1.4,0s-.36,0,.27.09a14.27,14.27,0,0,1,3.54,1.13A16.77,16.77,0,0,1,129.56,66.62Z" transform="translate(-24.99 -24.18)"/></g></g><g id="g652"><path id="path28795-3" class="cls-61" d="M153.75,68.6a16.34,16.34,0,0,0-6.25,7.75c-1.44,4-.89,8.48.5,12.5s3.79,8,7.38,10.51a13.51,13.51,0,0,0,6,2.34,11,11,0,0,0,6.34-1.1A12.22,12.22,0,0,0,173,94.82a21.17,21.17,0,0,0,1.74-7.72,26.05,26.05,0,0,0-1.25-10A16.8,16.8,0,0,0,167,68.43a12.65,12.65,0,0,0-5.11-1.94,10.9,10.9,0,0,0-5.42.6,13.59,13.59,0,0,0-2.75,1.5" transform="translate(-24.99 -24.18)"/><g id="g613"><path id="path28879-6" class="cls-2" d="M160.16,77a6.44,6.44,0,0,0-3,1A7.76,7.76,0,0,0,155,80.16a11.26,11.26,0,0,0-1.79,5.94,12.53,12.53,0,0,0,.63,4.65,8.77,8.77,0,0,0,2.61,3.86,7.57,7.57,0,0,0,4.42,1.72A7.43,7.43,0,0,0,165.41,95a8.19,8.19,0,0,0,2.51-2.87,10.7,10.7,0,0,0,1.14-3.66A11.3,11.3,0,0,0,168,81.9,9.26,9.26,0,0,0,163,77.44a7,7,0,0,0-2.89-.45" transform="translate(-24.99 -24.18)"/><g class="cls-62"><path class="cls-63" d="M162.66,83.85c-.87.34-2.24.13-2.62,1a1.3,1.3,0,0,0,.6,1.54,2.66,2.66,0,0,0,3-1.38,1.16,1.16,0,0,0-.54-1.35C163,83.57,162.82,83.78,162.66,83.85Z" transform="translate(-24.99 -24.18)"/></g><g class="cls-64"><path class="cls-65" d="M166.62,86.1c1.16-1.16-.83-4.24-2.37-5.5-1.12-.91-4.39-1.87-4.25-.87S161.61,82,162.59,83C163.81,84.16,166.07,86.65,166.62,86.1Z" transform="translate(-24.99 -24.18)"/></g></g><g class="cls-66"><path id="path28972-5" class="cls-67" d="M143.25,78.72a23.71,23.71,0,0,1,8.12-4.4,22.41,22.41,0,0,1,18.38,2.28,64.46,64.46,0,0,1,5.24,4A20.09,20.09,0,0,0,180.62,84a8.09,8.09,0,0,0,3.5.5,6.51,6.51,0,0,0,3-1.12A7.6,7.6,0,0,0,189.29,81a10.25,10.25,0,0,0,1.28-6.2c-.38-4.28-2.8-8.05-4.82-11.84a35.58,35.58,0,0,0-2-3.5,19.41,19.41,0,0,0-10-6.95,62.48,62.48,0,0,0-12.14-2.3,22.56,22.56,0,0,0-5.5-.25A48.7,48.7,0,0,0,150,51.6c-1,.25-2,.42-2.93.7a7.69,7.69,0,0,0-2.7,1.3,6.51,6.51,0,0,0-2.18,3.72,11.89,11.89,0,0,0,0,4.37c.46,2.9,1.54,5.72,1.44,8.65-.07,2-.7,4-.62,6a8.56,8.56,0,0,0,.25,1.75" transform="translate(-24.99 -24.18)"/></g><g class="cls-68"><path class="cls-69" d="M163.41,60.36a10.31,10.31,0,0,0-1.25,2,17.67,17.67,0,0,1,6,2.56,24.27,24.27,0,0,1,8.13,9.63,10,10,0,0,0,1.19-1.59,24.48,24.48,0,0,0-8.31-10A17.78,17.78,0,0,0,163.41,60.36Z" transform="translate(-24.99 -24.18)"/></g></g></g><g id="g735"><path id="path28849-2" class="cls-70" d="M130.6,92.1c1.77-2,3-4.41,4.67-6.46a11.19,11.19,0,0,1,3-2.62,6.62,6.62,0,0,1,3.82-.93A6.72,6.72,0,0,1,146,84a12,12,0,0,1,2.52,3.63,19,19,0,0,0,2,3.75A19.24,19.24,0,0,0,154,94.27a9.65,9.65,0,0,1,1.64,1.56,4.84,4.84,0,0,1,1,2,4.21,4.21,0,0,1-.19,2.27,5.08,5.08,0,0,1-1.26,1.9,7.42,7.42,0,0,1-4.13,1.85c-3,.43-6.11-.48-9.18-.39s-6.14,1.18-9.25,1.07a8.22,8.22,0,0,1-4.4-1.32,5.57,5.57,0,0,1-1.6-1.68,4.6,4.6,0,0,1-.67-2.21,5,5,0,0,1,.44-2.16,8.1,8.1,0,0,1,1.18-1.88c.94-1.15,2.09-2.11,3.07-3.21" transform="translate(-24.99 -24.18)"/><g id="g712"><path id="path28461-2" class="cls-71" d="M113.75,111.27a2.73,2.73,0,0,0,.33.84,3.87,3.87,0,0,0,1.07,1.11c.42.31.87.56,1.31.84a23.7,23.7,0,0,1,5.92,5.71c2.27,2.92,4.27,6.16,7.3,8.29a15.39,15.39,0,0,0,7.29,2.62,23.88,23.88,0,0,0,9.08-1.05,32.07,32.07,0,0,0,7.78-3.42c4.6-2.84,8.44-7,13.51-8.86,1.11-.41,2.26-.7,3.33-1.2a5.22,5.22,0,0,0,2.58-2.32,11.18,11.18,0,0,0,.63-3.32c.17-1.2.55-2.36.76-3.56a6,6,0,0,0-.28-3.57,4.62,4.62,0,0,0-2.1-2.08,7.15,7.15,0,0,0-2.9-.71,43.11,43.11,0,0,0-6,.6c-2.65.24-5.32-.1-8,0-3.31.1-6.57.84-9.87,1-3.77.18-7.53-.4-11.31-.55a23.35,23.35,0,0,0-4.89.23,11.34,11.34,0,0,0-4.54,1.75,43.6,43.6,0,0,0-3.56,3.18,9.14,9.14,0,0,1-2,1.35,5.07,5.07,0,0,1-2.3.55,3.75,3.75,0,0,0-1.22,0,1.65,1.65,0,0,0-.64.41,3.77,3.77,0,0,0-.48.6,10.52,10.52,0,0,0-.87,1.56" transform="translate(-24.99 -24.18)"/><g class="cls-72"><path class="cls-73" d="M128.56,115.34a6.63,6.63,0,0,0,4.35,7.85,7.89,7.89,0,0,0,6.05-.63,6.6,6.6,0,0,0,2.67-2.38,4.51,4.51,0,0,0,.6-1.7,3.73,3.73,0,0,0-.18-1.79,3.88,3.88,0,0,0-1.15-1.6,5.21,5.21,0,0,0-1.73-.95,10.85,10.85,0,0,0-3.93-.36,38.86,38.86,0,0,0-6,.75" transform="translate(-24.99 -24.18)"/></g><g class="cls-74"><path class="cls-75" d="M122.07,102.92c-1.34.79-2.63,1.66-3.9,2.56a4.78,4.78,0,0,0-1.68,1.7,4,4,0,0,0-.31,1.67,14.49,14.49,0,0,1,0,1.71c-.05.39-.15.77-.17,1.16a1.88,1.88,0,0,0,.06.58,1.2,1.2,0,0,0,.28.51,1.46,1.46,0,0,0,.65.37c.24.07.49.11.74.17a7.26,7.26,0,0,1,3.09,1.8c.9.81,1.7,1.71,2.64,2.48a14.86,14.86,0,0,0,9.16,3,41.3,41.3,0,0,0,9.7-1.35,58.54,58.54,0,0,0,7.43-2,32.73,32.73,0,0,0,10.12-6,34.63,34.63,0,0,1,4.13-3.42c1.34-.84,2.84-1.4,4.21-2.2a2.66,2.66,0,0,0,.35-.24,1,1,0,0,0,.27-.32,1,1,0,0,0,0-.72,1.9,1.9,0,0,0-.36-.63,4.42,4.42,0,0,0-.57-.58,9,9,0,0,0-5.23-1.81c-1.87-.15-3.76,0-5.61-.35A36.53,36.53,0,0,1,152,99.43a37.34,37.34,0,0,0-5.39-1.31,35.67,35.67,0,0,0-13,.32,37.93,37.93,0,0,0-11.54,4.48" transform="translate(-24.99 -24.18)"/></g><path id="path27476-4" class="cls-76" d="M121.64,98.39a23.76,23.76,0,0,0-5.14,4.69,11.11,11.11,0,0,0-2,3.41,25.76,25.76,0,0,0-.66,3.07,5.71,5.71,0,0,0-.17,1.16,1.89,1.89,0,0,0,.09.58,1.31,1.31,0,0,0,.29.5,1.63,1.63,0,0,0,.86.43c.32.07.64.08,1,.11a9,9,0,0,1,4,1.7c1.21.83,2.32,1.8,3.55,2.58a18.58,18.58,0,0,0,9.23,2.62,41.25,41.25,0,0,0,9.63-1,43.25,43.25,0,0,0,7.43-2,44.52,44.52,0,0,0,10.12-6,42.41,42.41,0,0,0,4.13-3.42c.44-.42.86-.86,1.33-1.25a4.83,4.83,0,0,1,1.57-.91,5.85,5.85,0,0,1,2.75,0,10.19,10.19,0,0,0,2.07.24,3.07,3.07,0,0,0,1-.2,2.1,2.1,0,0,0,.84-.6,2,2,0,0,0,.44-1.27,2.58,2.58,0,0,0-.37-1.31,4.47,4.47,0,0,0-2.11-1.7,20.78,20.78,0,0,0-3.61-1.06,51.68,51.68,0,0,1-10.84-4c-1.72-.85-3.38-1.8-5.07-2.7a29.91,29.91,0,0,0-5.39-2.4,21.18,21.18,0,0,0-13,.59,27.75,27.75,0,0,0-12,8.19h0" transform="translate(-24.99 -24.18)"/><g class="cls-77"><path class="cls-78" d="M151.24,99.32a1.79,1.79,0,0,0-.9-.59,2.41,2.41,0,0,0-1.08,0,5.08,5.08,0,0,0-2,.92,22.34,22.34,0,0,0-4.54,4.23,16.18,16.18,0,0,0-3.67,7.27,4.64,4.64,0,0,0-.08,1.38,2.13,2.13,0,0,0,.56,1.24,1.9,1.9,0,0,0,1.08.52,2.61,2.61,0,0,0,1.2-.13,6.06,6.06,0,0,0,2-1.34c3.34-3,6.35-6.57,7.56-10.88a4.84,4.84,0,0,0,.22-1.32,2.05,2.05,0,0,0-.4-1.26" transform="translate(-24.99 -24.18)"/></g><g id="g681"><g class="cls-79"><path class="cls-80" d="M143.25,93.13c.23.74,1.43.62,2.12,1s1.09,1,1.78,1,1.66-.23,1.75-.87c.11-.85-1.13-1.4-1.94-1.71a4.09,4.09,0,0,0-3.32-.07c-.22.12-.46.41-.39.65Z" transform="translate(-24.99 -24.18)"/></g><g class="cls-81"><path class="cls-82" d="M131.83,92.71c-.89-.29-2.36,1.28-1.88,2.08.13.22.53.5.81.35s.74-1,1.19-1.34S132.17,92.82,131.83,92.71Z" transform="translate(-24.99 -24.18)"/></g></g><g class="cls-83"><g class="cls-84"><path class="cls-85" d="M174.24,104.42c-.22,2-1.68,3.53-3.25,3.53h0c-1.58,0-2.68-1.58-2.46-3.53s1.68-3.53,3.25-3.53,2.68,1.58,2.46,3.53Z" transform="translate(-24.99 -24.18)"/></g></g></g></g></g></g></svg>