<svg id="Layer_1" data-name="Layer 1" xmlns="http://www.w3.org/2000/svg" viewBox="0 0 41.5 41.5"><title>mac</title><path d="M23.09,14v-.34L22,13.75a1.32,1.32,0,0,0-.68.19.56.56,0,0,0,0,.9A1,1,0,0,0,22,15a1.35,1.35,0,0,0,.45-.07,1.12,1.12,0,0,0,.36-.21.92.92,0,0,0,.24-.31A.91.91,0,0,0,23.09,14ZM21,.25A20.6,20.6,0,0,0,.25,21,20.6,20.6,0,0,0,21,41.75,20.6,20.6,0,0,0,41.75,21,20.6,20.6,0,0,0,21,.25Zm4,12.3a2.06,2.06,0,0,1,.42-.71,1.82,1.82,0,0,1,.65-.45,2.32,2.32,0,0,1,1.6,0,1.82,1.82,0,0,1,.58.34,1.6,1.6,0,0,1,.38.49,1.66,1.66,0,0,1,.17.6H28a1.07,1.07,0,0,0-.11-.32.88.88,0,0,0-.21-.26,1,1,0,0,0-.31-.17,1.22,1.22,0,0,0-.41-.06,1,1,0,0,0-.85.41,1.43,1.43,0,0,0-.24.48,2.13,2.13,0,0,0-.08.62,2.17,2.17,0,0,0,.08.63,1.37,1.37,0,0,0,.24.47,1,1,0,0,0,.37.3,1.12,1.12,0,0,0,.48.1,1.14,1.14,0,0,0,.7-.2.94.94,0,0,0,.35-.59h.83a1.66,1.66,0,0,1-.19.62,1.61,1.61,0,0,1-.4.48,1.77,1.77,0,0,1-.57.31,2.32,2.32,0,0,1-.73.11,2.22,2.22,0,0,1-.85-.15,1.82,1.82,0,0,1-.65-.44,2,2,0,0,1-.42-.7,2.79,2.79,0,0,1-.15-.94A2.7,2.7,0,0,1,25,12.55ZM13.18,11.29H14V12h0a1.23,1.23,0,0,1,.2-.33,1.25,1.25,0,0,1,.28-.25,1.3,1.3,0,0,1,.35-.16,1.51,1.51,0,0,1,.41-.05,1.33,1.33,0,0,1,.78.22,1.18,1.18,0,0,1,.45.63h0a1.31,1.31,0,0,1,.22-.35,1.42,1.42,0,0,1,.31-.27,1.46,1.46,0,0,1,.39-.17,1.66,1.66,0,0,1,.44-.06,1.59,1.59,0,0,1,.59.1,1.3,1.3,0,0,1,.45.29,1.26,1.26,0,0,1,.29.45,1.67,1.67,0,0,1,.1.59v3h-.87V12.89a.94.94,0,0,0-.22-.67.82.82,0,0,0-.63-.24.94.94,0,0,0-.37.07.84.84,0,0,0-.29.2.89.89,0,0,0-.19.3,1.06,1.06,0,0,0-.07.39v2.72h-.86V12.82a1,1,0,0,0-.06-.34.74.74,0,0,0-.17-.26.73.73,0,0,0-.26-.17A1,1,0,0,0,15,12a.92.92,0,0,0-.37.07.88.88,0,0,0-.29.21.94.94,0,0,0-.19.31A1.17,1.17,0,0,0,14,13v2.68h-.82Zm1.89,20.94c-3.82,0-6.22-2.66-6.22-6.9s2.4-6.91,6.22-6.91,6.22,2.67,6.22,6.91S18.89,32.23,15.07,32.23Zm7.08-16.58a1.74,1.74,0,0,1-.43.05,1.83,1.83,0,0,1-.6-.09,1.38,1.38,0,0,1-.47-.26,1.17,1.17,0,0,1-.3-.41,1.27,1.27,0,0,1-.11-.53,1.06,1.06,0,0,1,.43-.9,2.29,2.29,0,0,1,1.24-.38l1.18-.07v-.34a.7.7,0,0,0-.24-.58,1,1,0,0,0-.68-.2,1.21,1.21,0,0,0-.33,0,.91.91,0,0,0-.27.13.73.73,0,0,0-.19.2.71.71,0,0,0-.1.26h-.82A1.16,1.16,0,0,1,20.6,12a1.38,1.38,0,0,1,.37-.43,1.73,1.73,0,0,1,.55-.28,2.24,2.24,0,0,1,.68-.1,2.4,2.4,0,0,1,.72.1,1.64,1.64,0,0,1,.55.29,1.28,1.28,0,0,1,.35.45,1.37,1.37,0,0,1,.13.59v3h-.83v-.73h0a1.31,1.31,0,0,1-.24.32,1.51,1.51,0,0,1-.32.24A1.62,1.62,0,0,1,22.15,15.65Zm5.5,16.58c-2.92,0-4.9-1.53-5-3.93h1.9c.15,1.37,1.47,2.28,3.29,2.28s3-.91,3-2.15c0-1.07-.76-1.72-2.52-2.17l-1.71-.43C24.1,25.22,23,24.1,23,22.26c0-2.27,2-3.84,4.81-3.84s4.69,1.58,4.76,3.86H30.66c-.13-1.37-1.25-2.21-2.92-2.21s-2.81.85-2.81,2.08c0,1,.72,1.55,2.48,2l1.44.36c2.75.67,3.88,1.75,3.88,3.7C32.75,30.68,30.78,32.23,27.65,32.23ZM15.07,20.12c-2.62,0-4.26,2-4.26,5.2s1.64,5.2,4.26,5.2,4.26-2,4.26-5.2S17.68,20.12,15.07,20.12Z" transform="translate(-0.25 -0.25)"/></svg>