<svg id="Layer_1" data-name="Layer 1" xmlns="http://www.w3.org/2000/svg" xmlns:xlink="http://www.w3.org/1999/xlink" viewBox="0 0 255.38 254.05"><defs><style>.cls-1{fill:url(#linear-gradient);}.cls-2{fill:url(#linear-gradient-2);}</style><linearGradient id="linear-gradient" x1="-167.98" y1="547.22" x2="-167.31" y2="546.56" gradientTransform="matrix(189.38, 0, 0, -189.81, 31836.94, 103889.56)" gradientUnits="userSpaceOnUse"><stop offset="0" stop-color="#387eb8"/><stop offset="1" stop-color="#366994"/></linearGradient><linearGradient id="linear-gradient-2" x1="-167.92" y1="547.14" x2="-167.2" y2="546.46" gradientTransform="matrix(189.38, 0, 0, -189.81, 31902.94, 103953.82)" gradientUnits="userSpaceOnUse"><stop offset="0" stop-color="#ffe052"/><stop offset="1" stop-color="#ffc331"/></linearGradient></defs><title>python</title><path class="cls-1" d="M126.92.07C62.08.07,66.13,28.19,66.13,28.19l.07,29.13h61.87v8.75H41.63S.14,61.35.14,126.77s36.21,63.1,36.21,63.1H58V159.51S56.8,123.3,93.6,123.3H155s34.48.56,34.48-33.32V34S194.67.07,126.92.07ZM92.8,19.66A11.13,11.13,0,1,1,81.67,30.79,11.12,11.12,0,0,1,92.8,19.66Z" transform="translate(-0.14 -0.07)"/><path class="cls-2" d="M128.76,254.13c64.83,0,60.78-28.12,60.78-28.12l-.07-29.13H127.6v-8.75H214s41.49,4.7,41.49-60.71-36.21-63.1-36.21-63.1H197.71V94.69s1.16,36.21-35.63,36.21H100.71s-34.48-.56-34.48,33.32v56s-5.23,33.9,62.52,33.9Zm34.11-19.59A11.13,11.13,0,1,1,174,223.41a11.12,11.12,0,0,1-11.13,11.13Z" transform="translate(-0.14 -0.07)"/></svg>