<svg id="Layer_1" data-name="Layer 1" xmlns="http://www.w3.org/2000/svg" viewBox="0 0 1380 1800"><defs><style>.cls-1{fill:#80c342;}.cls-2{fill:#fff;}.cls-3{fill:none;}</style></defs><title>qt-1048</title><path class="cls-1" d="M250.5,4.1C117.3-17.9,5,80.4,5,223.6V1798l1219.5-205.3c84.1-14.6,148.5-113.7,148.5-220.8V188.4Z" transform="translate(0 0)"/><path class="cls-2" d="M1144,1166.6c-14.3,0-23.3-4.5-30.2-13.6-7.7-10-9.8-32.2-9.8-66.7V689.4l103,5.1V585.9L1104,578V404.9l-100.3-10.6L962.8,568.2l-65-4.7V679.9l45.8,2.4v439.9c0,57.6,14.6,99.6,38,125.7,20,22.6,50.9,33.7,89.2,33.7,5.7,0,11.8-.3,17.9-.8,42.4-3.6,83.9-15.1,129.6-34.4v-99.8c-22.9,11.8-49,18.5-70.8,19.8a20,20,0,0,1-3.5.2" transform="translate(0 0)"/><path class="cls-2" d="M819.7,1167.3c-35.3,83.1-89,137.6-162.6,162.8,7.4,38.1,18.6,63.7,33.6,77.3Q708.1,1423,744,1423c6.9,0,14.3-.5,22.2-1.3V1534l-51.1,6.7a325.09,325.09,0,0,1-42.8,2.9c-44.7,0-80.9-10.9-108.1-32.8q-54-43.35-79.6-167.3c-78.3-16.7-139.3-66.4-181.5-149.9-42.9-84.8-64.7-208.9-64.7-371.2,0-175,29.9-304.2,88.6-386.1,49.6-69.1,118.8-103.1,205.8-103.1a381.59,381.59,0,0,1,43.2,2.6c102.4,11.8,176.6,60.1,224.9,143.8,47.4,81.9,70.7,199.3,70.7,353.4C871.5,974.2,854.3,1085.3,819.7,1167.3Zm-154-32.1q30.3-77.7,30.1-305.1,0-204.15-29.9-281.1c-20-51.6-50-79.5-90.1-83-3.1-.3-6.1-.4-9.1-.4q-55.8,0-85.7,65.3-32.4,71.25-32.5,295,0,216,32,306.2c20.2,57.1,50.4,85.5,90,85.5,1.8,0,3.5-.1,5.3-.2q59.55-3.75,89.9-82.2" transform="translate(0 0)"/><rect class="cls-3" width="1380" height="1800"/></svg>