<svg id="Layer_1" data-name="Layer 1" xmlns="http://www.w3.org/2000/svg" xmlns:xlink="http://www.w3.org/1999/xlink" viewBox="0 0 721.09 556.06"><defs><style>.cls-1{fill:url(#linear-gradient);}.cls-2{fill:url(#linear-gradient-2);}</style><linearGradient id="linear-gradient" x1="63.91" y1="701.6" x2="64.91" y2="700.6" gradientTransform="matrix(721.09, 0, 0, -482.94, -46085.11, 338831.66)" gradientUnits="userSpaceOnUse"><stop offset="0" stop-color="#cbced0"/><stop offset="1" stop-color="#84838b"/></linearGradient><linearGradient id="linear-gradient-2" x1="63.78" y1="701.48" x2="64.78" y2="700.48" gradientTransform="matrix(398, 0, 0, -406.12, -25110, 285067.33)" gradientUnits="userSpaceOnUse"><stop offset="0" stop-color="#276dc3"/><stop offset="1" stop-color="#165caa"/></linearGradient></defs><title>R</title><path class="cls-1" d="M361.45,485.94C162.33,485.94.91,377.83.91,244.47S162.33,3,361.45,3,722,111.11,722,244.47,560.58,485.94,361.45,485.94ZM416.64,97.41c-151.35,0-274,73.91-274,165.08s122.7,165.08,274,165.08,263-50.53,263-165.08S568,97.41,416.64,97.41Z" transform="translate(-0.91 -3)"/><path class="cls-2" d="M550,377s21.82,6.58,34.5,13c4.4,2.23,12,6.67,17.5,12.5a47.25,47.25,0,0,1,8,11.5l86,145-139,.06L492,437s-13.31-22.87-21.5-29.5c-6.83-5.53-9.74-7.5-16.5-7.5H421l0,159L298,559V152.94H545S657.5,155,657.5,262,550,377,550,377ZM496.5,241,422,241,422,310l74.5,0s34.5-.11,34.5-35.12C531,239.15,496.5,241,496.5,241Z" transform="translate(-0.91 -3)"/></svg>