<svg id="Layer_1" data-name="Layer 1" xmlns="http://www.w3.org/2000/svg" viewBox="0 0 567.33 566.27"><defs><style>.cls-1{fill:#f8c00f;}.cls-2{fill:#e84336;}.cls-3{fill:none;stroke:#000;stroke-miterlimit:10;stroke-width:0.4px;}.cls-4{font-size:42.51px;}.cls-10,.cls-11,.cls-13,.cls-14,.cls-15,.cls-16,.cls-17,.cls-18,.cls-19,.cls-20,.cls-22,.cls-23,.cls-24,.cls-25,.cls-26,.cls-27,.cls-28,.cls-29,.cls-4,.cls-5,.cls-6,.cls-7,.cls-8,.cls-9{fill:#fff;font-family:Arial-BoldMT, Arial;font-weight:700;}.cls-5{font-size:42.37px;}.cls-6{font-size:42.37px;}.cls-7{font-size:42.38px;}.cls-8{font-size:42.37px;}.cls-9{font-size:42.42px;}.cls-10{font-size:42.53px;}.cls-11{font-size:42.55px;}.cls-12{fill:#55a45c;}.cls-13{font-size:42.37px;}.cls-14{font-size:42.48px;}.cls-15{font-size:42.46px;}.cls-16{font-size:42.47px;}.cls-17{font-size:42.37px;}.cls-18{font-size:42.39px;}.cls-19{font-size:42.37px;}.cls-20{font-size:42.43px;}.cls-21{fill:#4e82bb;}.cls-22{font-size:42.43px;}.cls-23{font-size:42.37px;}.cls-24{font-size:42.39px;}.cls-25{font-size:42.37px;}.cls-26{font-size:42.48px;}.cls-27{font-size:42.45px;}.cls-28{font-size:42.47px;}.cls-29{font-size:42.37px;}</style></defs><title>scibyte</title><g id="dHaBY6.tif"><path class="cls-1" d="M199.94,175.76c4.68.4,11.94,1,19.17,1.63,1.82.15,3.6.65,5.42.77a2.11,2.11,0,0,0,1.66-.89c3.38-7.29,6.4-14.8,10.12-21.91a95.81,95.81,0,0,1,19.85-26.55c2.52-2.34,5.45-4.25,8-6.49a5.83,5.83,0,0,0,1.72-3c1.72-8.58,6.77-14.4,14.68-17.75a22.31,22.31,0,0,1,13.82-1.23,23.67,23.67,0,0,1,17.51,14.49c.77,1.82,1.11,3.82,1.75,5.69a3.57,3.57,0,0,0,1.17,1.78c8.55,5.72,15.17,13.32,21,21.66a155.66,155.66,0,0,1,14.68,27.2c.86,2,1.54,4,2.4,6,.22.46.89,1.08,1.32,1,3.51-.37,7-.89,10.55-1.29,3-.34,6.12-.8,9.17-.83,5.85,0,11.72.12,17.57.34a81.45,81.45,0,0,1,8.65.86c14.09,2.22,27,7,36.62,18.09a40.87,40.87,0,0,1,8.74,17.35,48.36,48.36,0,0,1,1.14,15.85,73.12,73.12,0,0,1-3.85,17.14c-5.35,15.38-14,28.8-24.22,41.32-1.17,1.45-1.08,2.46.06,3.85a146.22,146.22,0,0,1,20.06,31.32,73.53,73.53,0,0,1,6.06,17.35c.52,2.71.86,5.45,1.51,8.15a4.2,4.2,0,0,0,1.57,2.46c5.72,3.82,9.63,8.8,11.23,15.66a24.07,24.07,0,0,1-13.91,27.45c-6.37,2.77-13,2.55-19.45,0a3,3,0,0,0-2.25,0,60.43,60.43,0,0,1-16.77,6c-4.74.86-9.51,1.69-14.31,2.09a109.57,109.57,0,0,1-15.23.49c-6.31-.31-12.58-1.2-18.86-1.85a36.61,36.61,0,0,0-4-.43c-.43,0-1.11.65-1.29,1.11a163.4,163.4,0,0,1-14.34,29.17c-6.58,10.34-14.22,19.69-24.71,26.43-5.54,3.54-11.38,6.25-18,7a51.83,51.83,0,0,1-9,.55,43.91,43.91,0,0,1-20.15-6.58c-10.43-6.34-18.15-15.32-24.83-25.35A159.64,159.64,0,0,1,228.06,405c-.62-1.45-1.08-3-1.72-4.4-.22-.49-.89-1.11-1.29-1.08-3.63.4-7.23,1-10.86,1.48a6.13,6.13,0,0,1-1,.15c-7.51.25-15,1-22.52.58-12.15-.58-24-2.71-34.89-8.71a2.58,2.58,0,0,0-2,.06,24.23,24.23,0,0,1-22-43.08,3.63,3.63,0,0,0,1.38-2.43c1.23-11.72,5.63-22.31,11.14-32.52a150.83,150.83,0,0,1,16.37-24.15c1.26-1.51,1.23-2.52,0-4.06a151.27,151.27,0,0,1-19.2-29.63,91.35,91.35,0,0,1-6.86-18.77,58.85,58.85,0,0,1-1.91-18.06c1.08-14.12,7.38-25.29,19.17-33.23a61.17,61.17,0,0,1,20.74-8.62C180.61,176.62,189,176,199.94,175.76ZM221.84,289c.31,8.25.55,16.55,1,24.83.22,4,.77,8,1.26,12a2.75,2.75,0,0,0,1.08,1.63c5.57,3.85,11.08,7.75,16.77,11.42a356.08,356.08,0,0,0,45.26,24.71c1.26.58,2.4,1.14,4,.34,7.72-4,15.63-7.63,23.32-11.69a331.07,331.07,0,0,0,39.69-24.86,2.27,2.27,0,0,0,.83-1.23,21.05,21.05,0,0,0,.55-3.66c.49-7.51,1.29-15,1.35-22.49.06-11.91-.37-23.82-.65-35.72a54.05,54.05,0,0,0-.74-8.65c-.34-1.78.25-3.88-1.69-5.29a293.5,293.5,0,0,0-33.14-21.17c-9.85-5.29-19.88-10.28-29.88-15.29a3.31,3.31,0,0,0-2.65.12c-7.91,3.85-15.88,7.63-23.66,11.75A318.36,318.36,0,0,0,225,250.5a2.22,2.22,0,0,0-.86,1.42c-.49,4.12-1,8.22-1.26,12.34C222.4,272.47,222.18,280.71,221.84,289Zm18.4,107.66a20.17,20.17,0,0,0,.52,2.06c1.54,3.6,3,7.2,4.71,10.74C250,419,255.35,428,262.61,435.79c6.18,6.55,13.17,11.82,22.43,13.45a27.67,27.67,0,0,0,16-2.09c8.49-3.6,14.77-9.91,20.25-17.08,6.62-8.65,11.51-18.28,15.78-28.22.74-1.69,1.26-3.45,1.85-5.08-7.08-2.06-13.88-3.85-20.52-6.09-8.46-2.83-16.8-6.12-25.23-9.08-1.42-.49-2.62-1.85-4.52-1.11-8.89,3.42-17.75,6.89-26.77,9.94C254.89,392.77,247.63,394.53,240.24,396.65ZM220.92,192.4a4,4,0,0,0-.8-.31c-5.69-.65-11.35-1.51-17.08-1.88a99.41,99.41,0,0,0-21.57,1.11,62.55,62.55,0,0,0-17.29,5.11c-9.78,4.62-15.85,12.18-17.38,23-1,6.65.22,13.23,2.18,19.57a84.33,84.33,0,0,0,9.75,20.86c3.72,5.72,7.75,11.23,11.66,16.83.74,1.08,1.45,1.17,2.34.12,1-1.23,2.25-2.37,3.38-3.54A290.63,290.63,0,0,1,209,244.59a3.79,3.79,0,0,0,1.57-1.94c.62-3.54,1-7.11,1.54-10.68.46-3.14,1-6.28,1.57-9.42.83-4.22,1.72-8.4,2.68-12.58.77-3.32,1.66-6.58,2.52-9.88C219.54,197.51,220.24,195,220.92,192.4Zm137.23-.25c1.23,4.68,2.43,9.08,3.51,13.51.92,3.63,1.78,7.29,2.55,11,.65,3,1.14,6,1.63,9,.68,4.12,1.42,8.25,1.94,12.37.4,3.2.68,6.31,4.15,7.85a2.45,2.45,0,0,1,.55.43,296.14,296.14,0,0,1,33.78,30.43c1,1,1.6,1,2.49-.09,7.94-10.37,15.17-21.14,19.69-33.51,3-8.18,5.08-16.49,3.45-25.35a27.7,27.7,0,0,0-4.18-10.68c-4.68-7-11.69-10.8-19.38-13.35a76.23,76.23,0,0,0-23.66-3.57c-6,0-11.94.37-17.91.74C363.94,191.08,361.1,191.7,358.15,192.16Zm0,193.54c18.92,2.74,37.42,3.69,55.69-3.66-3.38-7.57-3.57-14.92.22-22.12s9.91-11.26,17.85-12.86a6.87,6.87,0,0,0-.15-2c-1.51-4.74-2.8-9.54-4.68-14.12-4.4-10.86-11.11-20.31-18.12-29.6-1-1.29-1.66-1.23-2.74-.09-2.92,3.08-5.94,6.09-9,9a332.68,332.68,0,0,1-27.48,23.45,2.8,2.8,0,0,0-1.11,1.45c-.37,1.91-.52,3.85-.8,5.78-.52,3.51-1,7-1.63,10.49-.8,4.4-1.69,8.77-2.65,13.14-.77,3.51-1.63,7-2.52,10.43S359.14,381.82,358.12,385.7Zm-192.68-3.91a17.78,17.78,0,0,0,1.72,1,72.16,72.16,0,0,0,25.17,4.86c6.62.22,13.26-.31,19.88-.68,2.86-.15,5.69-.8,8.83-1.29-.65-2.25-1.29-4.18-1.78-6.15-1.54-6.46-3.14-12.89-4.43-19.38-1.38-7-2.31-14.06-3.66-21-.4-2,0-4.31-2.28-6A277.28,277.28,0,0,1,173,301.33c-1.38-1.45-1.6-1.48-2.77.06-9.38,12.18-17.69,25-21.91,40-.52,1.85-.77,3.75-1.14,5.69,8.12,1.66,14.22,5.69,18,12.83S168.74,374.4,165.44,381.79ZM268.74,136.53c-10.28,7.82-28.62,37-28.25,44.8,2.71.74,5.42,1.45,8.12,2.25,5.91,1.72,11.88,3.26,17.66,5.26,7.26,2.52,14.43,5.45,21.57,8.31a4.61,4.61,0,0,0,3.78-.25c2.71-1.14,5.38-2.28,8.12-3.29,5-1.88,10-3.72,15-5.45,4-1.38,8.15-2.58,12.25-3.75,3.88-1.11,7.78-2.06,11.75-3.11-.06-.49-.06-.92-.12-1.32a2.45,2.45,0,0,0-.18-.68c-3.78-9.08-7.91-17.94-13.38-26.15a77.85,77.85,0,0,0-13.11-15.48c-1.14-1-1.69-1.17-2.83.31-6.28,8-14.37,11.54-24.62,9.48A23.57,23.57,0,0,1,271,139.39C270.3,138.53,269.57,137.54,268.74,136.53Zm83,94.89.46-.28c-.09-.92-.15-1.85-.31-2.77-.34-1.91-.77-3.78-1.17-5.69-.77-3.78-1.45-7.63-2.37-11.38-1.23-4.89-2.77-9.69-3.94-14.55-.43-1.75-1.26-1.94-2.62-1.57-4.06,1.11-8.15,2.12-12.18,3.35-6.22,1.88-12.37,3.91-18.52,5.91a32.18,32.18,0,0,0-3.48,1.6A389.69,389.69,0,0,1,351.78,231.42ZM308,371.57c0,.18,0,.4,0,.58,3.29,1.17,6.55,2.4,9.88,3.48,4.12,1.35,8.25,2.62,12.4,3.82,4,1.17,8,2.18,12.06,3.23.83.22,1.66.18,1.94-1,1.42-5.26,3-10.49,4.22-15.82,1.32-5.6,2.37-11.26,3.51-16.92a17.1,17.1,0,0,0,0-2.86A376.21,376.21,0,0,1,308,371.57Zm-36.89.49a486.76,486.76,0,0,1-44.28-26c.18,1.51.22,2.49.4,3.45.34,1.91.74,3.82,1.14,5.69.77,3.78,1.48,7.63,2.37,11.38,1,4.22,2.31,8.37,3.32,12.58.89,3.69.8,3.72,4.49,3a.39.39,0,0,0,.18,0c4-1,8.09-1.94,12.09-3.11,4.92-1.48,9.78-3.14,14.68-4.8C267.41,373.57,269.26,372.8,271.14,372.07Zm-44.31-141c.18.09.34.22.52.31a392.56,392.56,0,0,1,44-25.38,16.77,16.77,0,0,0-1.85-1c-4.43-1.51-8.83-3.08-13.29-4.43-6.4-1.94-12.83-3.69-19.23-5.48-1.17-.34-2-.06-2.28,1.42-.43,2.12-1.23,4.15-1.78,6.25-1.08,4.25-2.12,8.52-3.14,12.8-.68,2.92-1.32,5.85-1.88,8.77C227.5,226.59,227.2,228.87,226.83,231.11Zm143.6,83.14c.18.06.37.09.58.15l.49-.4a259.8,259.8,0,0,0,25.2-23.48c1.14-1.23,1.29-1.94,0-3.14-7.17-6.74-14.25-13.6-21.38-20.34-1.35-1.29-2.92-2.34-4.4-3.51l-.49.22A354.55,354.55,0,0,1,370.43,314.25ZM208.7,263.14c-.74.52-1,.68-1.17.83a277.05,277.05,0,0,0-25.45,23.72c-1.08,1.14-.58,1.82.25,2.62,7.17,6.83,14.34,13.69,21.54,20.49,1.32,1.26,2.86,2.34,4.31,3.48a3.22,3.22,0,0,0,.52-.12A361.9,361.9,0,0,1,208.7,263.14Z" transform="translate(0 0)"/><path d="M320.86,289a31.29,31.29,0,1,1-30.77-31.32A31.35,31.35,0,0,1,320.86,289Z" transform="translate(0 0)"/></g><path class="cls-2" d="M51.46,121.08a283.47,283.47,0,0,1,464.4,0l-26.51,18.56L462.85,158.2a218.75,218.75,0,0,0-358.37,0L78,139.64Z" transform="translate(0 0)"/><path class="cls-3" d="M51.46,121.08a283.47,283.47,0,0,1,464.4,0l-26.51,18.56L462.85,158.2a218.75,218.75,0,0,0-358.37,0L78,139.64Z" transform="translate(0 0)"/><text class="cls-4" transform="matrix(0.7, -0.72, 0.72, 0.7, 101.31, 121.97)">0</text><text class="cls-5" transform="matrix(0.85, -0.53, 0.53, 0.85, 143.81, 84.04)">1</text><text class="cls-6" transform="translate(194.09 56.94) rotate(-18.81)">0</text><text class="cls-7" transform="translate(249.22 42.37) rotate(-5.36)">1</text><text class="cls-8" transform="translate(306.12 40.93) rotate(8.06)">0</text><text class="cls-9" transform="translate(361.83 52.81) rotate(21.5)">0</text><text class="cls-10" transform="matrix(0.82, 0.57, -0.57, 0.82, 413.35, 77.3)">1</text><text class="cls-11" transform="matrix(0.66, 0.75, -0.75, 0.66, 457.8, 113.1)">1</text><path class="cls-12" d="M259,566.05A283.46,283.46,0,0,1,26.76,163.87l29.33,13.68,29.33,13.68A218.75,218.75,0,0,0,264.6,501.58l-2.82,32.24Z" transform="translate(0 0)"/><path class="cls-3" d="M259,566.05A283.46,283.46,0,0,1,26.76,163.87l29.33,13.68,29.33,13.68A218.75,218.75,0,0,0,264.6,501.58l-2.82,32.24Z" transform="translate(0 0)"/><text class="cls-13" transform="translate(240.48 523.55) rotate(-167.02)">0</text><text class="cls-14" transform="translate(185.91 506.92) rotate(-153.57)">1</text><text class="cls-15" transform="matrix(-0.77, -0.64, 0.64, -0.77, 136.72, 478.15)">0</text><text class="cls-16" transform="matrix(-0.6, -0.8, 0.8, -0.6, 95.57, 438.67)">0</text><text class="cls-17" transform="matrix(-0.4, -0.92, 0.92, -0.4, 64.67, 390.77)">0</text><text class="cls-18" transform="translate(45.78 336.9) rotate(-99.84)">0</text><text class="cls-19" transform="matrix(0.06, -1, 1, 0.06, 39.89, 280.15)">1</text><text class="cls-20" transform="matrix(0.29, -0.96, 0.96, 0.29, 47.45, 223.7)">1</text><path class="cls-21" d="M540.57,163.87a283.46,283.46,0,0,1-232.2,402.18l-2.82-32.24-2.82-32.24A218.74,218.74,0,0,0,481.92,191.22l29.33-13.68Z" transform="translate(0 0)"/><path class="cls-3" d="M540.57,163.87a283.46,283.46,0,0,1-232.2,402.18l-2.82-32.24-2.82-32.24A218.74,218.74,0,0,0,481.92,191.22l29.33-13.68Z" transform="translate(0 0)"/><text class="cls-22" transform="matrix(0.29, 0.96, -0.96, 0.29, 513.05, 201.17)">0</text><text class="cls-23" transform="translate(525.89 256.69) rotate(86.43)">1</text><text class="cls-24" transform="translate(525.57 313.69) rotate(99.85)">0</text><text class="cls-25" transform="translate(511.95 369.18) rotate(113.29)">0</text><text class="cls-26" transform="translate(485.88 419.75) rotate(126.71)">1</text><text class="cls-27" transform="translate(448.69 462.96) rotate(140.16)">0</text><text class="cls-28" transform="translate(402.52 496.4) rotate(153.59)">0</text><text class="cls-29" transform="translate(349.78 518.23) rotate(167.02)">1</text></svg>