<svg id="Layer_1" data-name="Layer 1" xmlns="http://www.w3.org/2000/svg" xmlns:xlink="http://www.w3.org/1999/xlink" viewBox="0 0 256.1 256"><defs><style>.cls-1{fill:url(#linear-gradient);}.cls-2{fill:url(#linear-gradient-2);}.cls-3{fill:#fff;}</style><linearGradient id="linear-gradient" x1="-2183.58" y1="-413.75" x2="-2135.23" y2="-139.52" gradientTransform="matrix(-1, 0, 0, 1, -2031.21, 404.61)" gradientUnits="userSpaceOnUse"><stop offset="0" stop-color="#faae42"/><stop offset="1" stop-color="#ef3e31"/></linearGradient><linearGradient id="linear-gradient-2" x1="130.63" y1="251.74" x2="95.21" y2="50.91" gradientTransform="matrix(1, 0, 0, -1, 0, 255.89)" gradientUnits="userSpaceOnUse"><stop offset="0" stop-color="#e39f3a"/><stop offset="1" stop-color="#d33929"/></linearGradient></defs><title>swift</title><path class="cls-1" d="M56.9,0H198.7a59.78,59.78,0,0,1,20.1,3.4A56.78,56.78,0,0,1,255.4,48a69,69,0,0,1,.7,11.1V197.4a64.78,64.78,0,0,1-1.1,13.2,56.89,56.89,0,0,1-38.5,42.8,60.12,60.12,0,0,1-17.9,2.6c-2.7,0-142.1,0-144.2-.1a57.06,57.06,0,0,1-28.8-9.5A57.79,57.79,0,0,1,6.1,224,56.43,56.43,0,0,1,.4,199.1V56.9A53.08,53.08,0,0,1,5.7,32.4,56.78,56.78,0,0,1,25,9.9,56,56,0,0,1,53.7.2,16.68,16.68,0,0,1,56.9,0Z" transform="translate(0 0)"/><path class="cls-2" d="M216,209.4a39.06,39.06,0,0,0-3-4.1,42.48,42.48,0,0,0-8.6-7.8,26.33,26.33,0,0,0-13.5-4.6,24.44,24.44,0,0,0-10,1.6,65.17,65.17,0,0,0-9.3,4.3c-3.5,1.8-7,3.6-10.7,5.1a80.42,80.42,0,0,1-13.7,4.2,89.05,89.05,0,0,1-17.8,1.4,120.3,120.3,0,0,1-31.6-4.8,119.54,119.54,0,0,1-25.7-11.1,132.51,132.51,0,0,1-19.9-14.1A145.42,145.42,0,0,1,38,165.4c-3-3.5-5.9-7.2-8.6-11a46.64,46.64,0,0,1-3-4.7h0L0,121.2V56.7A56.63,56.63,0,0,1,56.6,0h50.5l37.4,38h0c84.4,57.4,57.1,120.7,57.1,120.7S225.6,185.7,216,209.4Z" transform="translate(0 0)"/><path class="cls-3" d="M144.7,38c84.4,57.4,57.1,120.7,57.1,120.7s24,27.1,14.3,50.8c0,0-9.9-16.6-26.5-16.6-16,0-25.4,16.6-57.6,16.6-71.7,0-105.6-59.9-105.6-59.9C91,192.1,135.1,162,135.1,162c-29.1-16.9-91-97.7-91-97.7,53.9,45.9,77.2,58,77.2,58-13.9-11.5-52.9-67.7-52.9-67.7,31.2,31.6,93.2,75.7,93.2,75.7C179.2,81.5,144.7,38,144.7,38Z" transform="translate(0 0)"/></svg>