<svg id="Layer_1" data-name="Layer 1" xmlns="http://www.w3.org/2000/svg" viewBox="0 0 134.28 210.01"><defs><style>.cls-1{fill:#0d3996;}.cls-2{fill:#fe360e;}.cls-3{fill:#fff;}.cls-4{fill:#ff0;}</style></defs><title>tcl</title><polyline class="cls-1" points="42.96 200.73 115.45 210.01 119.56 119.82 134.28 38.39 100.6 36.87 85.58 29.11 16.77 26.21 12.38 107.49 0 200.32 42.96 200.73"/><polyline class="cls-2" points="53.4 174.91 126.44 177.2 121.88 87.03 128.72 4.57 95.06 6.28 79.36 0 10.59 3.71 14.02 85.03 10.59 178.62 53.4 174.91"/><path class="cls-1" d="M78.53,122.39l-7.63,2.08,4.16-10.06,4.16-28.09-5.2-1,6.24-8.67L88,47.38,74.37,50.24S81.58,37,89.23,28.45l-10-7.68S47,35,55.66,81.09L49,79.92l6.39,48.36L50,129.67S55.52,141,63.27,146.32c.7.49-9.71-37.8,1.39-76l1,2.43s-8.84,40.67,0,73.53c0,0,.41.78,4.83.26,0,0,8-15.09,8-24.19" transform="translate(-0.05 -0.47)"/><path class="cls-3" d="M21.69,157h1.57v-3.26a12.59,12.59,0,0,0,2-.11V157h2.34v.61H25.28v8.13c0,.48,0,1.19,1,1.19.69,0,1.06-.48,1.49-1l.43.29a3.35,3.35,0,0,1-2.87,1.62c-1.91,0-2.12-1-2.12-2.31v-7.94H21.69V157" transform="translate(-0.05 -0.47)"/><path class="cls-3" d="M43.78,164.24c-.61,1.88-1.67,3.53-4.43,3.64A5.19,5.19,0,0,1,34,162.62a5.48,5.48,0,0,1,5.31-5.87c1.73,0,4.17.8,4.17,2.84A1.29,1.29,0,0,1,42.27,161,1.18,1.18,0,0,1,41,159.75c0-1,.85-1.17.85-1.46,0-.72-1.67-1-2.26-1-2.55,0-3.21,1.86-3.21,5.34A8.88,8.88,0,0,0,37,165.8a2.75,2.75,0,0,0,2.6,1.51c1.54.08,3-1.17,3.66-3.08h.56" transform="translate(-0.05 -0.47)"/><path class="cls-3" d="M49.93,167.53v-.61h2V149.85h-2v-.61h1.14a15.86,15.86,0,0,0,3-.24v17.92h2v.61H49.93" transform="translate(-0.05 -0.47)"/><path class="cls-3" d="M68.06,66.93s-4.68,20.87-3.33,54.7A220.55,220.55,0,0,0,67.6,149.2h0c.88,7.1,1.47,9.67,3.77,18.23L71.24,173s-18.41-58.77-3.18-106" transform="translate(-0.05 -0.47)"/><path class="cls-3" d="M79.36,48.83A34.48,34.48,0,0,1,89.44,46S95.92,57.91,80,78.21c0,0,9.52-21.26,7.28-27.92,0,0-2.51-1.56-7.87-1.46" transform="translate(-0.05 -0.47)"/><path class="cls-3" d="M77.4,84.52s3.72.86,5.5-.58c0,0-3.52,13.72-2.59,21.27s-5.73,12.38-5.73,12.38,5.67-7.17,3.88-13c-1.24-4,.15-14.4,1.7-17.69,0,0-1.46-.2-2.77-2.37" transform="translate(-0.05 -0.47)"/><path class="cls-3" d="M73.72,120.67s6.14-.74,6.79-3.84c0,0,.75,18.56-7.78,26.21,0,0,6.51-10.16,5.49-20.67l-4.5-1.7" transform="translate(-0.05 -0.47)"/><path class="cls-3" d="M56.44,128.4s-2,2.22-7.93-2.68c0,0,1.89,12.47,13.66,18.19,0,0-8.1-6.1-10.28-12.69a10.78,10.78,0,0,0,4.54-2.82" transform="translate(-0.05 -0.47)"/><path class="cls-3" d="M54.55,123.67s-8-20.4-6.31-48a12.24,12.24,0,0,0,7.91,6.74,17,17,0,0,1-4.5.33s-4.21,11.64,2.91,40.9" transform="translate(-0.05 -0.47)"/><path class="cls-3" d="M88.31,28.87s-3-22.14-21.86.25c-15,17.83-13.22,33-12.3,41.4.24,2.16-2.79-22.55,13.65-38.81S88,27.92,88.31,28.87" transform="translate(-0.05 -0.47)"/><path class="cls-4" d="M60.55,10S45.77,5.76,41.06,54.77c0,0-3.63-15.13,5.76-36.52S60.55,10,60.55,10" transform="translate(-0.05 -0.47)"/><path class="cls-4" d="M42.21,6.4s-7.54,11.34-5.83,23.43c0,0-5.72-22.74,5.83-23.43" transform="translate(-0.05 -0.47)"/><path class="cls-4" d="M97.71,38.21s8.92-3.29-3.85,29.91a90.69,90.69,0,0,0,10.77-24.94c2.67-9.78-6.92-5-6.92-5" transform="translate(-0.05 -0.47)"/><path class="cls-4" d="M112.14,35.62s6.31,5.71,1.84,13.26c0,0,11.22-11.79-1.84-13.26" transform="translate(-0.05 -0.47)"/><path class="cls-3" d="M16.2,191.36h.31c.9,0,1.39-.2,1.39-1.21S17.32,189,16.47,189H16.2v2.36m0,4.18H14.68v-7.8h2.07c1.64,0,2.7.65,2.7,2.42A2.21,2.21,0,0,1,17,192.62H16.2Z" transform="translate(-0.05 -0.47)"/><path class="cls-3" d="M28.64,191.57c0,1.18,1,2.68,2.29,2.68s2.29-1.5,2.29-2.68A2.46,2.46,0,0,0,30.93,189a2.46,2.46,0,0,0-2.29,2.53m-1.57.06a3.87,3.87,0,1,1,3.86,4.12A3.94,3.94,0,0,1,27.07,191.63Z" transform="translate(-0.05 -0.47)"/><polyline class="cls-3" points="45.24 192.59 45.26 192.59 46.81 187.17 47.72 187.17 49.33 192.59 49.35 192.59 50.88 187.27 52.47 187.27 49.84 195.23 48.72 195.23 47.17 190.13 47.15 190.13 45.68 195.23 44.56 195.23 42.08 187.27 43.67 187.27 45.24 192.59"/><polyline class="cls-3" points="61.71 188.6 61.71 190.31 64.13 190.31 64.13 191.64 61.71 191.64 61.71 193.75 64.22 193.75 64.22 195.07 60.19 195.07 60.19 187.27 64.22 187.27 64.22 188.6 61.71 188.6"/><path class="cls-3" d="M74.11,191.33h.2c.84,0,1.43-.25,1.43-1.2S75.12,189,74.31,189h-.21v2.35m3.75,4.21H76l-1.89-3.15h0v3.15H72.58v-7.8h2.06c1.54,0,2.61.68,2.61,2.35a2.06,2.06,0,0,1-1.59,2.16Z" transform="translate(-0.05 -0.47)"/><polyline class="cls-3" points="87.12 188.6 87.12 190.31 89.54 190.31 89.54 191.64 87.12 191.64 87.12 193.75 89.64 193.75 89.64 195.07 85.6 195.07 85.6 187.27 89.64 187.27 89.64 188.6 87.12 188.6"/><path class="cls-3" d="M99.52,194.22h.25a2.58,2.58,0,1,0,0-5.15h-.25v5.15M98,187.74h2.17a3.9,3.9,0,0,1,0,7.8H98Z" transform="translate(-0.05 -0.47)"/></svg>