<?xml version="1.0" encoding="UTF-8"?>
<svg width="2198" height="1266" xmlns="http://www.w3.org/2000/svg" xmlns:xlink="http://www.w3.org/1999/xlink">
 <linearGradient id="a" gradientUnits="userSpaceOnUse">
  <stop stop-color="#00b2ff" offset="0"/>
  <stop stop-color="#f00" offset="1"/>
 </linearGradient>
 <linearGradient id="o" x2="0" y1="808" y2="-2" gradientTransform="matrix(1.0059 0 0 1 -24.37 -8.19)" gradientUnits="userSpaceOnUse">
  <stop stop-color="#007bae" offset="0"/>
  <stop stop-color="#00c3d3" offset="1"/>
 </linearGradient>
 <linearGradient id="n" x1="1756.5" x2="1756.8" y1="634.61" y2="585.4" gradientUnits="userSpaceOnUse">
  <stop stop-color="#3c3c3c" stop-opacity=".9" offset="0"/>
  <stop stop-color="#800000" stop-opacity="0" offset="1"/>
 </linearGradient>
 <linearGradient id="m" x1="979.86" x2="1788.6" y1="354.82" y2="359.71" gradientUnits="userSpaceOnUse">
  <stop stop-color="#dcdddf" offset="0"/>
  <stop stop-color="#f00" offset="1"/>
 </linearGradient>
 <linearGradient id="l" x1="1725.1" x2="2197.8" y1="883.45" y2="883.45" gradientUnits="userSpaceOnUse">
  <stop stop-color="#f00" offset="0"/>
  <stop stop-color="#00b2ff" offset="1"/>
 </linearGradient>
 <linearGradient id="k" x1="1829.5" x2="2199" y1="942.42" y2="942.42" gradientUnits="userSpaceOnUse">
  <stop stop-color="#cd0027" offset="0"/>
  <stop stop-color="#00b2ff" offset="1"/>
 </linearGradient>
 <linearGradient id="j" x1="1128.3" x2="1712.2" y1="796.53" y2="796.53" xlink:href="#a"/>
 <linearGradient id="i" x1="977.86" x2="1742.9" y1="883.61" y2="883.61" xlink:href="#a"/>
 <path d="m0-.969v800.78h2195.2c1.95 0 3.56-1.37 3.563-3.094v-797.69h-2198.8z" fill="url(#o)"/>
 <metadata>
  <rdf:RDF xmlns:cc="http://creativecommons.org/ns#" xmlns:rdf="http://www.w3.org/1999/02/22-rdf-syntax-ns#">
   <cc:Work xmlns:dc="http://purl.org/dc/elements/1.1/">
    <dc:format>image/svg+xml</dc:format>
    <dc:type rdf:resource="http://purl.org/dc/dcmitype/StillImage"/>
    <dc:title/>
    <cc:license rdf:resource="http://creativecommons.org/licenses/publicdomain/"/>
   </cc:Work>
   <cc:License rdf:about="http://creativecommons.org/licenses/publicdomain/">
    <cc:permits rdf:resource="http://creativecommons.org/ns#Reproduction"/>
    <cc:permits rdf:resource="http://creativecommons.org/ns#Distribution"/>
    <cc:permits rdf:resource="http://creativecommons.org/ns#DerivativeWorks"/>
   </cc:License>
  </rdf:RDF>
 </metadata>
 <path d="m97.876 479.46-15.669-27.578-18.803-54.529 28.205-36.979 5.641-25.698 8.148-1.254 12.535 8.775 15.669-27.578 30.085-23.817 22.564-9.402 50.141 8.148 30.085-8.775h28.205l35.099 7.521 28.205-5.641 27.578-1.254 69.571 31.965 26.951 28.205 1.88 6.894 14.416 12.535h16.923v11.909l-9.402 7.521-2.507 24.444-16.923 15.669-27.578 49.515-16.296 11.909-27.578 5.641-17.55 7.521-18.803 22.564-25.698-3.134-60.17 8.148-51.395 16.923-87.748-1.254-39.486-38.233-4.387-18.176z" fill="#dcdddf" stroke="#000"/>
 <path d="m556.04 471.94 26.324 29.458 5.014 20.683 17.55 6.268 16.923-5.641 20.057-1.88 25.071-6.268 13.789-11.282 23.817-.627 24.444 6.268 27.578-8.148h46.381l24.444-8.775 46.381-.627 26.951-6.894 14.416 2.507 38.86 1.88 44.5-9.402 14.416 3.761 20.683 1.254 20.056-5.014 70.198-10.655 27.578.627 22.564-6.268 53.275-1.254 47.008-12.535 75.839-.627 96.522-21.937h50.768l20.056 4.387 26.324-8.775 29.458.627 24.444 5.014 25.071 25.698 16.296 25.071.627 6.894 12.535 25.698.627 31.965-3.761 8.775 5.014 11.282-4.387 11.909 12.535 15.042-8.148 16.923v13.789l6.895 11.909-3.761 21.31 4.388 6.894 178 1.88-1.254-12.535-5.641-7.521 2.507-22.564 18.803-54.529-10.028-50.141 3.134-21.31 8.775-26.951 6.894-13.162 18.176-4.387 17.55 5.641 27.578-13.162 25.071-17.55 26.951-9.402 27.578-38.86 21.31-14.416 23.19-28.831.627-17.55-15.042-30.712-22.564-7.521-41.994-9.402h-64.557l-23.19-3.761-52.649 1.254-33.219-7.521-25.698 12.535-40.113-1.254-163.59-.627-72.705 4.387-181.14-.627-43.874 6.894-48.261-2.507-47.634 3.134-28.205-6.268-55.156 7.521-25.698-7.521-38.86 5.641-19.43-3.761-172.99-3.761-31.965-5.014-50.141 18.803-78.973-12.535-27.578 1.88-42.62 11.909-20.057 11.909-.627 17.55-41.367.627 5.014-13.162-42.62 24.444 42.62 23.19-4.387-11.282h39.486l-.627 6.894-8.148 8.775v26.951l3.761 12.535-10.655 17.55-6.894 15.042-2.507 18.803-28.205.627 4.387-15.669-43.247 28.205 41.367 21.937-5.014-11.282z" fill="url(#m)" stroke="#000"/>
 <path d="m1658.1 585.41 4.156 5-8.125 16.906v13.781l6.875 11.938-3.75 21.281 4.375 6.906 178 1.875-1.25-12.531-5.625-7.531 2.5-22.562 12.094-35.062h-189.25z" fill="url(#n)"/>
 <path d="m1385.7 450.81-148 76-16 32-39 29-59 55-17 10-26 37-14 4-28 26-28 18-14 13-21 12-9.5 9.5-13.5 5.5-11 11-24 9-31.5 2-33-6.5-16.5-7.5-26.5-10.5-4.25-15.5-66.75-22.5-18.5.5-31 10-70 7-65 64.5-45.5 56.5-78.5 37-47 15-113-4-105 5-54-4-43-11-68.656-38.062v390.25h2199.6l-.781-753.03-62.281-16.656-33.906-16.688-29.188-14.094-39.5-2.906-30.406 25.219-16.906 30.188-25.406 27.781-10.688 55.125-50.438 29.062-32.938 30.469-48.5 3.344-43-9-59-3c-24.8 2.57-20.3-1.11-74.281 7.719l-21.875-11.688c-11.2-15.4-21.6-20.1-31.875-24.438-6.84-14.4 3.86-6.2-20.531-43.156l-38.531-40.906-15.719-27.969-.219-19.625-12.281-9.719-115.69-31.219zm687.78 14.719 15.344 1.125-17.469-2.156z" fill="#815636"/>
 <path d="m0 775.88v103.66l5.969 3.531 65.938 35.562 30.062 7.719 33.969 4.281h75.781l80.812-2.031 92.719 2.719 54.688-20.406 69.219-35.094 38.375-47.656 7.406-43.844-63.094.188-48.094 7.781-60.094-9.188-33.219 10.594-12.031-4.25-36.781.719-80.594 2.125-59.406-1.438-67.875-7.063-12.75 5.656-18.375 1.406-57.281-14.844-5.344-.125z" fill="#de6d29"/>
 <path d="m547.53 828.16 7.416-43.837 11.713-18.515 5-9.5 17.5-16 13-7 23.5.5 11.5 1 18.5-4 61.5-3 6 5 7-7 13.5-4 23.5 1 8.5 6 24-.5 6.5 5 8 5 7.5 1.5 10.5 16 6.308 30.822-12.494-2.669-15.814-8.653-27-21-41-14-21-2-31.5 9.5-72.281 9.263z" fill="#7f9fd2"/>
 <path d="m833.01 759.99 39.145.073 13.75 3h23.75l13.75-5.75 9.5 5.25 42.375.625-9.125 9.125-13.5 5.5-11 11-24 9-31.5 2-33-6.5-14.692-6.678z" fill="#de6d29"/>
 <path d="m1513.6 491.75 5.29-.11 9.546 13.789 11.314 21.213 23.688 18.031 42.426 51.265 53.033 53.74 4.131 6.642-20.691 3.198c-28.5-8.2-35.8-24.1-53.736-36.111-6.8-14.3-12-25.5-20.525-43.172l-38.525-40.889-15.718-27.96zm328.2 170.46 19.337-28.441 35.002-32.88 13.435-15.203 15.203-8.839 32.88-54.801 6.364-15.203 14.496-18.031 10.253.354 8.654 9.556-10.806 19.311-25.414 27.778-10.707 55.111-50.425 29.071-32.929 30.464z" fill="#7f9fd2"/>
 <path d="m1679.8 1088.1-115.25 10.594-78.5 15.562-107.47 31.125-56.562 19.781-47.375 21.937-21.938 22.625-13.438 26.156 4 30.125h893.22l2.938-22.344-5.656-16.969-33.25-29.719-62.219-33.937-76.375-27.563-103.94-23.344-103.22-16.25-74.969-7.781z" fill="#fae79a"/>
 <path d="m1673.4 1105.8-98.281 8.5-80.594 13.438-134.38 38.875-74.938 31.125-31.125 40.312 7.375 28h858.03l2.937-29.406-27.594-25.469-64.344-33.25-88.375-29.688-111.03-24.031-86.25-14.156-71.438-4.25z" fill="#ea674b"/>
 <path d="m1127.7 1023.8 19-78 23-47 36-41 54-57 99-57 90-32 104-22 63-3 61 19 27 29 10 53-13 48-59 38-25 7-392 226-57-4-36-29z" fill="none" stroke="#c8c8c8" stroke-dasharray="6,12" stroke-width="6"/>
 <path d="m1758.7 745.81 7-35 31-26 33-14 89 13 80 37 67 46 37 44 38 57 33 97 1 45-8 41-23 13-35 2-50-28-165-132-63-50-37-17-27-34-10-32z" fill="none" stroke="#c8c8c8" stroke-dasharray="7,14" stroke-width="7"/>
 <path d="m1785.3 936.59h37.83v14.67h-37.83z" fill="#ce2231"/>
 <path d="m1648.5 935.93h44.63v13.87h-44.63z" fill="#e4131b"/>
 <g fill="none" stroke-width="17">
  <path d="m987.18 763.62-.864 77.298c14 85.5 19.2 89.7 47.806 132.35 14.4 15 24.1 35.7 99.906 81.451 28.3 19.1 56.9 26.6 95.883 35.416 30.1 8.22 78.3 14.7 117.48 15.548 73-2.22 107-26.1 152.89-49.237 42-21.5 63.3-34.6 101.93-69.105 54.4-49.9 89.5-79.1 115.75-127.84 6.53-18.1 15.1-23.9 15.549-78.607l.864-119.35" stroke="url(#i)"/>
  <path d="m1136.8 643.74 16.492 61.081c15.7 54.2 26.3 86.9 43.367 116.05 15.9 31 33.9 43.1 51.308 60.47 34.5 29.7 74.8 51.2 102 59.248 47.3 11.8 78.6 8.68 117.89 7.33 47.3-4.58 84.2-13.4 118.5-24.432 33.7-10.2 55.1-17.2 120.61-45.428" stroke="url(#j)"/>
  <path d="m2190.4 889.89-34.816 51.308c-10.8 12.1-21.5 24.3-43.367 34.816-17 7.53-27.5 16.3-64.135 18.935-46-2.57-68.4-9.57-102.62-15.27l-111.17-23.211" stroke="url(#k)"/>
  <path d="m2189.2 1007.8-38.481 48.864c-9.17 9.2-15.9 19.7-35.427 27.486l-13.06 5.415-15.991 4.347-34.473 6.73c-19.4 4.11-37.8 3.91-58.637 0-17.7-4.69-35.3-12.9-56.194-30.54-35.4-29.5-64.3-68.8-98.951-110.56l-71.464-81.237c-9.41-11.9-19.6-25.8-27.486-42.146-4.45-12.7-5.73-21.9-5.497-42.146l.916-141.1" stroke="url(#l)"/>
 </g>
 <g stroke="#fff">
  <path d="m1215.7 1086.8-2.183-26.722 34.926 34.401-46.372 13.54z" fill="#5279ad"/>
  <path d="m1488.6 1062.5-18.776-16.865 46.134 2.632-22.164 40.991z" fill="#ad3952"/>
  <path d="m1240.2 873.85 5.502-18.451 15.242 36.522-39.429-6.289z" fill="#338ecc"/>
  <path d="m1444.3 948.84-8.843-20.444 34.39 19.326-30.503 19.761z" fill="#904e6f"/>
  <path d="m1705.2 912.2-13.173-20.947-23.971-11.877 47.942-15.549z" fill="#fb0304"/>
  <path d="m1758.1 906.15 12.902-22.757 24.673-10.5-44.625-15.747z" fill="#e90f16"/>
  <path d="m1733.6 767.43-26.622 7.94 26.887-44.587 23.81 44.892z" fill="#fa0405"/>
  <path d="m1873.7 1003.3-14.639 23.751-6.681-49.945 44.551 19.405z" fill="#b2364d"/>
  <path d="m1966.9 1008.4-3.988-25.563 11.012-22.996-48.695 15.614z" fill="#8a3a6d"/>
  <path d="m1977.9 1122.6.628-26.776 16.78-20.867-43.074 6.777z" fill="#7b5c84"/>
  <path d="m2096.7 957.08-25.407 34.836 46.174 12.806-18.869-22.157z" fill="#3d7dbe"/>
  <path d="m1687.2 942.6-4.95-15.38 27.4 15.733-25.279 14.496z" fill="#e4131b"/>
  <path d="m1765.7 941.01 27.931 18.208-4.95-15.38 4.596-15.91z" fill="#ce2231"/>
 </g>
 <path d="m1738.9 668.31 13 1.5 21.5-8.75.5-5.25m-.7 5.32 7.42-5.276m-40.92 28.206 11.5-.25 10-5.75 10.75-11.75 21.228-7.842m-8.278 3.042-.554-4.87" fill="none" stroke="#f00" stroke-width="3"/>
 <path d="m1768.5 669.98 10.609.328 10.5-6.5 6.247 1.796 1.484-6.247m-55.64 37.203 20.5-4.75 16.75-11.25 3-6 15.785-10.01 7.465.01 8.298-1.839" fill="none" stroke="#f00" stroke-width="3"/>
 <g stroke="#fff">
  <path d="m1669.1 658.4v-4.886l4.887-4.581h20.462l9.162-3.665 14.048-10.689 2.138-3.359 7.33-5.803 5.192-24.127 6.108-16.492 8.246 2.749-.611 9.773 3.054 7.635-2.443 10.078.611 9.773 9.773 18.324 18.071 12.275-12.252-.805-22.922-1.697h-14.965l-30.846 5.803z"/>
  <path d="m1739.1 581.13 8.857-1.832 2.443-3.359 1.832-9.773 3.665-4.581.305-12.216 2.138-9.773 5.497-11.3-2.138-15.576-5.803-8.246-.916-7.33 4.581-3.665 10.384-2.443 1.222-15.576-2.749-6.414 2.443-10.384 13.132-11.605 8.246-.305 10.689-5.497 8.551-19.851-9.468-3.359-20.462 8.246-23.516-10.994-8.551-.305-8.857 8.246-1.222 5.497-8.857.916-4.581-4.276-9.162.305-3.665-3.054-9.467-.305-1.222 7.024-3.054.305-3.97 11.605 1.222 9.468 17.103 7.941 10.689 4.276 5.803 1.222.305 8.246-2.749 4.581 5.803 13.438-3.665 4.581.305 7.635 4.276 3.054 3.054 9.468-1.832 14.049-4.887 3.665-.611 8.246 4.581 4.581-.916 25.959z" fill="#6c6c6c"/>
  <path d="m326.93 525.42v56.569" fill="none" stroke-width="6"/>
  <path d="m326.93 580.22 15.91-4.596-15.203 25.809-14.496-26.517z" fill="#fff"/>
  <path d="m201.93 547.92v56.569" fill="none" stroke-width="6"/>
  <path d="m201.93 602.72 15.91-4.596-15.203 25.809-14.496-26.517z" fill="#fff"/>
  <path d="m731.43 508.21v72.683" fill="none" stroke-width="6.8"/>
  <path d="m731.43 579.72 15.91-4.596-15.203 25.809-14.496-26.517z" fill="#fff"/>
  <path d="m891.45 486.86v72.683" fill="none" stroke-width="6.8"/>
  <path d="m891.45 558.37 15.91-4.596-15.203 25.809-14.496-26.517z" fill="#fff"/>
  <path d="m1038.3 483.31v72.683" fill="none" stroke-width="6.8"/>
  <path d="m1038.3 554.82 15.91-4.596-15.203 25.809-14.496-26.517z" fill="#fff"/>
  <path d="m377.61 231.88-46.511 32.199" fill="none" stroke-width="6"/>
  <path d="m332.55 263.07 12.835 10.465-29.874 2.191 13.551-27.012z" fill="#fff"/>
  <path d="m897.63 209.63-20.054 52.895" fill="none" stroke-width="6"/>
  <path d="m878.21 260.87 16.506 1.343-23.365 18.744-4.154-29.933z" fill="#fff"/>
  <path d="m1300.7 191.35-26.553 65.619" fill="none" stroke-width="7.69"/>
  <path d="m1274.9 254.92 21.856 1.665-30.938 23.253-5.5-37.134z" fill="#fff" stroke-width="1.28"/>
  <path d="m1756.5 174.17-34.874 79.002" fill="none" stroke-width="9.67"/>
  <path d="m1722.7 250.7 28.704 2.005-40.632 27.995-7.224-44.707z" fill="#fff" stroke-width="1.61"/>
 </g>
 <g fill="#fde85d" stroke="#fde85d">
  <path d="m1494.5 589.96 218.18.326" stroke-width="7.32"/>
  <path d="m1711.8 590.53-4.411-15.962 25.631 15.502-26.683 14.186z" stroke-width="4"/>
  <path d="m1899.2 544.53-124.22 77.188" stroke-width="7"/>
  <path d="m1773.9 620.36 12.146 11.257-29.953.293 15.236-26.098z"/>
  <path d="m1917.1 708.31-109.86-29.333" stroke-width="7"/>
  <path d="m1809.8 680.64.494 16.553-21.216-21.145 29.289-7.444z"/>
 </g>
 <g stroke="#fff">
  <path d="m1677.7 575.43c11.5.902 16.5-1.42 20.506-4.243 7.34-10.9 9.98-19.5 13.789-28.638m-34.995-6.709c10.1 4.33 16.2-.383 22.627-4.243 6.6-8.25 9.44-17.8 13.435-26.87m2.738-14.497c-2.37-10.8-7.84-14.7-14.496-21.213-7.5-3.76-15.6-1.92-21.213 0-13.3 10-11.4 15.6-13.789 31.466m157 77.777c-4.04 1.05-2.02 2.91-16.263 1.414-11.6-5.65-14-20.4-20.506-31.113m36.069-12.721c-2.96 1.24-1.06 3.51-16.264 2.121-16.9-10.7-13.3-18.2-19.799-29.698m-4.937-24.753c1.38-12.3 8.87-17.6 12.728-20.506 9.63-6.14 17.5-3.28 24.042-1.414 14 14.5 9.96 22.3 12.728 33.234" fill="none" stroke-width="4"/>
  <path d="m1657.5 495.88 6.718 16.971 11.314-14.496-9.192 1.768zm58-1.06-12.021 12.021 7.778.707 7.778 3.889zm-13.8 50.56 13.082-11.314 2.475 16.263-6.364-4.95zm79.6 9.19 5.657-4.596h9.546l-13.435-12.728zm-1.5-42.07 6.364-4.596h10.253l-14.496-13.435zm42.5-21.57 10.253 15.203 7.071-17.678-8.485 6.01z" fill="#fff"/>
  <path d="m1038.2 707.24 131.22 165.65" fill="none" stroke-width="7"/>
  <path d="m1165.7 868.97 9.826-13.33 3.647 29.731-27.641-12.216z" fill="#fff"/>
  <path d="m1207.6 1152.5 83.959-36.194" fill="none" stroke-width="7"/>
 </g>
 <g fill="#fff">
  <path d="m1291.4 1118.3-10.208-13.041 29.62 4.459-19.181 23.353z" stroke="#fff"/>
  <g stroke="#000" stroke-linejoin="round">
   <path d="m1165 33.08h186.68v55.86h-186.68z" stroke-width="3"/>
   <path d="m1216.9 400.33h123.22v41.9h-123.22z" stroke-width="2.11"/>
   <path d="m1385.2 615.99h114.76v44.05h-114.76z" stroke-width="2.09"/>
   <path d="m1672.3 1029h132.32v42.52h-132.32z" stroke-width="2.2"/>
   <path d="m1890.2 725.01h149.86v42.38h-149.86z" stroke-width="2.34"/>
   <path d="m1620 1185.3h145.65v42.41h-145.65z" stroke-width="2.31"/>
  </g>
 </g>
 <path d="m107.66 980.31a31 15.5 0 0 1-62 0 31 15.5 0 1 1 62 0z" fill="#de6d29" stroke="#fff" stroke-linejoin="round" stroke-width="5"/>
 <path d="m107.66 1034.3a31 15.5 0 0 1-62 0 31 15.5 0 1 1 62 0z" fill="#7f9fd2" stroke="#fff" stroke-linejoin="round" stroke-width="5"/>
 <path d="m1693.8 836.48v-39.025l-150.53-1.014 10.137-20.78-90.214 41.053 89.707 39.532-10.136-20.78zm80.1-1.52.507-36.491 132.28-1.521-8.616-19.766 80.078 39.532-80.078 39.532 8.616-20.78z" fill="#f3b07c"/>
 <path d="m1715.6 74.728-1.014-37.505-97.31.507 6.082-12.671-90.214 34.464 89.707 32.437-9.123-16.725zm35.5-.507h53.723l-.507-36.998h-53.216zm85.1-.507-.507-36.491 35.984-1.521-6.589-12.671 88.187 33.45-88.187 31.423 7.096-13.684z" fill="#ee652f"/>
 <g font-family="DejaVu Sans">
  <g font-size="32" text-anchor="middle">
   <text x="1255.52" y="71.97"><tspan x="1255.52" y="71.97">2°C</tspan></text>
   <text x="1279.56" y="434.01"><tspan x="1279.56" y="434.01">2.05°C</tspan></text>
   <text x="1442.2" y="651.09"><tspan x="1442.2" y="651.09">350°C</tspan></text>
   <text x="1737.06" y="1062.63"><tspan x="1737.06" y="1062.63">400°C</tspan></text>
   <text x="1965.45" y="757.87"><tspan x="1965.45" y="757.87">2 - 60°C</tspan></text>
   <text x="1691.1" y="1219.61"><tspan x="1691.1" y="1219.61">1200°C</tspan></text>
  </g>
  <g fill="#fff" font-size="36">
   <g text-anchor="middle">
    <text x="687.66" y="807.81"><tspan x="687.66" y="807.81">Basalt</tspan></text>
    <text transform="matrix(.32697 .94503 -.94503 .32697 0 0)" x="1172.74" y="-681.34"><tspan x="1172.74" y="-681.34">Seawater</tspan></text>
    <text transform="matrix(.32697 .94503 -.94503 .32697 0 0)" x="1086.93" y="-882.92"><tspan x="1086.93" y="-882.92">Seawater</tspan></text>
    <text transform="matrix(.79053 -.61242 .61242 .79053 0 0)" x="627.13" y="1741.17"><tspan x="627.13" y="1741.17">Seawater</tspan></text>
    <text transform="matrix(.97 -.24311 .24311 .97 0 0)" x="1092.72" y="1387.25"><tspan x="1092.72" y="1387.25">Evolved</tspan></text>
    <text x="1740.59" y="950.91"><tspan x="1740.59" y="950.91">HT</tspan><tspan x="1740.59" y="986.91">Reaction</tspan><tspan x="1740.59" y="1022.91">Zone</tspan></text>
    <text x="1688.27" y="1170.11"><tspan x="1688.27" y="1170.11">Magma</tspan></text>
    <text x="1254.22" y="621.82"><tspan x="1254.22" y="621.82">Basalt</tspan></text>
    <text x="1432.74" y="533.62"><tspan x="1432.74" y="533.62">HOT</tspan><tspan x="1432.74" y="569.62">(focussed)</tspan><tspan x="1432.74" y="605.62">flow</tspan></text>
    <text x="2030.19" y="515.42"><tspan x="2030.19" y="515.42">Precipitation</tspan><tspan x="2030.19" y="551.42">Chimney</tspan><tspan x="2030.19" y="587.42">(Black Smoker)</tspan></text>
    <text x="1970.4" y="646.85"><tspan x="1970.4" y="646.85">WARM</tspan><tspan x="1970.4" y="682.85">(diffuse)</tspan><tspan x="1970.4" y="718.85">flow</tspan></text>
   </g>
   <text x="117.45" y="993.81"><tspan x="117.45" y="993.81">Metalliferous Sediments</tspan><tspan x="117.45" y="1047.81">Iron-Manganese Crusts</tspan></text>
  </g>
  <text transform="scale(.98515 1.0151)" x="591.77" y="336" font-size="44.33"><tspan x="591.77" y="336">³He, Mn²⁺, H</tspan><tspan font-size="23.64">4</tspan>SiO<tspan font-size="23.64">4</tspan>, FeOOH, MnO<tspan font-size="23.64">2</tspan>, ΔT,</text>
  <g fill="#fff">
   <text x="930.32" y="647.1" font-size="40" text-anchor="middle"><tspan x="930.32" y="647.1">Sub Seafloor</tspan><tspan x="930.32" y="697.1">Microbial Biosphere</tspan></text>
   <text transform="scale(.97087 1.03)" x="772.04" y="148.33" font-size="42.72"><tspan x="772.04" y="148.33">Oxyanions, (HPO</tspan><tspan font-size="23.3">4</tspan><tspan font-size="43.69">²⁻, HVO</tspan><tspan font-size="23.3">4</tspan><tspan font-size="43.69">²⁻, CrO</tspan><tspan font-size="23.3">4</tspan><tspan font-size="43.69">²⁻, HAsO</tspan><tspan font-size="23.3">4</tspan><tspan font-size="43.69">²⁻), REE, Trace Metals</tspan></text>
   <g font-size="44">
    <text x="911.11" y="843.07" text-anchor="middle"><tspan x="911.11" y="843.07">Mg²⁺</tspan><tspan x="911.11" y="908.57">SO</tspan><tspan font-size="24">4</tspan><tspan font-size="45">²⁻</tspan></text>
    <text x="542.23" y="1121.93"><tspan x="542.23" y="1121.93">H⁺, Cl⁻, Fe²⁺, Mn²⁺,</tspan><tspan x="542.23" y="1176.93">H</tspan><tspan font-size="24">4</tspan><tspan font-size="45">SiO</tspan><tspan font-size="24">4</tspan><tspan font-size="45">, ³He, H</tspan><tspan font-size="24">2</tspan><tspan font-size="45">S, CH</tspan><tspan font-size="24">4</tspan><tspan font-size="45">, CO</tspan><tspan font-size="24">2</tspan><tspan font-size="45">, H</tspan><tspan font-size="24">2</tspan><tspan font-size="45">,</tspan><tspan x="542.23" y="1242.43">Ca²⁺, K⁺, Li⁺, Cu²⁺, Zn²⁺, Pb²⁺</tspan></text>
   </g>
  </g>
  <g text-anchor="middle">
   <text x="1603.14" y="826.34" font-size="36"><tspan x="1603.14" y="826.34">Spreading</tspan></text>
   <text x="1816.43" y="828.37" font-size="36"><tspan x="1816.43" y="828.37">Axis</tspan></text>
   <text x="1644.11" y="68.14" fill="#fff" font-size="32"><tspan x="1644.11" y="68.14">0.1 cm/s</tspan></text>
  </g>
  <text transform="scale(.96995 1.031)" x="1432.1" y="329.78" fill="#fff" font-size="43.65"><tspan x="1432.1" y="329.78">CH</tspan><tspan font-size="23.28">4</tspan><tspan>, Fe²⁺, Fe</tspan><tspan font-size="23.28">x</tspan>S<tspan font-size="23.28">y</tspan><tspan>, ²²²Rn, H</tspan><tspan font-size="23.28">2</tspan>, H<tspan font-size="23.28">2</tspan>S</text>
 </g>
</svg>
