<svg id="Layer_1" data-name="Layer 1" xmlns="http://www.w3.org/2000/svg" viewBox="0 0 170.3 150.23"><defs><style>.cls-1{fill:#91c300;}.cls-2{fill:#00b4f1;}.cls-3{fill:#f8682c;}.cls-4{fill:#ffc300;}</style></defs><title>windows</title><path class="cls-1" d="M170,20.7c-33,13.7-49,6-63.2-3.6l-16,56.4c14.3,9.7,31.5,17.7,63.2,3.5l16.3-56.3Z" transform="translate(0 0.02)"/><path class="cls-2" d="M63,134.2c-14.3-9.6-30-17.6-63-3.9L16.2,73.7c33-13.6,49-5.9,63.3,3.8Z" transform="translate(0 0.02)"/><path class="cls-3" d="M82.2,67.3A53.9,53.9,0,0,0,51.2,56c-8.7-.1-19.1,2.4-32.2,7.8L35.2,7.4c33.1-13.7,49-6,63.3,3.7Z" transform="translate(0 0.02)"/><path class="cls-4" d="M88,83c14.4,9.6,30.3,17.3,63.3,3.6L135,142.8c-33,13.7-48.9,6-63.2-3.7L88.1,83Z" transform="translate(0 0.02)"/></svg>