<?xml version="1.0" encoding="utf-8" standalone="no"?>
<!DOCTYPE svg PUBLIC "-//W3C//DTD SVG 1.1//EN"
  "http://www.w3.org/Graphics/SVG/1.1/DTD/svg11.dtd">
<!-- Created with matplotlib (https://matplotlib.org/) -->
<svg height="313.536219pt" version="1.1" viewBox="0 0 413.909063 313.536219" width="413.909063pt" xmlns="http://www.w3.org/2000/svg" xmlns:xlink="http://www.w3.org/1999/xlink">
 <metadata>
  <rdf:RDF xmlns:cc="http://creativecommons.org/ns#" xmlns:dc="http://purl.org/dc/elements/1.1/" xmlns:rdf="http://www.w3.org/1999/02/22-rdf-syntax-ns#">
   <cc:Work>
    <dc:type rdf:resource="http://purl.org/dc/dcmitype/StillImage"/>
    <dc:date>2020-11-15T16:40:30.819324</dc:date>
    <dc:format>image/svg+xml</dc:format>
    <dc:creator>
     <cc:Agent>
      <dc:title>Matplotlib v3.3.2, https://matplotlib.org/</dc:title>
     </cc:Agent>
    </dc:creator>
   </cc:Work>
  </rdf:RDF>
 </metadata>
 <defs>
  <style type="text/css">*{stroke-linecap:butt;stroke-linejoin:round;}</style>
 </defs>
 <g id="figure_1">
  <g id="patch_1">
   <path d="M 0 313.536219 
L 413.909063 313.536219 
L 413.909063 0 
L 0 0 
z
" style="fill:#ffffff;"/>
  </g>
  <g id="axes_1">
   <g id="patch_2">
    <path d="M 49.589063 276.890906 
L 406.709063 276.890906 
L 406.709063 10.778906 
L 49.589063 10.778906 
z
" style="fill:#ffffff;"/>
   </g>
   <g id="matplotlib.axis_1">
    <g id="xtick_1">
     <g id="line2d_1">
      <path clip-path="url(#p414c083a65)" d="M 49.589063 276.890906 
L 49.589063 10.778906 
" style="fill:none;stroke:#808080;stroke-linecap:square;stroke-width:0.03;"/>
     </g>
     <g id="line2d_2">
      <defs>
       <path d="M 0 0 
L 0 3.5 
" id="m7dc05bbbc2" style="stroke:#000000;stroke-width:0.8;"/>
      </defs>
      <g>
       <use style="stroke:#000000;stroke-width:0.8;" x="49.589063" xlink:href="#m7dc05bbbc2" y="276.890906"/>
      </g>
     </g>
     <g id="text_1">
      <!-- 800 -->
      <g transform="translate(41.247656 291.048719)scale(0.1 -0.1)">
       <defs>
        <path d="M 17.671875 38.8125 
Q 12.203125 40.828125 9.5625 44.53125 
Q 6.9375 48.25 6.9375 53.421875 
Q 6.9375 61.234375 12.546875 66.546875 
Q 18.171875 71.875 27.484375 71.875 
Q 36.859375 71.875 42.578125 66.421875 
Q 48.296875 60.984375 48.296875 53.171875 
Q 48.296875 48.1875 45.671875 44.5 
Q 43.0625 40.828125 37.75 38.8125 
Q 44.34375 36.671875 47.78125 31.875 
Q 51.21875 27.09375 51.21875 20.453125 
Q 51.21875 11.28125 44.71875 5.03125 
Q 38.234375 -1.21875 27.640625 -1.21875 
Q 17.046875 -1.21875 10.546875 5.046875 
Q 4.046875 11.328125 4.046875 20.703125 
Q 4.046875 27.6875 7.59375 32.390625 
Q 11.140625 37.109375 17.671875 38.8125 
z
M 15.921875 53.71875 
Q 15.921875 48.640625 19.1875 45.40625 
Q 22.46875 42.1875 27.6875 42.1875 
Q 32.765625 42.1875 36.015625 45.375 
Q 39.265625 48.578125 39.265625 53.21875 
Q 39.265625 58.0625 35.90625 61.359375 
Q 32.5625 64.65625 27.59375 64.65625 
Q 22.5625 64.65625 19.234375 61.421875 
Q 15.921875 58.203125 15.921875 53.71875 
z
M 13.09375 20.65625 
Q 13.09375 16.890625 14.875 13.375 
Q 16.65625 9.859375 20.171875 7.921875 
Q 23.6875 6 27.734375 6 
Q 34.03125 6 38.125 10.046875 
Q 42.234375 14.109375 42.234375 20.359375 
Q 42.234375 26.703125 38.015625 30.859375 
Q 33.796875 35.015625 27.4375 35.015625 
Q 21.234375 35.015625 17.15625 30.90625 
Q 13.09375 26.8125 13.09375 20.65625 
z
" id="ArialMT-56"/>
        <path d="M 4.15625 35.296875 
Q 4.15625 48 6.765625 55.734375 
Q 9.375 63.484375 14.515625 67.671875 
Q 19.671875 71.875 27.484375 71.875 
Q 33.25 71.875 37.59375 69.546875 
Q 41.9375 67.234375 44.765625 62.859375 
Q 47.609375 58.5 49.21875 52.21875 
Q 50.828125 45.953125 50.828125 35.296875 
Q 50.828125 22.703125 48.234375 14.96875 
Q 45.65625 7.234375 40.5 3 
Q 35.359375 -1.21875 27.484375 -1.21875 
Q 17.140625 -1.21875 11.234375 6.203125 
Q 4.15625 15.140625 4.15625 35.296875 
z
M 13.1875 35.296875 
Q 13.1875 17.671875 17.3125 11.828125 
Q 21.4375 6 27.484375 6 
Q 33.546875 6 37.671875 11.859375 
Q 41.796875 17.71875 41.796875 35.296875 
Q 41.796875 52.984375 37.671875 58.78125 
Q 33.546875 64.59375 27.390625 64.59375 
Q 21.34375 64.59375 17.71875 59.46875 
Q 13.1875 52.9375 13.1875 35.296875 
z
" id="ArialMT-48"/>
       </defs>
       <use xlink:href="#ArialMT-56"/>
       <use x="55.615234" xlink:href="#ArialMT-48"/>
       <use x="111.230469" xlink:href="#ArialMT-48"/>
      </g>
     </g>
    </g>
    <g id="xtick_2">
     <g id="line2d_3">
      <path clip-path="url(#p414c083a65)" d="M 186.942909 276.890906 
L 186.942909 10.778906 
" style="fill:none;stroke:#808080;stroke-linecap:square;stroke-width:0.03;"/>
     </g>
     <g id="line2d_4">
      <g>
       <use style="stroke:#000000;stroke-width:0.8;" x="186.942909" xlink:href="#m7dc05bbbc2" y="276.890906"/>
      </g>
     </g>
     <g id="text_2">
      <!-- 850 -->
      <g transform="translate(178.601502 291.048719)scale(0.1 -0.1)">
       <defs>
        <path d="M 4.15625 18.75 
L 13.375 19.53125 
Q 14.40625 12.796875 18.140625 9.390625 
Q 21.875 6 27.15625 6 
Q 33.5 6 37.890625 10.78125 
Q 42.28125 15.578125 42.28125 23.484375 
Q 42.28125 31 38.0625 35.34375 
Q 33.84375 39.703125 27 39.703125 
Q 22.75 39.703125 19.328125 37.765625 
Q 15.921875 35.84375 13.96875 32.765625 
L 5.71875 33.84375 
L 12.640625 70.609375 
L 48.25 70.609375 
L 48.25 62.203125 
L 19.671875 62.203125 
L 15.828125 42.96875 
Q 22.265625 47.46875 29.34375 47.46875 
Q 38.71875 47.46875 45.15625 40.96875 
Q 51.609375 34.46875 51.609375 24.265625 
Q 51.609375 14.546875 45.953125 7.46875 
Q 39.0625 -1.21875 27.15625 -1.21875 
Q 17.390625 -1.21875 11.203125 4.25 
Q 5.03125 9.71875 4.15625 18.75 
z
" id="ArialMT-53"/>
       </defs>
       <use xlink:href="#ArialMT-56"/>
       <use x="55.615234" xlink:href="#ArialMT-53"/>
       <use x="111.230469" xlink:href="#ArialMT-48"/>
      </g>
     </g>
    </g>
    <g id="xtick_3">
     <g id="line2d_5">
      <path clip-path="url(#p414c083a65)" d="M 324.296755 276.890906 
L 324.296755 10.778906 
" style="fill:none;stroke:#808080;stroke-linecap:square;stroke-width:0.03;"/>
     </g>
     <g id="line2d_6">
      <g>
       <use style="stroke:#000000;stroke-width:0.8;" x="324.296755" xlink:href="#m7dc05bbbc2" y="276.890906"/>
      </g>
     </g>
     <g id="text_3">
      <!-- 900 -->
      <g transform="translate(315.955349 291.048719)scale(0.1 -0.1)">
       <defs>
        <path d="M 5.46875 16.546875 
L 13.921875 17.328125 
Q 14.984375 11.375 18.015625 8.6875 
Q 21.046875 6 25.78125 6 
Q 29.828125 6 32.875 7.859375 
Q 35.9375 9.71875 37.890625 12.8125 
Q 39.84375 15.921875 41.15625 21.1875 
Q 42.484375 26.46875 42.484375 31.9375 
Q 42.484375 32.515625 42.4375 33.6875 
Q 39.796875 29.5 35.234375 26.875 
Q 30.671875 24.265625 25.34375 24.265625 
Q 16.453125 24.265625 10.296875 30.703125 
Q 4.15625 37.15625 4.15625 47.703125 
Q 4.15625 58.59375 10.578125 65.234375 
Q 17 71.875 26.65625 71.875 
Q 33.640625 71.875 39.421875 68.109375 
Q 45.21875 64.359375 48.21875 57.390625 
Q 51.21875 50.4375 51.21875 37.25 
Q 51.21875 23.53125 48.234375 15.40625 
Q 45.265625 7.28125 39.375 3.03125 
Q 33.5 -1.21875 25.59375 -1.21875 
Q 17.1875 -1.21875 11.859375 3.4375 
Q 6.546875 8.109375 5.46875 16.546875 
z
M 41.453125 48.140625 
Q 41.453125 55.71875 37.421875 60.15625 
Q 33.40625 64.59375 27.734375 64.59375 
Q 21.875 64.59375 17.53125 59.8125 
Q 13.1875 55.03125 13.1875 47.40625 
Q 13.1875 40.578125 17.3125 36.296875 
Q 21.4375 32.03125 27.484375 32.03125 
Q 33.59375 32.03125 37.515625 36.296875 
Q 41.453125 40.578125 41.453125 48.140625 
z
" id="ArialMT-57"/>
       </defs>
       <use xlink:href="#ArialMT-57"/>
       <use x="55.615234" xlink:href="#ArialMT-48"/>
       <use x="111.230469" xlink:href="#ArialMT-48"/>
      </g>
     </g>
    </g>
    <g id="xtick_4">
     <g id="line2d_7">
      <path clip-path="url(#p414c083a65)" d="M 77.059832 276.890906 
L 77.059832 10.778906 
" style="fill:none;stroke:#d3d3d3;stroke-linecap:square;stroke-width:0.03;"/>
     </g>
     <g id="line2d_8">
      <defs>
       <path d="M 0 0 
L 0 2 
" id="m8101c3d45a" style="stroke:#000000;stroke-width:0.6;"/>
      </defs>
      <g>
       <use style="stroke:#000000;stroke-width:0.6;" x="77.059832" xlink:href="#m8101c3d45a" y="276.890906"/>
      </g>
     </g>
    </g>
    <g id="xtick_5">
     <g id="line2d_9">
      <path clip-path="url(#p414c083a65)" d="M 104.530601 276.890906 
L 104.530601 10.778906 
" style="fill:none;stroke:#d3d3d3;stroke-linecap:square;stroke-width:0.03;"/>
     </g>
     <g id="line2d_10">
      <g>
       <use style="stroke:#000000;stroke-width:0.6;" x="104.530601" xlink:href="#m8101c3d45a" y="276.890906"/>
      </g>
     </g>
    </g>
    <g id="xtick_6">
     <g id="line2d_11">
      <path clip-path="url(#p414c083a65)" d="M 132.00137 276.890906 
L 132.00137 10.778906 
" style="fill:none;stroke:#d3d3d3;stroke-linecap:square;stroke-width:0.03;"/>
     </g>
     <g id="line2d_12">
      <g>
       <use style="stroke:#000000;stroke-width:0.6;" x="132.00137" xlink:href="#m8101c3d45a" y="276.890906"/>
      </g>
     </g>
    </g>
    <g id="xtick_7">
     <g id="line2d_13">
      <path clip-path="url(#p414c083a65)" d="M 159.472139 276.890906 
L 159.472139 10.778906 
" style="fill:none;stroke:#d3d3d3;stroke-linecap:square;stroke-width:0.03;"/>
     </g>
     <g id="line2d_14">
      <g>
       <use style="stroke:#000000;stroke-width:0.6;" x="159.472139" xlink:href="#m8101c3d45a" y="276.890906"/>
      </g>
     </g>
    </g>
    <g id="xtick_8">
     <g id="line2d_15">
      <path clip-path="url(#p414c083a65)" d="M 214.413678 276.890906 
L 214.413678 10.778906 
" style="fill:none;stroke:#d3d3d3;stroke-linecap:square;stroke-width:0.03;"/>
     </g>
     <g id="line2d_16">
      <g>
       <use style="stroke:#000000;stroke-width:0.6;" x="214.413678" xlink:href="#m8101c3d45a" y="276.890906"/>
      </g>
     </g>
    </g>
    <g id="xtick_9">
     <g id="line2d_17">
      <path clip-path="url(#p414c083a65)" d="M 241.884447 276.890906 
L 241.884447 10.778906 
" style="fill:none;stroke:#d3d3d3;stroke-linecap:square;stroke-width:0.03;"/>
     </g>
     <g id="line2d_18">
      <g>
       <use style="stroke:#000000;stroke-width:0.6;" x="241.884447" xlink:href="#m8101c3d45a" y="276.890906"/>
      </g>
     </g>
    </g>
    <g id="xtick_10">
     <g id="line2d_19">
      <path clip-path="url(#p414c083a65)" d="M 269.355216 276.890906 
L 269.355216 10.778906 
" style="fill:none;stroke:#d3d3d3;stroke-linecap:square;stroke-width:0.03;"/>
     </g>
     <g id="line2d_20">
      <g>
       <use style="stroke:#000000;stroke-width:0.6;" x="269.355216" xlink:href="#m8101c3d45a" y="276.890906"/>
      </g>
     </g>
    </g>
    <g id="xtick_11">
     <g id="line2d_21">
      <path clip-path="url(#p414c083a65)" d="M 296.825986 276.890906 
L 296.825986 10.778906 
" style="fill:none;stroke:#d3d3d3;stroke-linecap:square;stroke-width:0.03;"/>
     </g>
     <g id="line2d_22">
      <g>
       <use style="stroke:#000000;stroke-width:0.6;" x="296.825986" xlink:href="#m8101c3d45a" y="276.890906"/>
      </g>
     </g>
    </g>
    <g id="xtick_12">
     <g id="line2d_23">
      <path clip-path="url(#p414c083a65)" d="M 351.767524 276.890906 
L 351.767524 10.778906 
" style="fill:none;stroke:#d3d3d3;stroke-linecap:square;stroke-width:0.03;"/>
     </g>
     <g id="line2d_24">
      <g>
       <use style="stroke:#000000;stroke-width:0.6;" x="351.767524" xlink:href="#m8101c3d45a" y="276.890906"/>
      </g>
     </g>
    </g>
    <g id="xtick_13">
     <g id="line2d_25">
      <path clip-path="url(#p414c083a65)" d="M 379.238293 276.890906 
L 379.238293 10.778906 
" style="fill:none;stroke:#d3d3d3;stroke-linecap:square;stroke-width:0.03;"/>
     </g>
     <g id="line2d_26">
      <g>
       <use style="stroke:#000000;stroke-width:0.6;" x="379.238293" xlink:href="#m8101c3d45a" y="276.890906"/>
      </g>
     </g>
    </g>
    <g id="xtick_14">
     <g id="line2d_27">
      <path clip-path="url(#p414c083a65)" d="M 406.709063 276.890906 
L 406.709063 10.778906 
" style="fill:none;stroke:#d3d3d3;stroke-linecap:square;stroke-width:0.03;"/>
     </g>
     <g id="line2d_28">
      <g>
       <use style="stroke:#000000;stroke-width:0.6;" x="406.709063" xlink:href="#m8101c3d45a" y="276.890906"/>
      </g>
     </g>
    </g>
    <g id="text_4">
     <!-- T [$^{\circ}$C] -->
     <g transform="translate(214.999063 304.336219)scale(0.1 -0.1)">
      <defs>
       <path d="M 25.921875 0 
L 25.921875 63.140625 
L 2.34375 63.140625 
L 2.34375 71.578125 
L 59.078125 71.578125 
L 59.078125 63.140625 
L 35.40625 63.140625 
L 35.40625 0 
z
" id="ArialMT-84"/>
       <path id="ArialMT-32"/>
       <path d="M 6.78125 -19.875 
L 6.78125 71.578125 
L 26.171875 71.578125 
L 26.171875 64.3125 
L 15.578125 64.3125 
L 15.578125 -12.59375 
L 26.171875 -12.59375 
L 26.171875 -19.875 
z
" id="ArialMT-91"/>
       <path d="M 25 5.609375 
Q 19.828125 5.609375 15.359375 8.21875 
Q 10.890625 10.84375 8.25 15.375 
Q 5.609375 19.921875 5.609375 25 
Q 5.609375 30.078125 8.25 34.609375 
Q 10.890625 39.15625 15.359375 41.765625 
Q 19.828125 44.390625 25 44.390625 
Q 30.171875 44.390625 34.609375 41.75 
Q 39.0625 39.109375 41.671875 34.59375 
Q 44.28125 30.078125 44.28125 25 
Q 44.28125 19.921875 41.671875 15.40625 
Q 39.0625 10.890625 34.609375 8.25 
Q 30.171875 5.609375 25 5.609375 
z
M 25 9.625 
Q 31.25 9.625 35.765625 14.1875 
Q 40.28125 18.75 40.28125 25 
Q 40.28125 29 38.203125 32.59375 
Q 36.140625 36.1875 32.625 38.28125 
Q 29.109375 40.375 25 40.375 
Q 21.921875 40.375 19.140625 39.171875 
Q 16.359375 37.984375 14.15625 35.78125 
Q 11.96875 33.59375 10.796875 30.828125 
Q 9.625 28.078125 9.625 25 
Q 9.625 18.75 14.140625 14.1875 
Q 18.65625 9.625 25 9.625 
z
" id="Cmsy10-177"/>
       <path d="M 58.796875 25.09375 
L 68.265625 22.703125 
Q 65.28125 11.03125 57.546875 4.90625 
Q 49.8125 -1.21875 38.625 -1.21875 
Q 27.046875 -1.21875 19.796875 3.484375 
Q 12.546875 8.203125 8.765625 17.140625 
Q 4.984375 26.078125 4.984375 36.328125 
Q 4.984375 47.515625 9.25 55.828125 
Q 13.53125 64.15625 21.40625 68.46875 
Q 29.296875 72.796875 38.765625 72.796875 
Q 49.515625 72.796875 56.828125 67.328125 
Q 64.15625 61.859375 67.046875 51.953125 
L 57.71875 49.75 
Q 55.21875 57.5625 50.484375 61.125 
Q 45.75 64.703125 38.578125 64.703125 
Q 30.328125 64.703125 24.78125 60.734375 
Q 19.234375 56.78125 16.984375 50.109375 
Q 14.75 43.453125 14.75 36.375 
Q 14.75 27.25 17.40625 20.4375 
Q 20.0625 13.625 25.671875 10.25 
Q 31.296875 6.890625 37.84375 6.890625 
Q 45.796875 6.890625 51.3125 11.46875 
Q 56.84375 16.0625 58.796875 25.09375 
z
" id="ArialMT-67"/>
       <path d="M 21.296875 -19.875 
L 1.90625 -19.875 
L 1.90625 -12.59375 
L 12.5 -12.59375 
L 12.5 64.3125 
L 1.90625 64.3125 
L 1.90625 71.578125 
L 21.296875 71.578125 
z
" id="ArialMT-93"/>
      </defs>
      <use transform="translate(0 0.203125)" xlink:href="#ArialMT-84"/>
      <use transform="translate(61.083984 0.203125)" xlink:href="#ArialMT-32"/>
      <use transform="translate(88.867188 0.203125)" xlink:href="#ArialMT-91"/>
      <use transform="translate(121.114531 38.467188)scale(0.7)" xlink:href="#Cmsy10-177"/>
      <use transform="translate(162.491875 0.203125)" xlink:href="#ArialMT-67"/>
      <use transform="translate(234.708672 0.203125)" xlink:href="#ArialMT-93"/>
     </g>
    </g>
   </g>
   <g id="matplotlib.axis_2">
    <g id="ytick_1">
     <g id="line2d_29">
      <path clip-path="url(#p414c083a65)" d="M 49.589063 276.890906 
L 406.709063 276.890906 
" style="fill:none;stroke:#808080;stroke-linecap:square;stroke-width:0.03;"/>
     </g>
     <g id="line2d_30">
      <defs>
       <path d="M 0 0 
L -3.5 0 
" id="m9227d49819" style="stroke:#000000;stroke-width:0.8;"/>
      </defs>
      <g>
       <use style="stroke:#000000;stroke-width:0.8;" x="49.589063" xlink:href="#m9227d49819" y="276.890906"/>
      </g>
     </g>
     <g id="text_5">
      <!-- 0 -->
      <g transform="translate(37.028125 280.469812)scale(0.1 -0.1)">
       <use xlink:href="#ArialMT-48"/>
      </g>
     </g>
    </g>
    <g id="ytick_2">
     <g id="line2d_31">
      <path clip-path="url(#p414c083a65)" d="M 49.589063 223.668506 
L 406.709063 223.668506 
" style="fill:none;stroke:#808080;stroke-linecap:square;stroke-width:0.03;"/>
     </g>
     <g id="line2d_32">
      <g>
       <use style="stroke:#000000;stroke-width:0.8;" x="49.589063" xlink:href="#m9227d49819" y="223.668506"/>
      </g>
     </g>
     <g id="text_6">
      <!-- 1000 -->
      <g transform="translate(20.345313 227.247412)scale(0.1 -0.1)">
       <defs>
        <path d="M 37.25 0 
L 28.46875 0 
L 28.46875 56 
Q 25.296875 52.984375 20.140625 49.953125 
Q 14.984375 46.921875 10.890625 45.40625 
L 10.890625 53.90625 
Q 18.265625 57.375 23.78125 62.296875 
Q 29.296875 67.234375 31.59375 71.875 
L 37.25 71.875 
z
" id="ArialMT-49"/>
       </defs>
       <use xlink:href="#ArialMT-49"/>
       <use x="55.615234" xlink:href="#ArialMT-48"/>
       <use x="111.230469" xlink:href="#ArialMT-48"/>
       <use x="166.845703" xlink:href="#ArialMT-48"/>
      </g>
     </g>
    </g>
    <g id="ytick_3">
     <g id="line2d_33">
      <path clip-path="url(#p414c083a65)" d="M 49.589063 170.446106 
L 406.709063 170.446106 
" style="fill:none;stroke:#808080;stroke-linecap:square;stroke-width:0.03;"/>
     </g>
     <g id="line2d_34">
      <g>
       <use style="stroke:#000000;stroke-width:0.8;" x="49.589063" xlink:href="#m9227d49819" y="170.446106"/>
      </g>
     </g>
     <g id="text_7">
      <!-- 2000 -->
      <g transform="translate(20.345313 174.025012)scale(0.1 -0.1)">
       <defs>
        <path d="M 50.34375 8.453125 
L 50.34375 0 
L 3.03125 0 
Q 2.9375 3.171875 4.046875 6.109375 
Q 5.859375 10.9375 9.828125 15.625 
Q 13.8125 20.3125 21.34375 26.46875 
Q 33.015625 36.03125 37.109375 41.625 
Q 41.21875 47.21875 41.21875 52.203125 
Q 41.21875 57.421875 37.46875 61 
Q 33.734375 64.59375 27.734375 64.59375 
Q 21.390625 64.59375 17.578125 60.78125 
Q 13.765625 56.984375 13.71875 50.25 
L 4.6875 51.171875 
Q 5.609375 61.28125 11.65625 66.578125 
Q 17.71875 71.875 27.9375 71.875 
Q 38.234375 71.875 44.234375 66.15625 
Q 50.25 60.453125 50.25 52 
Q 50.25 47.703125 48.484375 43.546875 
Q 46.734375 39.40625 42.65625 34.8125 
Q 38.578125 30.21875 29.109375 22.21875 
Q 21.1875 15.578125 18.9375 13.203125 
Q 16.703125 10.84375 15.234375 8.453125 
z
" id="ArialMT-50"/>
       </defs>
       <use xlink:href="#ArialMT-50"/>
       <use x="55.615234" xlink:href="#ArialMT-48"/>
       <use x="111.230469" xlink:href="#ArialMT-48"/>
       <use x="166.845703" xlink:href="#ArialMT-48"/>
      </g>
     </g>
    </g>
    <g id="ytick_4">
     <g id="line2d_35">
      <path clip-path="url(#p414c083a65)" d="M 49.589063 117.223706 
L 406.709063 117.223706 
" style="fill:none;stroke:#808080;stroke-linecap:square;stroke-width:0.03;"/>
     </g>
     <g id="line2d_36">
      <g>
       <use style="stroke:#000000;stroke-width:0.8;" x="49.589063" xlink:href="#m9227d49819" y="117.223706"/>
      </g>
     </g>
     <g id="text_8">
      <!-- 3000 -->
      <g transform="translate(20.345313 120.802612)scale(0.1 -0.1)">
       <defs>
        <path d="M 4.203125 18.890625 
L 12.984375 20.0625 
Q 14.5 12.59375 18.140625 9.296875 
Q 21.78125 6 27 6 
Q 33.203125 6 37.46875 10.296875 
Q 41.75 14.59375 41.75 20.953125 
Q 41.75 27 37.796875 30.921875 
Q 33.84375 34.859375 27.734375 34.859375 
Q 25.25 34.859375 21.53125 33.890625 
L 22.515625 41.609375 
Q 23.390625 41.5 23.921875 41.5 
Q 29.546875 41.5 34.03125 44.421875 
Q 38.53125 47.359375 38.53125 53.46875 
Q 38.53125 58.296875 35.25 61.46875 
Q 31.984375 64.65625 26.8125 64.65625 
Q 21.6875 64.65625 18.265625 61.421875 
Q 14.84375 58.203125 13.875 51.765625 
L 5.078125 53.328125 
Q 6.6875 62.15625 12.390625 67.015625 
Q 18.109375 71.875 26.609375 71.875 
Q 32.46875 71.875 37.390625 69.359375 
Q 42.328125 66.84375 44.9375 62.5 
Q 47.5625 58.15625 47.5625 53.265625 
Q 47.5625 48.640625 45.0625 44.828125 
Q 42.578125 41.015625 37.703125 38.765625 
Q 44.046875 37.3125 47.5625 32.6875 
Q 51.078125 28.078125 51.078125 21.140625 
Q 51.078125 11.765625 44.234375 5.25 
Q 37.40625 -1.265625 26.953125 -1.265625 
Q 17.53125 -1.265625 11.296875 4.34375 
Q 5.078125 9.96875 4.203125 18.890625 
z
" id="ArialMT-51"/>
       </defs>
       <use xlink:href="#ArialMT-51"/>
       <use x="55.615234" xlink:href="#ArialMT-48"/>
       <use x="111.230469" xlink:href="#ArialMT-48"/>
       <use x="166.845703" xlink:href="#ArialMT-48"/>
      </g>
     </g>
    </g>
    <g id="ytick_5">
     <g id="line2d_37">
      <path clip-path="url(#p414c083a65)" d="M 49.589063 64.001306 
L 406.709063 64.001306 
" style="fill:none;stroke:#808080;stroke-linecap:square;stroke-width:0.03;"/>
     </g>
     <g id="line2d_38">
      <g>
       <use style="stroke:#000000;stroke-width:0.8;" x="49.589063" xlink:href="#m9227d49819" y="64.001306"/>
      </g>
     </g>
     <g id="text_9">
      <!-- 4000 -->
      <g transform="translate(20.345313 67.580212)scale(0.1 -0.1)">
       <defs>
        <path d="M 32.328125 0 
L 32.328125 17.140625 
L 1.265625 17.140625 
L 1.265625 25.203125 
L 33.9375 71.578125 
L 41.109375 71.578125 
L 41.109375 25.203125 
L 50.78125 25.203125 
L 50.78125 17.140625 
L 41.109375 17.140625 
L 41.109375 0 
z
M 32.328125 25.203125 
L 32.328125 57.46875 
L 9.90625 25.203125 
z
" id="ArialMT-52"/>
       </defs>
       <use xlink:href="#ArialMT-52"/>
       <use x="55.615234" xlink:href="#ArialMT-48"/>
       <use x="111.230469" xlink:href="#ArialMT-48"/>
       <use x="166.845703" xlink:href="#ArialMT-48"/>
      </g>
     </g>
    </g>
    <g id="ytick_6">
     <g id="line2d_39">
      <path clip-path="url(#p414c083a65)" d="M 49.589063 10.778906 
L 406.709063 10.778906 
" style="fill:none;stroke:#808080;stroke-linecap:square;stroke-width:0.03;"/>
     </g>
     <g id="line2d_40">
      <g>
       <use style="stroke:#000000;stroke-width:0.8;" x="49.589063" xlink:href="#m9227d49819" y="10.778906"/>
      </g>
     </g>
     <g id="text_10">
      <!-- 5000 -->
      <g transform="translate(20.345313 14.357812)scale(0.1 -0.1)">
       <use xlink:href="#ArialMT-53"/>
       <use x="55.615234" xlink:href="#ArialMT-48"/>
       <use x="111.230469" xlink:href="#ArialMT-48"/>
       <use x="166.845703" xlink:href="#ArialMT-48"/>
      </g>
     </g>
    </g>
    <g id="ytick_7">
     <g id="line2d_41">
      <path clip-path="url(#p414c083a65)" d="M 49.589063 266.246426 
L 406.709063 266.246426 
" style="fill:none;stroke:#d3d3d3;stroke-linecap:square;stroke-width:0.03;"/>
     </g>
     <g id="line2d_42">
      <defs>
       <path d="M 0 0 
L -2 0 
" id="m91624774ac" style="stroke:#000000;stroke-width:0.6;"/>
      </defs>
      <g>
       <use style="stroke:#000000;stroke-width:0.6;" x="49.589063" xlink:href="#m91624774ac" y="266.246426"/>
      </g>
     </g>
    </g>
    <g id="ytick_8">
     <g id="line2d_43">
      <path clip-path="url(#p414c083a65)" d="M 49.589063 255.601946 
L 406.709063 255.601946 
" style="fill:none;stroke:#d3d3d3;stroke-linecap:square;stroke-width:0.03;"/>
     </g>
     <g id="line2d_44">
      <g>
       <use style="stroke:#000000;stroke-width:0.6;" x="49.589063" xlink:href="#m91624774ac" y="255.601946"/>
      </g>
     </g>
    </g>
    <g id="ytick_9">
     <g id="line2d_45">
      <path clip-path="url(#p414c083a65)" d="M 49.589063 244.957466 
L 406.709063 244.957466 
" style="fill:none;stroke:#d3d3d3;stroke-linecap:square;stroke-width:0.03;"/>
     </g>
     <g id="line2d_46">
      <g>
       <use style="stroke:#000000;stroke-width:0.6;" x="49.589063" xlink:href="#m91624774ac" y="244.957466"/>
      </g>
     </g>
    </g>
    <g id="ytick_10">
     <g id="line2d_47">
      <path clip-path="url(#p414c083a65)" d="M 49.589063 234.312986 
L 406.709063 234.312986 
" style="fill:none;stroke:#d3d3d3;stroke-linecap:square;stroke-width:0.03;"/>
     </g>
     <g id="line2d_48">
      <g>
       <use style="stroke:#000000;stroke-width:0.6;" x="49.589063" xlink:href="#m91624774ac" y="234.312986"/>
      </g>
     </g>
    </g>
    <g id="ytick_11">
     <g id="line2d_49">
      <path clip-path="url(#p414c083a65)" d="M 49.589063 213.024026 
L 406.709063 213.024026 
" style="fill:none;stroke:#d3d3d3;stroke-linecap:square;stroke-width:0.03;"/>
     </g>
     <g id="line2d_50">
      <g>
       <use style="stroke:#000000;stroke-width:0.6;" x="49.589063" xlink:href="#m91624774ac" y="213.024026"/>
      </g>
     </g>
    </g>
    <g id="ytick_12">
     <g id="line2d_51">
      <path clip-path="url(#p414c083a65)" d="M 49.589063 202.379546 
L 406.709063 202.379546 
" style="fill:none;stroke:#d3d3d3;stroke-linecap:square;stroke-width:0.03;"/>
     </g>
     <g id="line2d_52">
      <g>
       <use style="stroke:#000000;stroke-width:0.6;" x="49.589063" xlink:href="#m91624774ac" y="202.379546"/>
      </g>
     </g>
    </g>
    <g id="ytick_13">
     <g id="line2d_53">
      <path clip-path="url(#p414c083a65)" d="M 49.589063 191.735066 
L 406.709063 191.735066 
" style="fill:none;stroke:#d3d3d3;stroke-linecap:square;stroke-width:0.03;"/>
     </g>
     <g id="line2d_54">
      <g>
       <use style="stroke:#000000;stroke-width:0.6;" x="49.589063" xlink:href="#m91624774ac" y="191.735066"/>
      </g>
     </g>
    </g>
    <g id="ytick_14">
     <g id="line2d_55">
      <path clip-path="url(#p414c083a65)" d="M 49.589063 181.090586 
L 406.709063 181.090586 
" style="fill:none;stroke:#d3d3d3;stroke-linecap:square;stroke-width:0.03;"/>
     </g>
     <g id="line2d_56">
      <g>
       <use style="stroke:#000000;stroke-width:0.6;" x="49.589063" xlink:href="#m91624774ac" y="181.090586"/>
      </g>
     </g>
    </g>
    <g id="ytick_15">
     <g id="line2d_57">
      <path clip-path="url(#p414c083a65)" d="M 49.589063 159.801626 
L 406.709063 159.801626 
" style="fill:none;stroke:#d3d3d3;stroke-linecap:square;stroke-width:0.03;"/>
     </g>
     <g id="line2d_58">
      <g>
       <use style="stroke:#000000;stroke-width:0.6;" x="49.589063" xlink:href="#m91624774ac" y="159.801626"/>
      </g>
     </g>
    </g>
    <g id="ytick_16">
     <g id="line2d_59">
      <path clip-path="url(#p414c083a65)" d="M 49.589063 149.157146 
L 406.709063 149.157146 
" style="fill:none;stroke:#d3d3d3;stroke-linecap:square;stroke-width:0.03;"/>
     </g>
     <g id="line2d_60">
      <g>
       <use style="stroke:#000000;stroke-width:0.6;" x="49.589063" xlink:href="#m91624774ac" y="149.157146"/>
      </g>
     </g>
    </g>
    <g id="ytick_17">
     <g id="line2d_61">
      <path clip-path="url(#p414c083a65)" d="M 49.589063 138.512666 
L 406.709063 138.512666 
" style="fill:none;stroke:#d3d3d3;stroke-linecap:square;stroke-width:0.03;"/>
     </g>
     <g id="line2d_62">
      <g>
       <use style="stroke:#000000;stroke-width:0.6;" x="49.589063" xlink:href="#m91624774ac" y="138.512666"/>
      </g>
     </g>
    </g>
    <g id="ytick_18">
     <g id="line2d_63">
      <path clip-path="url(#p414c083a65)" d="M 49.589063 127.868186 
L 406.709063 127.868186 
" style="fill:none;stroke:#d3d3d3;stroke-linecap:square;stroke-width:0.03;"/>
     </g>
     <g id="line2d_64">
      <g>
       <use style="stroke:#000000;stroke-width:0.6;" x="49.589063" xlink:href="#m91624774ac" y="127.868186"/>
      </g>
     </g>
    </g>
    <g id="ytick_19">
     <g id="line2d_65">
      <path clip-path="url(#p414c083a65)" d="M 49.589063 106.579226 
L 406.709063 106.579226 
" style="fill:none;stroke:#d3d3d3;stroke-linecap:square;stroke-width:0.03;"/>
     </g>
     <g id="line2d_66">
      <g>
       <use style="stroke:#000000;stroke-width:0.6;" x="49.589063" xlink:href="#m91624774ac" y="106.579226"/>
      </g>
     </g>
    </g>
    <g id="ytick_20">
     <g id="line2d_67">
      <path clip-path="url(#p414c083a65)" d="M 49.589063 95.934746 
L 406.709063 95.934746 
" style="fill:none;stroke:#d3d3d3;stroke-linecap:square;stroke-width:0.03;"/>
     </g>
     <g id="line2d_68">
      <g>
       <use style="stroke:#000000;stroke-width:0.6;" x="49.589063" xlink:href="#m91624774ac" y="95.934746"/>
      </g>
     </g>
    </g>
    <g id="ytick_21">
     <g id="line2d_69">
      <path clip-path="url(#p414c083a65)" d="M 49.589063 85.290266 
L 406.709063 85.290266 
" style="fill:none;stroke:#d3d3d3;stroke-linecap:square;stroke-width:0.03;"/>
     </g>
     <g id="line2d_70">
      <g>
       <use style="stroke:#000000;stroke-width:0.6;" x="49.589063" xlink:href="#m91624774ac" y="85.290266"/>
      </g>
     </g>
    </g>
    <g id="ytick_22">
     <g id="line2d_71">
      <path clip-path="url(#p414c083a65)" d="M 49.589063 74.645786 
L 406.709063 74.645786 
" style="fill:none;stroke:#d3d3d3;stroke-linecap:square;stroke-width:0.03;"/>
     </g>
     <g id="line2d_72">
      <g>
       <use style="stroke:#000000;stroke-width:0.6;" x="49.589063" xlink:href="#m91624774ac" y="74.645786"/>
      </g>
     </g>
    </g>
    <g id="ytick_23">
     <g id="line2d_73">
      <path clip-path="url(#p414c083a65)" d="M 49.589063 53.356826 
L 406.709063 53.356826 
" style="fill:none;stroke:#d3d3d3;stroke-linecap:square;stroke-width:0.03;"/>
     </g>
     <g id="line2d_74">
      <g>
       <use style="stroke:#000000;stroke-width:0.6;" x="49.589063" xlink:href="#m91624774ac" y="53.356826"/>
      </g>
     </g>
    </g>
    <g id="ytick_24">
     <g id="line2d_75">
      <path clip-path="url(#p414c083a65)" d="M 49.589063 42.712346 
L 406.709063 42.712346 
" style="fill:none;stroke:#d3d3d3;stroke-linecap:square;stroke-width:0.03;"/>
     </g>
     <g id="line2d_76">
      <g>
       <use style="stroke:#000000;stroke-width:0.6;" x="49.589063" xlink:href="#m91624774ac" y="42.712346"/>
      </g>
     </g>
    </g>
    <g id="ytick_25">
     <g id="line2d_77">
      <path clip-path="url(#p414c083a65)" d="M 49.589063 32.067866 
L 406.709063 32.067866 
" style="fill:none;stroke:#d3d3d3;stroke-linecap:square;stroke-width:0.03;"/>
     </g>
     <g id="line2d_78">
      <g>
       <use style="stroke:#000000;stroke-width:0.6;" x="49.589063" xlink:href="#m91624774ac" y="32.067866"/>
      </g>
     </g>
    </g>
    <g id="ytick_26">
     <g id="line2d_79">
      <path clip-path="url(#p414c083a65)" d="M 49.589063 21.423386 
L 406.709063 21.423386 
" style="fill:none;stroke:#d3d3d3;stroke-linecap:square;stroke-width:0.03;"/>
     </g>
     <g id="line2d_80">
      <g>
       <use style="stroke:#000000;stroke-width:0.6;" x="49.589063" xlink:href="#m91624774ac" y="21.423386"/>
      </g>
     </g>
    </g>
    <g id="text_11">
     <!-- P [bar] -->
     <g transform="translate(14.357813 158.475531)rotate(-90)scale(0.1 -0.1)">
      <defs>
       <path d="M 7.71875 0 
L 7.71875 71.578125 
L 34.71875 71.578125 
Q 41.84375 71.578125 45.609375 70.90625 
Q 50.875 70.015625 54.4375 67.546875 
Q 58.015625 65.09375 60.1875 60.640625 
Q 62.359375 56.203125 62.359375 50.875 
Q 62.359375 41.75 56.546875 35.421875 
Q 50.734375 29.109375 35.546875 29.109375 
L 17.1875 29.109375 
L 17.1875 0 
z
M 17.1875 37.546875 
L 35.6875 37.546875 
Q 44.875 37.546875 48.734375 40.96875 
Q 52.59375 44.390625 52.59375 50.59375 
Q 52.59375 55.078125 50.3125 58.265625 
Q 48.046875 61.46875 44.34375 62.5 
Q 41.9375 63.140625 35.5 63.140625 
L 17.1875 63.140625 
z
" id="ArialMT-80"/>
       <path d="M 14.703125 0 
L 6.546875 0 
L 6.546875 71.578125 
L 15.328125 71.578125 
L 15.328125 46.046875 
Q 20.90625 53.03125 29.546875 53.03125 
Q 34.328125 53.03125 38.59375 51.09375 
Q 42.875 49.171875 45.625 45.671875 
Q 48.390625 42.1875 49.953125 37.25 
Q 51.515625 32.328125 51.515625 26.703125 
Q 51.515625 13.375 44.921875 6.09375 
Q 38.328125 -1.171875 29.109375 -1.171875 
Q 19.921875 -1.171875 14.703125 6.5 
z
M 14.59375 26.3125 
Q 14.59375 17 17.140625 12.84375 
Q 21.296875 6.0625 28.375 6.0625 
Q 34.125 6.0625 38.328125 11.0625 
Q 42.53125 16.0625 42.53125 25.984375 
Q 42.53125 36.140625 38.5 40.96875 
Q 34.46875 45.796875 28.765625 45.796875 
Q 23 45.796875 18.796875 40.796875 
Q 14.59375 35.796875 14.59375 26.3125 
z
" id="ArialMT-98"/>
       <path d="M 40.4375 6.390625 
Q 35.546875 2.25 31.03125 0.53125 
Q 26.515625 -1.171875 21.34375 -1.171875 
Q 12.796875 -1.171875 8.203125 3 
Q 3.609375 7.171875 3.609375 13.671875 
Q 3.609375 17.484375 5.34375 20.625 
Q 7.078125 23.78125 9.890625 25.6875 
Q 12.703125 27.59375 16.21875 28.5625 
Q 18.796875 29.25 24.03125 29.890625 
Q 34.671875 31.15625 39.703125 32.90625 
Q 39.75 34.71875 39.75 35.203125 
Q 39.75 40.578125 37.25 42.78125 
Q 33.890625 45.75 27.25 45.75 
Q 21.046875 45.75 18.09375 43.578125 
Q 15.140625 41.40625 13.71875 35.890625 
L 5.125 37.0625 
Q 6.296875 42.578125 8.984375 45.96875 
Q 11.671875 49.359375 16.75 51.1875 
Q 21.828125 53.03125 28.515625 53.03125 
Q 35.15625 53.03125 39.296875 51.46875 
Q 43.453125 49.90625 45.40625 47.53125 
Q 47.359375 45.171875 48.140625 41.546875 
Q 48.578125 39.3125 48.578125 33.453125 
L 48.578125 21.734375 
Q 48.578125 9.46875 49.140625 6.21875 
Q 49.703125 2.984375 51.375 0 
L 42.1875 0 
Q 40.828125 2.734375 40.4375 6.390625 
z
M 39.703125 26.03125 
Q 34.90625 24.078125 25.34375 22.703125 
Q 19.921875 21.921875 17.671875 20.9375 
Q 15.4375 19.96875 14.203125 18.09375 
Q 12.984375 16.21875 12.984375 13.921875 
Q 12.984375 10.40625 15.640625 8.0625 
Q 18.3125 5.71875 23.4375 5.71875 
Q 28.515625 5.71875 32.46875 7.9375 
Q 36.421875 10.15625 38.28125 14.015625 
Q 39.703125 17 39.703125 22.796875 
z
" id="ArialMT-97"/>
       <path d="M 6.5 0 
L 6.5 51.859375 
L 14.40625 51.859375 
L 14.40625 44 
Q 17.4375 49.515625 20 51.265625 
Q 22.5625 53.03125 25.640625 53.03125 
Q 30.078125 53.03125 34.671875 50.203125 
L 31.640625 42.046875 
Q 28.421875 43.953125 25.203125 43.953125 
Q 22.3125 43.953125 20.015625 42.21875 
Q 17.71875 40.484375 16.75 37.40625 
Q 15.28125 32.71875 15.28125 27.15625 
L 15.28125 0 
z
" id="ArialMT-114"/>
      </defs>
      <use xlink:href="#ArialMT-80"/>
      <use x="64.949219" xlink:href="#ArialMT-32"/>
      <use x="92.732422" xlink:href="#ArialMT-91"/>
      <use x="120.515625" xlink:href="#ArialMT-98"/>
      <use x="176.130859" xlink:href="#ArialMT-97"/>
      <use x="231.746094" xlink:href="#ArialMT-114"/>
      <use x="265.046875" xlink:href="#ArialMT-93"/>
     </g>
    </g>
   </g>
   <g id="line2d_81">
    <path clip-path="url(#p414c083a65)" d="M 51.512016 276.890906 
L 54.907403 274.229786 
L 58.305538 271.568666 
L 61.700925 268.907546 
L 65.096312 266.246426 
L 68.491699 263.585306 
L 71.889833 260.924186 
L 75.28522 258.263066 
L 78.680607 255.601946 
L 82.078741 252.940826 
L 85.474128 250.279706 
L 88.869515 247.618586 
L 92.26765 244.957466 
L 95.663037 242.296346 
L 99.058424 239.635226 
L 102.453811 236.974106 
L 105.851945 234.312986 
L 109.247332 231.651866 
L 112.642719 228.990746 
L 116.040853 226.329626 
L 119.43624 223.668506 
L 122.831627 221.007386 
L 126.229762 218.346266 
L 129.625149 215.685146 
L 133.020536 213.024026 
L 136.415923 210.362906 
L 139.814057 207.701786 
L 143.209444 205.040666 
L 146.604831 202.379546 
L 150.002965 199.718426 
L 153.398352 197.057306 
L 156.793739 194.396186 
L 160.191874 191.735066 
L 163.587261 189.073946 
L 166.982648 186.412826 
L 170.378035 183.751706 
L 173.776169 181.090586 
L 177.171556 178.429466 
L 180.566943 175.768346 
L 183.965077 173.107226 
L 187.360464 170.446106 
L 190.755851 167.784986 
L 194.153986 165.123866 
L 197.549373 162.462746 
L 200.94476 159.801626 
L 204.340147 157.140506 
L 207.738281 154.479386 
L 211.133668 151.818266 
L 214.529055 149.157146 
L 217.927189 146.496026 
L 221.322576 143.834906 
L 224.717963 141.173786 
L 228.116098 138.512666 
L 231.511485 135.851546 
L 234.906872 133.190426 
L 238.302259 130.529306 
L 241.700393 127.868186 
L 245.09578 125.207066 
L 248.491167 122.545946 
L 251.889301 119.884826 
L 255.284688 117.223706 
L 258.680075 114.562586 
L 262.07821 111.901466 
L 265.473597 109.240346 
L 268.868984 106.579226 
L 272.264371 103.918106 
L 275.662505 101.256986 
L 279.057892 98.595866 
L 282.453279 95.934746 
L 285.851413 93.273626 
L 289.2468 90.612506 
L 292.642187 87.951386 
L 296.040322 85.290266 
L 299.435709 82.629146 
L 302.831096 79.968026 
L 306.226483 77.306906 
L 309.624617 74.645786 
L 313.020004 71.984666 
L 316.415391 69.323546 
L 319.813525 66.662426 
L 323.208912 64.001306 
L 326.604299 61.340186 
L 330.002434 58.679066 
L 333.397821 56.017946 
L 336.793208 53.356826 
L 340.188595 50.695706 
L 343.586729 48.034586 
L 346.982116 45.373466 
L 350.377503 42.712346 
L 353.775637 40.051226 
L 357.171024 37.390106 
L 360.566411 34.728986 
L 363.964546 32.067866 
L 367.359933 29.406746 
L 370.75532 26.745626 
L 374.150707 24.084506 
L 377.548841 21.423386 
L 380.944228 18.762266 
L 384.339615 16.101146 
L 387.737749 13.440026 
L 391.133136 10.778906 
" style="fill:none;stroke:#1f77b4;stroke-linecap:square;stroke-width:1.5;"/>
   </g>
   <g id="patch_3">
    <path d="M 49.589063 276.890906 
L 49.589063 10.778906 
" style="fill:none;stroke:#000000;stroke-linecap:square;stroke-linejoin:miter;stroke-width:0.8;"/>
   </g>
   <g id="patch_4">
    <path d="M 406.709063 276.890906 
L 406.709063 10.778906 
" style="fill:none;stroke:#000000;stroke-linecap:square;stroke-linejoin:miter;stroke-width:0.8;"/>
   </g>
   <g id="patch_5">
    <path d="M 49.589063 276.890906 
L 406.709063 276.890906 
" style="fill:none;stroke:#000000;stroke-linecap:square;stroke-linejoin:miter;stroke-width:0.8;"/>
   </g>
   <g id="patch_6">
    <path d="M 49.589063 10.778906 
L 406.709063 10.778906 
" style="fill:none;stroke:#000000;stroke-linecap:square;stroke-linejoin:miter;stroke-width:0.8;"/>
   </g>
  </g>
 </g>
 <defs>
  <clipPath id="p414c083a65">
   <rect height="266.112" width="357.12" x="49.589063" y="10.778906"/>
  </clipPath>
 </defs>
</svg>
