<?xml version="1.0" encoding="utf-8" standalone="no"?>
<!DOCTYPE svg PUBLIC "-//W3C//DTD SVG 1.1//EN"
  "http://www.w3.org/Graphics/SVG/1.1/DTD/svg11.dtd">
<!-- Created with matplotlib (https://matplotlib.org/) -->
<svg height="376.485312pt" version="1.1" viewBox="0 0 398.904688 376.485312" width="398.904688pt" xmlns="http://www.w3.org/2000/svg" xmlns:xlink="http://www.w3.org/1999/xlink">
 <metadata>
  <rdf:RDF xmlns:cc="http://creativecommons.org/ns#" xmlns:dc="http://purl.org/dc/elements/1.1/" xmlns:rdf="http://www.w3.org/1999/02/22-rdf-syntax-ns#">
   <cc:Work>
    <dc:type rdf:resource="http://purl.org/dc/dcmitype/StillImage"/>
    <dc:date>2020-11-17T20:09:17.854261</dc:date>
    <dc:format>image/svg+xml</dc:format>
    <dc:creator>
     <cc:Agent>
      <dc:title>Matplotlib v3.3.2, https://matplotlib.org/</dc:title>
     </cc:Agent>
    </dc:creator>
   </cc:Work>
  </rdf:RDF>
 </metadata>
 <defs>
  <style type="text/css">*{stroke-linecap:butt;stroke-linejoin:round;}</style>
 </defs>
 <g id="figure_1">
  <g id="patch_1">
   <path d="M 0 376.485312 
L 398.904688 376.485312 
L 398.904688 0 
L 0 0 
z
" style="fill:#ffffff;"/>
  </g>
  <g id="axes_1">
   <g id="patch_2">
    <path d="M 45.782813 339.84 
L 380.582812 339.84 
L 380.582812 7.2 
L 45.782813 7.2 
z
" style="fill:#ffffff;"/>
   </g>
   <g id="PolyCollection_1">
    <defs>
     <path d="M 112.742812 -172.718401 
L 112.742812 -51.765313 
L 280.142812 -51.765313 
L 280.142812 -172.718401 
L 280.142812 -172.718401 
L 112.742812 -172.718401 
z
" id="m720a25c354" style="stroke:#d3d3d3;stroke-opacity:0.5;"/>
    </defs>
    <g clip-path="url(#pd058b6503a)">
     <use style="fill:#d3d3d3;fill-opacity:0.5;stroke:#d3d3d3;stroke-opacity:0.5;" x="0" xlink:href="#m720a25c354" y="376.485312"/>
    </g>
   </g>
   <g id="matplotlib.axis_1">
    <g id="xtick_1">
     <g id="line2d_1">
      <path clip-path="url(#pd058b6503a)" d="M 45.782813 339.84 
L 45.782813 7.2 
" style="fill:none;stroke:#808080;stroke-linecap:square;stroke-width:0.03;"/>
     </g>
     <g id="line2d_2">
      <defs>
       <path d="M 0 0 
L 0 3.5 
" id="m0a26d6353e" style="stroke:#000000;stroke-width:0.8;"/>
      </defs>
      <g>
       <use style="stroke:#000000;stroke-width:0.8;" x="45.782813" xlink:href="#m0a26d6353e" y="339.84"/>
      </g>
     </g>
     <g id="text_1">
      <!-- 0 -->
      <g transform="translate(43.002344 353.997812)scale(0.1 -0.1)">
       <defs>
        <path d="M 4.15625 35.296875 
Q 4.15625 48 6.765625 55.734375 
Q 9.375 63.484375 14.515625 67.671875 
Q 19.671875 71.875 27.484375 71.875 
Q 33.25 71.875 37.59375 69.546875 
Q 41.9375 67.234375 44.765625 62.859375 
Q 47.609375 58.5 49.21875 52.21875 
Q 50.828125 45.953125 50.828125 35.296875 
Q 50.828125 22.703125 48.234375 14.96875 
Q 45.65625 7.234375 40.5 3 
Q 35.359375 -1.21875 27.484375 -1.21875 
Q 17.140625 -1.21875 11.234375 6.203125 
Q 4.15625 15.140625 4.15625 35.296875 
z
M 13.1875 35.296875 
Q 13.1875 17.671875 17.3125 11.828125 
Q 21.4375 6 27.484375 6 
Q 33.546875 6 37.671875 11.859375 
Q 41.796875 17.71875 41.796875 35.296875 
Q 41.796875 52.984375 37.671875 58.78125 
Q 33.546875 64.59375 27.390625 64.59375 
Q 21.34375 64.59375 17.71875 59.46875 
Q 13.1875 52.9375 13.1875 35.296875 
z
" id="ArialMT-48"/>
       </defs>
       <use xlink:href="#ArialMT-48"/>
      </g>
     </g>
    </g>
    <g id="xtick_2">
     <g id="line2d_3">
      <path clip-path="url(#pd058b6503a)" d="M 79.262812 339.84 
L 79.262812 7.2 
" style="fill:none;stroke:#808080;stroke-linecap:square;stroke-width:0.03;"/>
     </g>
     <g id="line2d_4">
      <g>
       <use style="stroke:#000000;stroke-width:0.8;" x="79.262812" xlink:href="#m0a26d6353e" y="339.84"/>
      </g>
     </g>
     <g id="text_2">
      <!-- 100 -->
      <g transform="translate(70.921406 353.997812)scale(0.1 -0.1)">
       <defs>
        <path d="M 37.25 0 
L 28.46875 0 
L 28.46875 56 
Q 25.296875 52.984375 20.140625 49.953125 
Q 14.984375 46.921875 10.890625 45.40625 
L 10.890625 53.90625 
Q 18.265625 57.375 23.78125 62.296875 
Q 29.296875 67.234375 31.59375 71.875 
L 37.25 71.875 
z
" id="ArialMT-49"/>
       </defs>
       <use xlink:href="#ArialMT-49"/>
       <use x="55.615234" xlink:href="#ArialMT-48"/>
       <use x="111.230469" xlink:href="#ArialMT-48"/>
      </g>
     </g>
    </g>
    <g id="xtick_3">
     <g id="line2d_5">
      <path clip-path="url(#pd058b6503a)" d="M 112.742812 339.84 
L 112.742812 7.2 
" style="fill:none;stroke:#808080;stroke-linecap:square;stroke-width:0.03;"/>
     </g>
     <g id="line2d_6">
      <g>
       <use style="stroke:#000000;stroke-width:0.8;" x="112.742812" xlink:href="#m0a26d6353e" y="339.84"/>
      </g>
     </g>
     <g id="text_3">
      <!-- 200 -->
      <g transform="translate(104.401406 353.997812)scale(0.1 -0.1)">
       <defs>
        <path d="M 50.34375 8.453125 
L 50.34375 0 
L 3.03125 0 
Q 2.9375 3.171875 4.046875 6.109375 
Q 5.859375 10.9375 9.828125 15.625 
Q 13.8125 20.3125 21.34375 26.46875 
Q 33.015625 36.03125 37.109375 41.625 
Q 41.21875 47.21875 41.21875 52.203125 
Q 41.21875 57.421875 37.46875 61 
Q 33.734375 64.59375 27.734375 64.59375 
Q 21.390625 64.59375 17.578125 60.78125 
Q 13.765625 56.984375 13.71875 50.25 
L 4.6875 51.171875 
Q 5.609375 61.28125 11.65625 66.578125 
Q 17.71875 71.875 27.9375 71.875 
Q 38.234375 71.875 44.234375 66.15625 
Q 50.25 60.453125 50.25 52 
Q 50.25 47.703125 48.484375 43.546875 
Q 46.734375 39.40625 42.65625 34.8125 
Q 38.578125 30.21875 29.109375 22.21875 
Q 21.1875 15.578125 18.9375 13.203125 
Q 16.703125 10.84375 15.234375 8.453125 
z
" id="ArialMT-50"/>
       </defs>
       <use xlink:href="#ArialMT-50"/>
       <use x="55.615234" xlink:href="#ArialMT-48"/>
       <use x="111.230469" xlink:href="#ArialMT-48"/>
      </g>
     </g>
    </g>
    <g id="xtick_4">
     <g id="line2d_7">
      <path clip-path="url(#pd058b6503a)" d="M 146.222813 339.84 
L 146.222813 7.2 
" style="fill:none;stroke:#808080;stroke-linecap:square;stroke-width:0.03;"/>
     </g>
     <g id="line2d_8">
      <g>
       <use style="stroke:#000000;stroke-width:0.8;" x="146.222813" xlink:href="#m0a26d6353e" y="339.84"/>
      </g>
     </g>
     <g id="text_4">
      <!-- 300 -->
      <g transform="translate(137.881406 353.997812)scale(0.1 -0.1)">
       <defs>
        <path d="M 4.203125 18.890625 
L 12.984375 20.0625 
Q 14.5 12.59375 18.140625 9.296875 
Q 21.78125 6 27 6 
Q 33.203125 6 37.46875 10.296875 
Q 41.75 14.59375 41.75 20.953125 
Q 41.75 27 37.796875 30.921875 
Q 33.84375 34.859375 27.734375 34.859375 
Q 25.25 34.859375 21.53125 33.890625 
L 22.515625 41.609375 
Q 23.390625 41.5 23.921875 41.5 
Q 29.546875 41.5 34.03125 44.421875 
Q 38.53125 47.359375 38.53125 53.46875 
Q 38.53125 58.296875 35.25 61.46875 
Q 31.984375 64.65625 26.8125 64.65625 
Q 21.6875 64.65625 18.265625 61.421875 
Q 14.84375 58.203125 13.875 51.765625 
L 5.078125 53.328125 
Q 6.6875 62.15625 12.390625 67.015625 
Q 18.109375 71.875 26.609375 71.875 
Q 32.46875 71.875 37.390625 69.359375 
Q 42.328125 66.84375 44.9375 62.5 
Q 47.5625 58.15625 47.5625 53.265625 
Q 47.5625 48.640625 45.0625 44.828125 
Q 42.578125 41.015625 37.703125 38.765625 
Q 44.046875 37.3125 47.5625 32.6875 
Q 51.078125 28.078125 51.078125 21.140625 
Q 51.078125 11.765625 44.234375 5.25 
Q 37.40625 -1.265625 26.953125 -1.265625 
Q 17.53125 -1.265625 11.296875 4.34375 
Q 5.078125 9.96875 4.203125 18.890625 
z
" id="ArialMT-51"/>
       </defs>
       <use xlink:href="#ArialMT-51"/>
       <use x="55.615234" xlink:href="#ArialMT-48"/>
       <use x="111.230469" xlink:href="#ArialMT-48"/>
      </g>
     </g>
    </g>
    <g id="xtick_5">
     <g id="line2d_9">
      <path clip-path="url(#pd058b6503a)" d="M 179.702812 339.84 
L 179.702812 7.2 
" style="fill:none;stroke:#808080;stroke-linecap:square;stroke-width:0.03;"/>
     </g>
     <g id="line2d_10">
      <g>
       <use style="stroke:#000000;stroke-width:0.8;" x="179.702812" xlink:href="#m0a26d6353e" y="339.84"/>
      </g>
     </g>
     <g id="text_5">
      <!-- 400 -->
      <g transform="translate(171.361406 353.997812)scale(0.1 -0.1)">
       <defs>
        <path d="M 32.328125 0 
L 32.328125 17.140625 
L 1.265625 17.140625 
L 1.265625 25.203125 
L 33.9375 71.578125 
L 41.109375 71.578125 
L 41.109375 25.203125 
L 50.78125 25.203125 
L 50.78125 17.140625 
L 41.109375 17.140625 
L 41.109375 0 
z
M 32.328125 25.203125 
L 32.328125 57.46875 
L 9.90625 25.203125 
z
" id="ArialMT-52"/>
       </defs>
       <use xlink:href="#ArialMT-52"/>
       <use x="55.615234" xlink:href="#ArialMT-48"/>
       <use x="111.230469" xlink:href="#ArialMT-48"/>
      </g>
     </g>
    </g>
    <g id="xtick_6">
     <g id="line2d_11">
      <path clip-path="url(#pd058b6503a)" d="M 213.182813 339.84 
L 213.182813 7.2 
" style="fill:none;stroke:#808080;stroke-linecap:square;stroke-width:0.03;"/>
     </g>
     <g id="line2d_12">
      <g>
       <use style="stroke:#000000;stroke-width:0.8;" x="213.182813" xlink:href="#m0a26d6353e" y="339.84"/>
      </g>
     </g>
     <g id="text_6">
      <!-- 500 -->
      <g transform="translate(204.841406 353.997812)scale(0.1 -0.1)">
       <defs>
        <path d="M 4.15625 18.75 
L 13.375 19.53125 
Q 14.40625 12.796875 18.140625 9.390625 
Q 21.875 6 27.15625 6 
Q 33.5 6 37.890625 10.78125 
Q 42.28125 15.578125 42.28125 23.484375 
Q 42.28125 31 38.0625 35.34375 
Q 33.84375 39.703125 27 39.703125 
Q 22.75 39.703125 19.328125 37.765625 
Q 15.921875 35.84375 13.96875 32.765625 
L 5.71875 33.84375 
L 12.640625 70.609375 
L 48.25 70.609375 
L 48.25 62.203125 
L 19.671875 62.203125 
L 15.828125 42.96875 
Q 22.265625 47.46875 29.34375 47.46875 
Q 38.71875 47.46875 45.15625 40.96875 
Q 51.609375 34.46875 51.609375 24.265625 
Q 51.609375 14.546875 45.953125 7.46875 
Q 39.0625 -1.21875 27.15625 -1.21875 
Q 17.390625 -1.21875 11.203125 4.25 
Q 5.03125 9.71875 4.15625 18.75 
z
" id="ArialMT-53"/>
       </defs>
       <use xlink:href="#ArialMT-53"/>
       <use x="55.615234" xlink:href="#ArialMT-48"/>
       <use x="111.230469" xlink:href="#ArialMT-48"/>
      </g>
     </g>
    </g>
    <g id="xtick_7">
     <g id="line2d_13">
      <path clip-path="url(#pd058b6503a)" d="M 246.662813 339.84 
L 246.662813 7.2 
" style="fill:none;stroke:#808080;stroke-linecap:square;stroke-width:0.03;"/>
     </g>
     <g id="line2d_14">
      <g>
       <use style="stroke:#000000;stroke-width:0.8;" x="246.662813" xlink:href="#m0a26d6353e" y="339.84"/>
      </g>
     </g>
     <g id="text_7">
      <!-- 600 -->
      <g transform="translate(238.321406 353.997812)scale(0.1 -0.1)">
       <defs>
        <path d="M 49.75 54.046875 
L 41.015625 53.375 
Q 39.84375 58.546875 37.703125 60.890625 
Q 34.125 64.65625 28.90625 64.65625 
Q 24.703125 64.65625 21.53125 62.3125 
Q 17.390625 59.28125 14.984375 53.46875 
Q 12.59375 47.65625 12.5 36.921875 
Q 15.671875 41.75 20.265625 44.09375 
Q 24.859375 46.4375 29.890625 46.4375 
Q 38.671875 46.4375 44.84375 39.96875 
Q 51.03125 33.5 51.03125 23.25 
Q 51.03125 16.5 48.125 10.71875 
Q 45.21875 4.9375 40.140625 1.859375 
Q 35.0625 -1.21875 28.609375 -1.21875 
Q 17.625 -1.21875 10.6875 6.859375 
Q 3.765625 14.9375 3.765625 33.5 
Q 3.765625 54.25 11.421875 63.671875 
Q 18.109375 71.875 29.4375 71.875 
Q 37.890625 71.875 43.28125 67.140625 
Q 48.6875 62.40625 49.75 54.046875 
z
M 13.875 23.1875 
Q 13.875 18.65625 15.796875 14.5 
Q 17.71875 10.359375 21.1875 8.171875 
Q 24.65625 6 28.46875 6 
Q 34.03125 6 38.03125 10.484375 
Q 42.046875 14.984375 42.046875 22.703125 
Q 42.046875 30.125 38.078125 34.390625 
Q 34.125 38.671875 28.125 38.671875 
Q 22.171875 38.671875 18.015625 34.390625 
Q 13.875 30.125 13.875 23.1875 
z
" id="ArialMT-54"/>
       </defs>
       <use xlink:href="#ArialMT-54"/>
       <use x="55.615234" xlink:href="#ArialMT-48"/>
       <use x="111.230469" xlink:href="#ArialMT-48"/>
      </g>
     </g>
    </g>
    <g id="xtick_8">
     <g id="line2d_15">
      <path clip-path="url(#pd058b6503a)" d="M 280.142812 339.84 
L 280.142812 7.2 
" style="fill:none;stroke:#808080;stroke-linecap:square;stroke-width:0.03;"/>
     </g>
     <g id="line2d_16">
      <g>
       <use style="stroke:#000000;stroke-width:0.8;" x="280.142812" xlink:href="#m0a26d6353e" y="339.84"/>
      </g>
     </g>
     <g id="text_8">
      <!-- 700 -->
      <g transform="translate(271.801406 353.997812)scale(0.1 -0.1)">
       <defs>
        <path d="M 4.734375 62.203125 
L 4.734375 70.65625 
L 51.078125 70.65625 
L 51.078125 63.8125 
Q 44.234375 56.546875 37.515625 44.484375 
Q 30.8125 32.421875 27.15625 19.671875 
Q 24.515625 10.6875 23.78125 0 
L 14.75 0 
Q 14.890625 8.453125 18.0625 20.40625 
Q 21.234375 32.375 27.171875 43.484375 
Q 33.109375 54.59375 39.796875 62.203125 
z
" id="ArialMT-55"/>
       </defs>
       <use xlink:href="#ArialMT-55"/>
       <use x="55.615234" xlink:href="#ArialMT-48"/>
       <use x="111.230469" xlink:href="#ArialMT-48"/>
      </g>
     </g>
    </g>
    <g id="xtick_9">
     <g id="line2d_17">
      <path clip-path="url(#pd058b6503a)" d="M 313.622813 339.84 
L 313.622813 7.2 
" style="fill:none;stroke:#808080;stroke-linecap:square;stroke-width:0.03;"/>
     </g>
     <g id="line2d_18">
      <g>
       <use style="stroke:#000000;stroke-width:0.8;" x="313.622813" xlink:href="#m0a26d6353e" y="339.84"/>
      </g>
     </g>
     <g id="text_9">
      <!-- 800 -->
      <g transform="translate(305.281406 353.997812)scale(0.1 -0.1)">
       <defs>
        <path d="M 17.671875 38.8125 
Q 12.203125 40.828125 9.5625 44.53125 
Q 6.9375 48.25 6.9375 53.421875 
Q 6.9375 61.234375 12.546875 66.546875 
Q 18.171875 71.875 27.484375 71.875 
Q 36.859375 71.875 42.578125 66.421875 
Q 48.296875 60.984375 48.296875 53.171875 
Q 48.296875 48.1875 45.671875 44.5 
Q 43.0625 40.828125 37.75 38.8125 
Q 44.34375 36.671875 47.78125 31.875 
Q 51.21875 27.09375 51.21875 20.453125 
Q 51.21875 11.28125 44.71875 5.03125 
Q 38.234375 -1.21875 27.640625 -1.21875 
Q 17.046875 -1.21875 10.546875 5.046875 
Q 4.046875 11.328125 4.046875 20.703125 
Q 4.046875 27.6875 7.59375 32.390625 
Q 11.140625 37.109375 17.671875 38.8125 
z
M 15.921875 53.71875 
Q 15.921875 48.640625 19.1875 45.40625 
Q 22.46875 42.1875 27.6875 42.1875 
Q 32.765625 42.1875 36.015625 45.375 
Q 39.265625 48.578125 39.265625 53.21875 
Q 39.265625 58.0625 35.90625 61.359375 
Q 32.5625 64.65625 27.59375 64.65625 
Q 22.5625 64.65625 19.234375 61.421875 
Q 15.921875 58.203125 15.921875 53.71875 
z
M 13.09375 20.65625 
Q 13.09375 16.890625 14.875 13.375 
Q 16.65625 9.859375 20.171875 7.921875 
Q 23.6875 6 27.734375 6 
Q 34.03125 6 38.125 10.046875 
Q 42.234375 14.109375 42.234375 20.359375 
Q 42.234375 26.703125 38.015625 30.859375 
Q 33.796875 35.015625 27.4375 35.015625 
Q 21.234375 35.015625 17.15625 30.90625 
Q 13.09375 26.8125 13.09375 20.65625 
z
" id="ArialMT-56"/>
       </defs>
       <use xlink:href="#ArialMT-56"/>
       <use x="55.615234" xlink:href="#ArialMT-48"/>
       <use x="111.230469" xlink:href="#ArialMT-48"/>
      </g>
     </g>
    </g>
    <g id="xtick_10">
     <g id="line2d_19">
      <path clip-path="url(#pd058b6503a)" d="M 347.102813 339.84 
L 347.102813 7.2 
" style="fill:none;stroke:#808080;stroke-linecap:square;stroke-width:0.03;"/>
     </g>
     <g id="line2d_20">
      <g>
       <use style="stroke:#000000;stroke-width:0.8;" x="347.102813" xlink:href="#m0a26d6353e" y="339.84"/>
      </g>
     </g>
     <g id="text_10">
      <!-- 900 -->
      <g transform="translate(338.761406 353.997812)scale(0.1 -0.1)">
       <defs>
        <path d="M 5.46875 16.546875 
L 13.921875 17.328125 
Q 14.984375 11.375 18.015625 8.6875 
Q 21.046875 6 25.78125 6 
Q 29.828125 6 32.875 7.859375 
Q 35.9375 9.71875 37.890625 12.8125 
Q 39.84375 15.921875 41.15625 21.1875 
Q 42.484375 26.46875 42.484375 31.9375 
Q 42.484375 32.515625 42.4375 33.6875 
Q 39.796875 29.5 35.234375 26.875 
Q 30.671875 24.265625 25.34375 24.265625 
Q 16.453125 24.265625 10.296875 30.703125 
Q 4.15625 37.15625 4.15625 47.703125 
Q 4.15625 58.59375 10.578125 65.234375 
Q 17 71.875 26.65625 71.875 
Q 33.640625 71.875 39.421875 68.109375 
Q 45.21875 64.359375 48.21875 57.390625 
Q 51.21875 50.4375 51.21875 37.25 
Q 51.21875 23.53125 48.234375 15.40625 
Q 45.265625 7.28125 39.375 3.03125 
Q 33.5 -1.21875 25.59375 -1.21875 
Q 17.1875 -1.21875 11.859375 3.4375 
Q 6.546875 8.109375 5.46875 16.546875 
z
M 41.453125 48.140625 
Q 41.453125 55.71875 37.421875 60.15625 
Q 33.40625 64.59375 27.734375 64.59375 
Q 21.875 64.59375 17.53125 59.8125 
Q 13.1875 55.03125 13.1875 47.40625 
Q 13.1875 40.578125 17.3125 36.296875 
Q 21.4375 32.03125 27.484375 32.03125 
Q 33.59375 32.03125 37.515625 36.296875 
Q 41.453125 40.578125 41.453125 48.140625 
z
" id="ArialMT-57"/>
       </defs>
       <use xlink:href="#ArialMT-57"/>
       <use x="55.615234" xlink:href="#ArialMT-48"/>
       <use x="111.230469" xlink:href="#ArialMT-48"/>
      </g>
     </g>
    </g>
    <g id="xtick_11">
     <g id="line2d_21">
      <path clip-path="url(#pd058b6503a)" d="M 380.582813 339.84 
L 380.582813 7.2 
" style="fill:none;stroke:#808080;stroke-linecap:square;stroke-width:0.03;"/>
     </g>
     <g id="line2d_22">
      <g>
       <use style="stroke:#000000;stroke-width:0.8;" x="380.582813" xlink:href="#m0a26d6353e" y="339.84"/>
      </g>
     </g>
     <g id="text_11">
      <!-- 1000 -->
      <g transform="translate(369.460938 353.997812)scale(0.1 -0.1)">
       <use xlink:href="#ArialMT-49"/>
       <use x="55.615234" xlink:href="#ArialMT-48"/>
       <use x="111.230469" xlink:href="#ArialMT-48"/>
       <use x="166.845703" xlink:href="#ArialMT-48"/>
      </g>
     </g>
    </g>
    <g id="xtick_12">
     <g id="line2d_23">
      <path clip-path="url(#pd058b6503a)" d="M 52.478813 339.84 
L 52.478813 7.2 
" style="fill:none;stroke:#d3d3d3;stroke-linecap:square;stroke-width:0.03;"/>
     </g>
     <g id="line2d_24">
      <defs>
       <path d="M 0 0 
L 0 2 
" id="m40378b30a3" style="stroke:#000000;stroke-width:0.6;"/>
      </defs>
      <g>
       <use style="stroke:#000000;stroke-width:0.6;" x="52.478813" xlink:href="#m40378b30a3" y="339.84"/>
      </g>
     </g>
    </g>
    <g id="xtick_13">
     <g id="line2d_25">
      <path clip-path="url(#pd058b6503a)" d="M 59.174813 339.84 
L 59.174813 7.2 
" style="fill:none;stroke:#d3d3d3;stroke-linecap:square;stroke-width:0.03;"/>
     </g>
     <g id="line2d_26">
      <g>
       <use style="stroke:#000000;stroke-width:0.6;" x="59.174813" xlink:href="#m40378b30a3" y="339.84"/>
      </g>
     </g>
    </g>
    <g id="xtick_14">
     <g id="line2d_27">
      <path clip-path="url(#pd058b6503a)" d="M 65.870812 339.84 
L 65.870812 7.2 
" style="fill:none;stroke:#d3d3d3;stroke-linecap:square;stroke-width:0.03;"/>
     </g>
     <g id="line2d_28">
      <g>
       <use style="stroke:#000000;stroke-width:0.6;" x="65.870812" xlink:href="#m40378b30a3" y="339.84"/>
      </g>
     </g>
    </g>
    <g id="xtick_15">
     <g id="line2d_29">
      <path clip-path="url(#pd058b6503a)" d="M 72.566812 339.84 
L 72.566812 7.2 
" style="fill:none;stroke:#d3d3d3;stroke-linecap:square;stroke-width:0.03;"/>
     </g>
     <g id="line2d_30">
      <g>
       <use style="stroke:#000000;stroke-width:0.6;" x="72.566812" xlink:href="#m40378b30a3" y="339.84"/>
      </g>
     </g>
    </g>
    <g id="xtick_16">
     <g id="line2d_31">
      <path clip-path="url(#pd058b6503a)" d="M 85.958813 339.84 
L 85.958813 7.2 
" style="fill:none;stroke:#d3d3d3;stroke-linecap:square;stroke-width:0.03;"/>
     </g>
     <g id="line2d_32">
      <g>
       <use style="stroke:#000000;stroke-width:0.6;" x="85.958813" xlink:href="#m40378b30a3" y="339.84"/>
      </g>
     </g>
    </g>
    <g id="xtick_17">
     <g id="line2d_33">
      <path clip-path="url(#pd058b6503a)" d="M 92.654813 339.84 
L 92.654813 7.2 
" style="fill:none;stroke:#d3d3d3;stroke-linecap:square;stroke-width:0.03;"/>
     </g>
     <g id="line2d_34">
      <g>
       <use style="stroke:#000000;stroke-width:0.6;" x="92.654813" xlink:href="#m40378b30a3" y="339.84"/>
      </g>
     </g>
    </g>
    <g id="xtick_18">
     <g id="line2d_35">
      <path clip-path="url(#pd058b6503a)" d="M 99.350813 339.84 
L 99.350813 7.2 
" style="fill:none;stroke:#d3d3d3;stroke-linecap:square;stroke-width:0.03;"/>
     </g>
     <g id="line2d_36">
      <g>
       <use style="stroke:#000000;stroke-width:0.6;" x="99.350813" xlink:href="#m40378b30a3" y="339.84"/>
      </g>
     </g>
    </g>
    <g id="xtick_19">
     <g id="line2d_37">
      <path clip-path="url(#pd058b6503a)" d="M 106.046813 339.84 
L 106.046813 7.2 
" style="fill:none;stroke:#d3d3d3;stroke-linecap:square;stroke-width:0.03;"/>
     </g>
     <g id="line2d_38">
      <g>
       <use style="stroke:#000000;stroke-width:0.6;" x="106.046813" xlink:href="#m40378b30a3" y="339.84"/>
      </g>
     </g>
    </g>
    <g id="xtick_20">
     <g id="line2d_39">
      <path clip-path="url(#pd058b6503a)" d="M 119.438812 339.84 
L 119.438812 7.2 
" style="fill:none;stroke:#d3d3d3;stroke-linecap:square;stroke-width:0.03;"/>
     </g>
     <g id="line2d_40">
      <g>
       <use style="stroke:#000000;stroke-width:0.6;" x="119.438812" xlink:href="#m40378b30a3" y="339.84"/>
      </g>
     </g>
    </g>
    <g id="xtick_21">
     <g id="line2d_41">
      <path clip-path="url(#pd058b6503a)" d="M 126.134813 339.84 
L 126.134813 7.2 
" style="fill:none;stroke:#d3d3d3;stroke-linecap:square;stroke-width:0.03;"/>
     </g>
     <g id="line2d_42">
      <g>
       <use style="stroke:#000000;stroke-width:0.6;" x="126.134813" xlink:href="#m40378b30a3" y="339.84"/>
      </g>
     </g>
    </g>
    <g id="xtick_22">
     <g id="line2d_43">
      <path clip-path="url(#pd058b6503a)" d="M 132.830813 339.84 
L 132.830813 7.2 
" style="fill:none;stroke:#d3d3d3;stroke-linecap:square;stroke-width:0.03;"/>
     </g>
     <g id="line2d_44">
      <g>
       <use style="stroke:#000000;stroke-width:0.6;" x="132.830813" xlink:href="#m40378b30a3" y="339.84"/>
      </g>
     </g>
    </g>
    <g id="xtick_23">
     <g id="line2d_45">
      <path clip-path="url(#pd058b6503a)" d="M 139.526813 339.84 
L 139.526813 7.2 
" style="fill:none;stroke:#d3d3d3;stroke-linecap:square;stroke-width:0.03;"/>
     </g>
     <g id="line2d_46">
      <g>
       <use style="stroke:#000000;stroke-width:0.6;" x="139.526813" xlink:href="#m40378b30a3" y="339.84"/>
      </g>
     </g>
    </g>
    <g id="xtick_24">
     <g id="line2d_47">
      <path clip-path="url(#pd058b6503a)" d="M 152.918813 339.84 
L 152.918813 7.2 
" style="fill:none;stroke:#d3d3d3;stroke-linecap:square;stroke-width:0.03;"/>
     </g>
     <g id="line2d_48">
      <g>
       <use style="stroke:#000000;stroke-width:0.6;" x="152.918813" xlink:href="#m40378b30a3" y="339.84"/>
      </g>
     </g>
    </g>
    <g id="xtick_25">
     <g id="line2d_49">
      <path clip-path="url(#pd058b6503a)" d="M 159.614812 339.84 
L 159.614812 7.2 
" style="fill:none;stroke:#d3d3d3;stroke-linecap:square;stroke-width:0.03;"/>
     </g>
     <g id="line2d_50">
      <g>
       <use style="stroke:#000000;stroke-width:0.6;" x="159.614812" xlink:href="#m40378b30a3" y="339.84"/>
      </g>
     </g>
    </g>
    <g id="xtick_26">
     <g id="line2d_51">
      <path clip-path="url(#pd058b6503a)" d="M 166.310812 339.84 
L 166.310812 7.2 
" style="fill:none;stroke:#d3d3d3;stroke-linecap:square;stroke-width:0.03;"/>
     </g>
     <g id="line2d_52">
      <g>
       <use style="stroke:#000000;stroke-width:0.6;" x="166.310812" xlink:href="#m40378b30a3" y="339.84"/>
      </g>
     </g>
    </g>
    <g id="xtick_27">
     <g id="line2d_53">
      <path clip-path="url(#pd058b6503a)" d="M 173.006812 339.84 
L 173.006812 7.2 
" style="fill:none;stroke:#d3d3d3;stroke-linecap:square;stroke-width:0.03;"/>
     </g>
     <g id="line2d_54">
      <g>
       <use style="stroke:#000000;stroke-width:0.6;" x="173.006812" xlink:href="#m40378b30a3" y="339.84"/>
      </g>
     </g>
    </g>
    <g id="xtick_28">
     <g id="line2d_55">
      <path clip-path="url(#pd058b6503a)" d="M 186.398812 339.84 
L 186.398812 7.2 
" style="fill:none;stroke:#d3d3d3;stroke-linecap:square;stroke-width:0.03;"/>
     </g>
     <g id="line2d_56">
      <g>
       <use style="stroke:#000000;stroke-width:0.6;" x="186.398812" xlink:href="#m40378b30a3" y="339.84"/>
      </g>
     </g>
    </g>
    <g id="xtick_29">
     <g id="line2d_57">
      <path clip-path="url(#pd058b6503a)" d="M 193.094812 339.84 
L 193.094812 7.2 
" style="fill:none;stroke:#d3d3d3;stroke-linecap:square;stroke-width:0.03;"/>
     </g>
     <g id="line2d_58">
      <g>
       <use style="stroke:#000000;stroke-width:0.6;" x="193.094812" xlink:href="#m40378b30a3" y="339.84"/>
      </g>
     </g>
    </g>
    <g id="xtick_30">
     <g id="line2d_59">
      <path clip-path="url(#pd058b6503a)" d="M 199.790812 339.84 
L 199.790812 7.2 
" style="fill:none;stroke:#d3d3d3;stroke-linecap:square;stroke-width:0.03;"/>
     </g>
     <g id="line2d_60">
      <g>
       <use style="stroke:#000000;stroke-width:0.6;" x="199.790812" xlink:href="#m40378b30a3" y="339.84"/>
      </g>
     </g>
    </g>
    <g id="xtick_31">
     <g id="line2d_61">
      <path clip-path="url(#pd058b6503a)" d="M 206.486813 339.84 
L 206.486813 7.2 
" style="fill:none;stroke:#d3d3d3;stroke-linecap:square;stroke-width:0.03;"/>
     </g>
     <g id="line2d_62">
      <g>
       <use style="stroke:#000000;stroke-width:0.6;" x="206.486813" xlink:href="#m40378b30a3" y="339.84"/>
      </g>
     </g>
    </g>
    <g id="xtick_32">
     <g id="line2d_63">
      <path clip-path="url(#pd058b6503a)" d="M 219.878813 339.84 
L 219.878813 7.2 
" style="fill:none;stroke:#d3d3d3;stroke-linecap:square;stroke-width:0.03;"/>
     </g>
     <g id="line2d_64">
      <g>
       <use style="stroke:#000000;stroke-width:0.6;" x="219.878813" xlink:href="#m40378b30a3" y="339.84"/>
      </g>
     </g>
    </g>
    <g id="xtick_33">
     <g id="line2d_65">
      <path clip-path="url(#pd058b6503a)" d="M 226.574813 339.84 
L 226.574813 7.2 
" style="fill:none;stroke:#d3d3d3;stroke-linecap:square;stroke-width:0.03;"/>
     </g>
     <g id="line2d_66">
      <g>
       <use style="stroke:#000000;stroke-width:0.6;" x="226.574813" xlink:href="#m40378b30a3" y="339.84"/>
      </g>
     </g>
    </g>
    <g id="xtick_34">
     <g id="line2d_67">
      <path clip-path="url(#pd058b6503a)" d="M 233.270813 339.84 
L 233.270813 7.2 
" style="fill:none;stroke:#d3d3d3;stroke-linecap:square;stroke-width:0.03;"/>
     </g>
     <g id="line2d_68">
      <g>
       <use style="stroke:#000000;stroke-width:0.6;" x="233.270813" xlink:href="#m40378b30a3" y="339.84"/>
      </g>
     </g>
    </g>
    <g id="xtick_35">
     <g id="line2d_69">
      <path clip-path="url(#pd058b6503a)" d="M 239.966813 339.84 
L 239.966813 7.2 
" style="fill:none;stroke:#d3d3d3;stroke-linecap:square;stroke-width:0.03;"/>
     </g>
     <g id="line2d_70">
      <g>
       <use style="stroke:#000000;stroke-width:0.6;" x="239.966813" xlink:href="#m40378b30a3" y="339.84"/>
      </g>
     </g>
    </g>
    <g id="xtick_36">
     <g id="line2d_71">
      <path clip-path="url(#pd058b6503a)" d="M 253.358812 339.84 
L 253.358812 7.2 
" style="fill:none;stroke:#d3d3d3;stroke-linecap:square;stroke-width:0.03;"/>
     </g>
     <g id="line2d_72">
      <g>
       <use style="stroke:#000000;stroke-width:0.6;" x="253.358812" xlink:href="#m40378b30a3" y="339.84"/>
      </g>
     </g>
    </g>
    <g id="xtick_37">
     <g id="line2d_73">
      <path clip-path="url(#pd058b6503a)" d="M 260.054813 339.84 
L 260.054813 7.2 
" style="fill:none;stroke:#d3d3d3;stroke-linecap:square;stroke-width:0.03;"/>
     </g>
     <g id="line2d_74">
      <g>
       <use style="stroke:#000000;stroke-width:0.6;" x="260.054813" xlink:href="#m40378b30a3" y="339.84"/>
      </g>
     </g>
    </g>
    <g id="xtick_38">
     <g id="line2d_75">
      <path clip-path="url(#pd058b6503a)" d="M 266.750812 339.84 
L 266.750812 7.2 
" style="fill:none;stroke:#d3d3d3;stroke-linecap:square;stroke-width:0.03;"/>
     </g>
     <g id="line2d_76">
      <g>
       <use style="stroke:#000000;stroke-width:0.6;" x="266.750812" xlink:href="#m40378b30a3" y="339.84"/>
      </g>
     </g>
    </g>
    <g id="xtick_39">
     <g id="line2d_77">
      <path clip-path="url(#pd058b6503a)" d="M 273.446812 339.84 
L 273.446812 7.2 
" style="fill:none;stroke:#d3d3d3;stroke-linecap:square;stroke-width:0.03;"/>
     </g>
     <g id="line2d_78">
      <g>
       <use style="stroke:#000000;stroke-width:0.6;" x="273.446812" xlink:href="#m40378b30a3" y="339.84"/>
      </g>
     </g>
    </g>
    <g id="xtick_40">
     <g id="line2d_79">
      <path clip-path="url(#pd058b6503a)" d="M 286.838813 339.84 
L 286.838813 7.2 
" style="fill:none;stroke:#d3d3d3;stroke-linecap:square;stroke-width:0.03;"/>
     </g>
     <g id="line2d_80">
      <g>
       <use style="stroke:#000000;stroke-width:0.6;" x="286.838813" xlink:href="#m40378b30a3" y="339.84"/>
      </g>
     </g>
    </g>
    <g id="xtick_41">
     <g id="line2d_81">
      <path clip-path="url(#pd058b6503a)" d="M 293.534812 339.84 
L 293.534812 7.2 
" style="fill:none;stroke:#d3d3d3;stroke-linecap:square;stroke-width:0.03;"/>
     </g>
     <g id="line2d_82">
      <g>
       <use style="stroke:#000000;stroke-width:0.6;" x="293.534812" xlink:href="#m40378b30a3" y="339.84"/>
      </g>
     </g>
    </g>
    <g id="xtick_42">
     <g id="line2d_83">
      <path clip-path="url(#pd058b6503a)" d="M 300.230812 339.84 
L 300.230812 7.2 
" style="fill:none;stroke:#d3d3d3;stroke-linecap:square;stroke-width:0.03;"/>
     </g>
     <g id="line2d_84">
      <g>
       <use style="stroke:#000000;stroke-width:0.6;" x="300.230812" xlink:href="#m40378b30a3" y="339.84"/>
      </g>
     </g>
    </g>
    <g id="xtick_43">
     <g id="line2d_85">
      <path clip-path="url(#pd058b6503a)" d="M 306.926812 339.84 
L 306.926812 7.2 
" style="fill:none;stroke:#d3d3d3;stroke-linecap:square;stroke-width:0.03;"/>
     </g>
     <g id="line2d_86">
      <g>
       <use style="stroke:#000000;stroke-width:0.6;" x="306.926812" xlink:href="#m40378b30a3" y="339.84"/>
      </g>
     </g>
    </g>
    <g id="xtick_44">
     <g id="line2d_87">
      <path clip-path="url(#pd058b6503a)" d="M 320.318813 339.84 
L 320.318813 7.2 
" style="fill:none;stroke:#d3d3d3;stroke-linecap:square;stroke-width:0.03;"/>
     </g>
     <g id="line2d_88">
      <g>
       <use style="stroke:#000000;stroke-width:0.6;" x="320.318813" xlink:href="#m40378b30a3" y="339.84"/>
      </g>
     </g>
    </g>
    <g id="xtick_45">
     <g id="line2d_89">
      <path clip-path="url(#pd058b6503a)" d="M 327.014812 339.84 
L 327.014812 7.2 
" style="fill:none;stroke:#d3d3d3;stroke-linecap:square;stroke-width:0.03;"/>
     </g>
     <g id="line2d_90">
      <g>
       <use style="stroke:#000000;stroke-width:0.6;" x="327.014812" xlink:href="#m40378b30a3" y="339.84"/>
      </g>
     </g>
    </g>
    <g id="xtick_46">
     <g id="line2d_91">
      <path clip-path="url(#pd058b6503a)" d="M 333.710812 339.84 
L 333.710812 7.2 
" style="fill:none;stroke:#d3d3d3;stroke-linecap:square;stroke-width:0.03;"/>
     </g>
     <g id="line2d_92">
      <g>
       <use style="stroke:#000000;stroke-width:0.6;" x="333.710812" xlink:href="#m40378b30a3" y="339.84"/>
      </g>
     </g>
    </g>
    <g id="xtick_47">
     <g id="line2d_93">
      <path clip-path="url(#pd058b6503a)" d="M 340.406813 339.84 
L 340.406813 7.2 
" style="fill:none;stroke:#d3d3d3;stroke-linecap:square;stroke-width:0.03;"/>
     </g>
     <g id="line2d_94">
      <g>
       <use style="stroke:#000000;stroke-width:0.6;" x="340.406813" xlink:href="#m40378b30a3" y="339.84"/>
      </g>
     </g>
    </g>
    <g id="xtick_48">
     <g id="line2d_95">
      <path clip-path="url(#pd058b6503a)" d="M 353.798812 339.84 
L 353.798812 7.2 
" style="fill:none;stroke:#d3d3d3;stroke-linecap:square;stroke-width:0.03;"/>
     </g>
     <g id="line2d_96">
      <g>
       <use style="stroke:#000000;stroke-width:0.6;" x="353.798812" xlink:href="#m40378b30a3" y="339.84"/>
      </g>
     </g>
    </g>
    <g id="xtick_49">
     <g id="line2d_97">
      <path clip-path="url(#pd058b6503a)" d="M 360.494812 339.84 
L 360.494812 7.2 
" style="fill:none;stroke:#d3d3d3;stroke-linecap:square;stroke-width:0.03;"/>
     </g>
     <g id="line2d_98">
      <g>
       <use style="stroke:#000000;stroke-width:0.6;" x="360.494812" xlink:href="#m40378b30a3" y="339.84"/>
      </g>
     </g>
    </g>
    <g id="xtick_50">
     <g id="line2d_99">
      <path clip-path="url(#pd058b6503a)" d="M 367.190812 339.84 
L 367.190812 7.2 
" style="fill:none;stroke:#d3d3d3;stroke-linecap:square;stroke-width:0.03;"/>
     </g>
     <g id="line2d_100">
      <g>
       <use style="stroke:#000000;stroke-width:0.6;" x="367.190812" xlink:href="#m40378b30a3" y="339.84"/>
      </g>
     </g>
    </g>
    <g id="xtick_51">
     <g id="line2d_101">
      <path clip-path="url(#pd058b6503a)" d="M 373.886813 339.84 
L 373.886813 7.2 
" style="fill:none;stroke:#d3d3d3;stroke-linecap:square;stroke-width:0.03;"/>
     </g>
     <g id="line2d_102">
      <g>
       <use style="stroke:#000000;stroke-width:0.6;" x="373.886813" xlink:href="#m40378b30a3" y="339.84"/>
      </g>
     </g>
    </g>
    <g id="text_12">
     <!-- T [$^{\circ}$C] -->
     <g transform="translate(200.032812 367.285312)scale(0.1 -0.1)">
      <defs>
       <path d="M 25.921875 0 
L 25.921875 63.140625 
L 2.34375 63.140625 
L 2.34375 71.578125 
L 59.078125 71.578125 
L 59.078125 63.140625 
L 35.40625 63.140625 
L 35.40625 0 
z
" id="ArialMT-84"/>
       <path id="ArialMT-32"/>
       <path d="M 6.78125 -19.875 
L 6.78125 71.578125 
L 26.171875 71.578125 
L 26.171875 64.3125 
L 15.578125 64.3125 
L 15.578125 -12.59375 
L 26.171875 -12.59375 
L 26.171875 -19.875 
z
" id="ArialMT-91"/>
       <path d="M 25 5.609375 
Q 19.828125 5.609375 15.359375 8.21875 
Q 10.890625 10.84375 8.25 15.375 
Q 5.609375 19.921875 5.609375 25 
Q 5.609375 30.078125 8.25 34.609375 
Q 10.890625 39.15625 15.359375 41.765625 
Q 19.828125 44.390625 25 44.390625 
Q 30.171875 44.390625 34.609375 41.75 
Q 39.0625 39.109375 41.671875 34.59375 
Q 44.28125 30.078125 44.28125 25 
Q 44.28125 19.921875 41.671875 15.40625 
Q 39.0625 10.890625 34.609375 8.25 
Q 30.171875 5.609375 25 5.609375 
z
M 25 9.625 
Q 31.25 9.625 35.765625 14.1875 
Q 40.28125 18.75 40.28125 25 
Q 40.28125 29 38.203125 32.59375 
Q 36.140625 36.1875 32.625 38.28125 
Q 29.109375 40.375 25 40.375 
Q 21.921875 40.375 19.140625 39.171875 
Q 16.359375 37.984375 14.15625 35.78125 
Q 11.96875 33.59375 10.796875 30.828125 
Q 9.625 28.078125 9.625 25 
Q 9.625 18.75 14.140625 14.1875 
Q 18.65625 9.625 25 9.625 
z
" id="Cmsy10-177"/>
       <path d="M 58.796875 25.09375 
L 68.265625 22.703125 
Q 65.28125 11.03125 57.546875 4.90625 
Q 49.8125 -1.21875 38.625 -1.21875 
Q 27.046875 -1.21875 19.796875 3.484375 
Q 12.546875 8.203125 8.765625 17.140625 
Q 4.984375 26.078125 4.984375 36.328125 
Q 4.984375 47.515625 9.25 55.828125 
Q 13.53125 64.15625 21.40625 68.46875 
Q 29.296875 72.796875 38.765625 72.796875 
Q 49.515625 72.796875 56.828125 67.328125 
Q 64.15625 61.859375 67.046875 51.953125 
L 57.71875 49.75 
Q 55.21875 57.5625 50.484375 61.125 
Q 45.75 64.703125 38.578125 64.703125 
Q 30.328125 64.703125 24.78125 60.734375 
Q 19.234375 56.78125 16.984375 50.109375 
Q 14.75 43.453125 14.75 36.375 
Q 14.75 27.25 17.40625 20.4375 
Q 20.0625 13.625 25.671875 10.25 
Q 31.296875 6.890625 37.84375 6.890625 
Q 45.796875 6.890625 51.3125 11.46875 
Q 56.84375 16.0625 58.796875 25.09375 
z
" id="ArialMT-67"/>
       <path d="M 21.296875 -19.875 
L 1.90625 -19.875 
L 1.90625 -12.59375 
L 12.5 -12.59375 
L 12.5 64.3125 
L 1.90625 64.3125 
L 1.90625 71.578125 
L 21.296875 71.578125 
z
" id="ArialMT-93"/>
      </defs>
      <use transform="translate(0 0.203125)" xlink:href="#ArialMT-84"/>
      <use transform="translate(61.083984 0.203125)" xlink:href="#ArialMT-32"/>
      <use transform="translate(88.867188 0.203125)" xlink:href="#ArialMT-91"/>
      <use transform="translate(121.114531 38.467188)scale(0.7)" xlink:href="#Cmsy10-177"/>
      <use transform="translate(162.491875 0.203125)" xlink:href="#ArialMT-67"/>
      <use transform="translate(234.708672 0.203125)" xlink:href="#ArialMT-93"/>
     </g>
    </g>
   </g>
   <g id="matplotlib.axis_2">
    <g id="ytick_1">
     <g id="line2d_103">
      <path clip-path="url(#pd058b6503a)" d="M 45.782813 307.440987 
L 380.582812 307.440987 
" style="fill:none;stroke:#808080;stroke-linecap:square;stroke-width:0.03;"/>
     </g>
     <g id="line2d_104">
      <defs>
       <path d="M 0 0 
L -3.5 0 
" id="m8cbec002c4" style="stroke:#000000;stroke-width:0.8;"/>
      </defs>
      <g>
       <use style="stroke:#000000;stroke-width:0.8;" x="45.782813" xlink:href="#m8cbec002c4" y="307.440987"/>
      </g>
     </g>
     <g id="text_13">
      <!-- 20 -->
      <g transform="translate(27.660938 311.019894)scale(0.1 -0.1)">
       <use xlink:href="#ArialMT-50"/>
       <use x="55.615234" xlink:href="#ArialMT-48"/>
      </g>
     </g>
    </g>
    <g id="ytick_2">
     <g id="line2d_105">
      <path clip-path="url(#pd058b6503a)" d="M 45.782813 272.882962 
L 380.582812 272.882962 
" style="fill:none;stroke:#808080;stroke-linecap:square;stroke-width:0.03;"/>
     </g>
     <g id="line2d_106">
      <g>
       <use style="stroke:#000000;stroke-width:0.8;" x="45.782813" xlink:href="#m8cbec002c4" y="272.882962"/>
      </g>
     </g>
     <g id="text_14">
      <!-- 30 -->
      <g transform="translate(27.660938 276.461868)scale(0.1 -0.1)">
       <use xlink:href="#ArialMT-51"/>
       <use x="55.615234" xlink:href="#ArialMT-48"/>
      </g>
     </g>
    </g>
    <g id="ytick_3">
     <g id="line2d_107">
      <path clip-path="url(#pd058b6503a)" d="M 45.782813 238.324937 
L 380.582812 238.324937 
" style="fill:none;stroke:#808080;stroke-linecap:square;stroke-width:0.03;"/>
     </g>
     <g id="line2d_108">
      <g>
       <use style="stroke:#000000;stroke-width:0.8;" x="45.782813" xlink:href="#m8cbec002c4" y="238.324937"/>
      </g>
     </g>
     <g id="text_15">
      <!-- 40 -->
      <g transform="translate(27.660938 241.903843)scale(0.1 -0.1)">
       <use xlink:href="#ArialMT-52"/>
       <use x="55.615234" xlink:href="#ArialMT-48"/>
      </g>
     </g>
    </g>
    <g id="ytick_4">
     <g id="line2d_109">
      <path clip-path="url(#pd058b6503a)" d="M 45.782813 203.766912 
L 380.582812 203.766912 
" style="fill:none;stroke:#808080;stroke-linecap:square;stroke-width:0.03;"/>
     </g>
     <g id="line2d_110">
      <g>
       <use style="stroke:#000000;stroke-width:0.8;" x="45.782813" xlink:href="#m8cbec002c4" y="203.766912"/>
      </g>
     </g>
     <g id="text_16">
      <!-- 50 -->
      <g transform="translate(27.660938 207.345818)scale(0.1 -0.1)">
       <use xlink:href="#ArialMT-53"/>
       <use x="55.615234" xlink:href="#ArialMT-48"/>
      </g>
     </g>
    </g>
    <g id="ytick_5">
     <g id="line2d_111">
      <path clip-path="url(#pd058b6503a)" d="M 45.782813 169.208886 
L 380.582812 169.208886 
" style="fill:none;stroke:#808080;stroke-linecap:square;stroke-width:0.03;"/>
     </g>
     <g id="line2d_112">
      <g>
       <use style="stroke:#000000;stroke-width:0.8;" x="45.782813" xlink:href="#m8cbec002c4" y="169.208886"/>
      </g>
     </g>
     <g id="text_17">
      <!-- 60 -->
      <g transform="translate(27.660938 172.787793)scale(0.1 -0.1)">
       <use xlink:href="#ArialMT-54"/>
       <use x="55.615234" xlink:href="#ArialMT-48"/>
      </g>
     </g>
    </g>
    <g id="ytick_6">
     <g id="line2d_113">
      <path clip-path="url(#pd058b6503a)" d="M 45.782813 134.650861 
L 380.582812 134.650861 
" style="fill:none;stroke:#808080;stroke-linecap:square;stroke-width:0.03;"/>
     </g>
     <g id="line2d_114">
      <g>
       <use style="stroke:#000000;stroke-width:0.8;" x="45.782813" xlink:href="#m8cbec002c4" y="134.650861"/>
      </g>
     </g>
     <g id="text_18">
      <!-- 70 -->
      <g transform="translate(27.660938 138.229767)scale(0.1 -0.1)">
       <use xlink:href="#ArialMT-55"/>
       <use x="55.615234" xlink:href="#ArialMT-48"/>
      </g>
     </g>
    </g>
    <g id="ytick_7">
     <g id="line2d_115">
      <path clip-path="url(#pd058b6503a)" d="M 45.782813 100.092836 
L 380.582812 100.092836 
" style="fill:none;stroke:#808080;stroke-linecap:square;stroke-width:0.03;"/>
     </g>
     <g id="line2d_116">
      <g>
       <use style="stroke:#000000;stroke-width:0.8;" x="45.782813" xlink:href="#m8cbec002c4" y="100.092836"/>
      </g>
     </g>
     <g id="text_19">
      <!-- 80 -->
      <g transform="translate(27.660938 103.671742)scale(0.1 -0.1)">
       <use xlink:href="#ArialMT-56"/>
       <use x="55.615234" xlink:href="#ArialMT-48"/>
      </g>
     </g>
    </g>
    <g id="ytick_8">
     <g id="line2d_117">
      <path clip-path="url(#pd058b6503a)" d="M 45.782813 65.534811 
L 380.582812 65.534811 
" style="fill:none;stroke:#808080;stroke-linecap:square;stroke-width:0.03;"/>
     </g>
     <g id="line2d_118">
      <g>
       <use style="stroke:#000000;stroke-width:0.8;" x="45.782813" xlink:href="#m8cbec002c4" y="65.534811"/>
      </g>
     </g>
     <g id="text_20">
      <!-- 90 -->
      <g transform="translate(27.660938 69.113717)scale(0.1 -0.1)">
       <use xlink:href="#ArialMT-57"/>
       <use x="55.615234" xlink:href="#ArialMT-48"/>
      </g>
     </g>
    </g>
    <g id="ytick_9">
     <g id="line2d_119">
      <path clip-path="url(#pd058b6503a)" d="M 45.782813 30.976785 
L 380.582812 30.976785 
" style="fill:none;stroke:#808080;stroke-linecap:square;stroke-width:0.03;"/>
     </g>
     <g id="line2d_120">
      <g>
       <use style="stroke:#000000;stroke-width:0.8;" x="45.782813" xlink:href="#m8cbec002c4" y="30.976785"/>
      </g>
     </g>
     <g id="text_21">
      <!-- 100 -->
      <g transform="translate(22.1 34.555692)scale(0.1 -0.1)">
       <use xlink:href="#ArialMT-49"/>
       <use x="55.615234" xlink:href="#ArialMT-48"/>
       <use x="111.230469" xlink:href="#ArialMT-48"/>
      </g>
     </g>
    </g>
    <g id="ytick_10">
     <g id="line2d_121">
      <path clip-path="url(#pd058b6503a)" d="M 45.782813 335.087408 
L 380.582812 335.087408 
" style="fill:none;stroke:#d3d3d3;stroke-linecap:square;stroke-width:0.03;"/>
     </g>
     <g id="line2d_122">
      <defs>
       <path d="M 0 0 
L -2 0 
" id="m0e0e69cd55" style="stroke:#000000;stroke-width:0.6;"/>
      </defs>
      <g>
       <use style="stroke:#000000;stroke-width:0.6;" x="45.782813" xlink:href="#m0e0e69cd55" y="335.087408"/>
      </g>
     </g>
    </g>
    <g id="ytick_11">
     <g id="line2d_123">
      <path clip-path="url(#pd058b6503a)" d="M 45.782813 328.175803 
L 380.582812 328.175803 
" style="fill:none;stroke:#d3d3d3;stroke-linecap:square;stroke-width:0.03;"/>
     </g>
     <g id="line2d_124">
      <g>
       <use style="stroke:#000000;stroke-width:0.6;" x="45.782813" xlink:href="#m0e0e69cd55" y="328.175803"/>
      </g>
     </g>
    </g>
    <g id="ytick_12">
     <g id="line2d_125">
      <path clip-path="url(#pd058b6503a)" d="M 45.782813 321.264197 
L 380.582812 321.264197 
" style="fill:none;stroke:#d3d3d3;stroke-linecap:square;stroke-width:0.03;"/>
     </g>
     <g id="line2d_126">
      <g>
       <use style="stroke:#000000;stroke-width:0.6;" x="45.782813" xlink:href="#m0e0e69cd55" y="321.264197"/>
      </g>
     </g>
    </g>
    <g id="ytick_13">
     <g id="line2d_127">
      <path clip-path="url(#pd058b6503a)" d="M 45.782813 314.352592 
L 380.582812 314.352592 
" style="fill:none;stroke:#d3d3d3;stroke-linecap:square;stroke-width:0.03;"/>
     </g>
     <g id="line2d_128">
      <g>
       <use style="stroke:#000000;stroke-width:0.6;" x="45.782813" xlink:href="#m0e0e69cd55" y="314.352592"/>
      </g>
     </g>
    </g>
    <g id="ytick_14">
     <g id="line2d_129">
      <path clip-path="url(#pd058b6503a)" d="M 45.782813 300.529382 
L 380.582812 300.529382 
" style="fill:none;stroke:#d3d3d3;stroke-linecap:square;stroke-width:0.03;"/>
     </g>
     <g id="line2d_130">
      <g>
       <use style="stroke:#000000;stroke-width:0.6;" x="45.782813" xlink:href="#m0e0e69cd55" y="300.529382"/>
      </g>
     </g>
    </g>
    <g id="ytick_15">
     <g id="line2d_131">
      <path clip-path="url(#pd058b6503a)" d="M 45.782813 293.617777 
L 380.582812 293.617777 
" style="fill:none;stroke:#d3d3d3;stroke-linecap:square;stroke-width:0.03;"/>
     </g>
     <g id="line2d_132">
      <g>
       <use style="stroke:#000000;stroke-width:0.6;" x="45.782813" xlink:href="#m0e0e69cd55" y="293.617777"/>
      </g>
     </g>
    </g>
    <g id="ytick_16">
     <g id="line2d_133">
      <path clip-path="url(#pd058b6503a)" d="M 45.782813 286.706172 
L 380.582812 286.706172 
" style="fill:none;stroke:#d3d3d3;stroke-linecap:square;stroke-width:0.03;"/>
     </g>
     <g id="line2d_134">
      <g>
       <use style="stroke:#000000;stroke-width:0.6;" x="45.782813" xlink:href="#m0e0e69cd55" y="286.706172"/>
      </g>
     </g>
    </g>
    <g id="ytick_17">
     <g id="line2d_135">
      <path clip-path="url(#pd058b6503a)" d="M 45.782813 279.794567 
L 380.582812 279.794567 
" style="fill:none;stroke:#d3d3d3;stroke-linecap:square;stroke-width:0.03;"/>
     </g>
     <g id="line2d_136">
      <g>
       <use style="stroke:#000000;stroke-width:0.6;" x="45.782813" xlink:href="#m0e0e69cd55" y="279.794567"/>
      </g>
     </g>
    </g>
    <g id="ytick_18">
     <g id="line2d_137">
      <path clip-path="url(#pd058b6503a)" d="M 45.782813 265.971357 
L 380.582812 265.971357 
" style="fill:none;stroke:#d3d3d3;stroke-linecap:square;stroke-width:0.03;"/>
     </g>
     <g id="line2d_138">
      <g>
       <use style="stroke:#000000;stroke-width:0.6;" x="45.782813" xlink:href="#m0e0e69cd55" y="265.971357"/>
      </g>
     </g>
    </g>
    <g id="ytick_19">
     <g id="line2d_139">
      <path clip-path="url(#pd058b6503a)" d="M 45.782813 259.059752 
L 380.582812 259.059752 
" style="fill:none;stroke:#d3d3d3;stroke-linecap:square;stroke-width:0.03;"/>
     </g>
     <g id="line2d_140">
      <g>
       <use style="stroke:#000000;stroke-width:0.6;" x="45.782813" xlink:href="#m0e0e69cd55" y="259.059752"/>
      </g>
     </g>
    </g>
    <g id="ytick_20">
     <g id="line2d_141">
      <path clip-path="url(#pd058b6503a)" d="M 45.782813 252.148147 
L 380.582812 252.148147 
" style="fill:none;stroke:#d3d3d3;stroke-linecap:square;stroke-width:0.03;"/>
     </g>
     <g id="line2d_142">
      <g>
       <use style="stroke:#000000;stroke-width:0.6;" x="45.782813" xlink:href="#m0e0e69cd55" y="252.148147"/>
      </g>
     </g>
    </g>
    <g id="ytick_21">
     <g id="line2d_143">
      <path clip-path="url(#pd058b6503a)" d="M 45.782813 245.236542 
L 380.582812 245.236542 
" style="fill:none;stroke:#d3d3d3;stroke-linecap:square;stroke-width:0.03;"/>
     </g>
     <g id="line2d_144">
      <g>
       <use style="stroke:#000000;stroke-width:0.6;" x="45.782813" xlink:href="#m0e0e69cd55" y="245.236542"/>
      </g>
     </g>
    </g>
    <g id="ytick_22">
     <g id="line2d_145">
      <path clip-path="url(#pd058b6503a)" d="M 45.782813 231.413332 
L 380.582812 231.413332 
" style="fill:none;stroke:#d3d3d3;stroke-linecap:square;stroke-width:0.03;"/>
     </g>
     <g id="line2d_146">
      <g>
       <use style="stroke:#000000;stroke-width:0.6;" x="45.782813" xlink:href="#m0e0e69cd55" y="231.413332"/>
      </g>
     </g>
    </g>
    <g id="ytick_23">
     <g id="line2d_147">
      <path clip-path="url(#pd058b6503a)" d="M 45.782813 224.501727 
L 380.582812 224.501727 
" style="fill:none;stroke:#d3d3d3;stroke-linecap:square;stroke-width:0.03;"/>
     </g>
     <g id="line2d_148">
      <g>
       <use style="stroke:#000000;stroke-width:0.6;" x="45.782813" xlink:href="#m0e0e69cd55" y="224.501727"/>
      </g>
     </g>
    </g>
    <g id="ytick_24">
     <g id="line2d_149">
      <path clip-path="url(#pd058b6503a)" d="M 45.782813 217.590122 
L 380.582812 217.590122 
" style="fill:none;stroke:#d3d3d3;stroke-linecap:square;stroke-width:0.03;"/>
     </g>
     <g id="line2d_150">
      <g>
       <use style="stroke:#000000;stroke-width:0.6;" x="45.782813" xlink:href="#m0e0e69cd55" y="217.590122"/>
      </g>
     </g>
    </g>
    <g id="ytick_25">
     <g id="line2d_151">
      <path clip-path="url(#pd058b6503a)" d="M 45.782813 210.678517 
L 380.582812 210.678517 
" style="fill:none;stroke:#d3d3d3;stroke-linecap:square;stroke-width:0.03;"/>
     </g>
     <g id="line2d_152">
      <g>
       <use style="stroke:#000000;stroke-width:0.6;" x="45.782813" xlink:href="#m0e0e69cd55" y="210.678517"/>
      </g>
     </g>
    </g>
    <g id="ytick_26">
     <g id="line2d_153">
      <path clip-path="url(#pd058b6503a)" d="M 45.782813 196.855307 
L 380.582812 196.855307 
" style="fill:none;stroke:#d3d3d3;stroke-linecap:square;stroke-width:0.03;"/>
     </g>
     <g id="line2d_154">
      <g>
       <use style="stroke:#000000;stroke-width:0.6;" x="45.782813" xlink:href="#m0e0e69cd55" y="196.855307"/>
      </g>
     </g>
    </g>
    <g id="ytick_27">
     <g id="line2d_155">
      <path clip-path="url(#pd058b6503a)" d="M 45.782813 189.943702 
L 380.582812 189.943702 
" style="fill:none;stroke:#d3d3d3;stroke-linecap:square;stroke-width:0.03;"/>
     </g>
     <g id="line2d_156">
      <g>
       <use style="stroke:#000000;stroke-width:0.6;" x="45.782813" xlink:href="#m0e0e69cd55" y="189.943702"/>
      </g>
     </g>
    </g>
    <g id="ytick_28">
     <g id="line2d_157">
      <path clip-path="url(#pd058b6503a)" d="M 45.782813 183.032096 
L 380.582812 183.032096 
" style="fill:none;stroke:#d3d3d3;stroke-linecap:square;stroke-width:0.03;"/>
     </g>
     <g id="line2d_158">
      <g>
       <use style="stroke:#000000;stroke-width:0.6;" x="45.782813" xlink:href="#m0e0e69cd55" y="183.032096"/>
      </g>
     </g>
    </g>
    <g id="ytick_29">
     <g id="line2d_159">
      <path clip-path="url(#pd058b6503a)" d="M 45.782813 176.120491 
L 380.582812 176.120491 
" style="fill:none;stroke:#d3d3d3;stroke-linecap:square;stroke-width:0.03;"/>
     </g>
     <g id="line2d_160">
      <g>
       <use style="stroke:#000000;stroke-width:0.6;" x="45.782813" xlink:href="#m0e0e69cd55" y="176.120491"/>
      </g>
     </g>
    </g>
    <g id="ytick_30">
     <g id="line2d_161">
      <path clip-path="url(#pd058b6503a)" d="M 45.782813 162.297281 
L 380.582812 162.297281 
" style="fill:none;stroke:#d3d3d3;stroke-linecap:square;stroke-width:0.03;"/>
     </g>
     <g id="line2d_162">
      <g>
       <use style="stroke:#000000;stroke-width:0.6;" x="45.782813" xlink:href="#m0e0e69cd55" y="162.297281"/>
      </g>
     </g>
    </g>
    <g id="ytick_31">
     <g id="line2d_163">
      <path clip-path="url(#pd058b6503a)" d="M 45.782813 155.385676 
L 380.582812 155.385676 
" style="fill:none;stroke:#d3d3d3;stroke-linecap:square;stroke-width:0.03;"/>
     </g>
     <g id="line2d_164">
      <g>
       <use style="stroke:#000000;stroke-width:0.6;" x="45.782813" xlink:href="#m0e0e69cd55" y="155.385676"/>
      </g>
     </g>
    </g>
    <g id="ytick_32">
     <g id="line2d_165">
      <path clip-path="url(#pd058b6503a)" d="M 45.782813 148.474071 
L 380.582812 148.474071 
" style="fill:none;stroke:#d3d3d3;stroke-linecap:square;stroke-width:0.03;"/>
     </g>
     <g id="line2d_166">
      <g>
       <use style="stroke:#000000;stroke-width:0.6;" x="45.782813" xlink:href="#m0e0e69cd55" y="148.474071"/>
      </g>
     </g>
    </g>
    <g id="ytick_33">
     <g id="line2d_167">
      <path clip-path="url(#pd058b6503a)" d="M 45.782813 141.562466 
L 380.582812 141.562466 
" style="fill:none;stroke:#d3d3d3;stroke-linecap:square;stroke-width:0.03;"/>
     </g>
     <g id="line2d_168">
      <g>
       <use style="stroke:#000000;stroke-width:0.6;" x="45.782813" xlink:href="#m0e0e69cd55" y="141.562466"/>
      </g>
     </g>
    </g>
    <g id="ytick_34">
     <g id="line2d_169">
      <path clip-path="url(#pd058b6503a)" d="M 45.782813 127.739256 
L 380.582812 127.739256 
" style="fill:none;stroke:#d3d3d3;stroke-linecap:square;stroke-width:0.03;"/>
     </g>
     <g id="line2d_170">
      <g>
       <use style="stroke:#000000;stroke-width:0.6;" x="45.782813" xlink:href="#m0e0e69cd55" y="127.739256"/>
      </g>
     </g>
    </g>
    <g id="ytick_35">
     <g id="line2d_171">
      <path clip-path="url(#pd058b6503a)" d="M 45.782813 120.827651 
L 380.582812 120.827651 
" style="fill:none;stroke:#d3d3d3;stroke-linecap:square;stroke-width:0.03;"/>
     </g>
     <g id="line2d_172">
      <g>
       <use style="stroke:#000000;stroke-width:0.6;" x="45.782813" xlink:href="#m0e0e69cd55" y="120.827651"/>
      </g>
     </g>
    </g>
    <g id="ytick_36">
     <g id="line2d_173">
      <path clip-path="url(#pd058b6503a)" d="M 45.782813 113.916046 
L 380.582812 113.916046 
" style="fill:none;stroke:#d3d3d3;stroke-linecap:square;stroke-width:0.03;"/>
     </g>
     <g id="line2d_174">
      <g>
       <use style="stroke:#000000;stroke-width:0.6;" x="45.782813" xlink:href="#m0e0e69cd55" y="113.916046"/>
      </g>
     </g>
    </g>
    <g id="ytick_37">
     <g id="line2d_175">
      <path clip-path="url(#pd058b6503a)" d="M 45.782813 107.004441 
L 380.582812 107.004441 
" style="fill:none;stroke:#d3d3d3;stroke-linecap:square;stroke-width:0.03;"/>
     </g>
     <g id="line2d_176">
      <g>
       <use style="stroke:#000000;stroke-width:0.6;" x="45.782813" xlink:href="#m0e0e69cd55" y="107.004441"/>
      </g>
     </g>
    </g>
    <g id="ytick_38">
     <g id="line2d_177">
      <path clip-path="url(#pd058b6503a)" d="M 45.782813 93.181231 
L 380.582812 93.181231 
" style="fill:none;stroke:#d3d3d3;stroke-linecap:square;stroke-width:0.03;"/>
     </g>
     <g id="line2d_178">
      <g>
       <use style="stroke:#000000;stroke-width:0.6;" x="45.782813" xlink:href="#m0e0e69cd55" y="93.181231"/>
      </g>
     </g>
    </g>
    <g id="ytick_39">
     <g id="line2d_179">
      <path clip-path="url(#pd058b6503a)" d="M 45.782813 86.269626 
L 380.582812 86.269626 
" style="fill:none;stroke:#d3d3d3;stroke-linecap:square;stroke-width:0.03;"/>
     </g>
     <g id="line2d_180">
      <g>
       <use style="stroke:#000000;stroke-width:0.6;" x="45.782813" xlink:href="#m0e0e69cd55" y="86.269626"/>
      </g>
     </g>
    </g>
    <g id="ytick_40">
     <g id="line2d_181">
      <path clip-path="url(#pd058b6503a)" d="M 45.782813 79.358021 
L 380.582812 79.358021 
" style="fill:none;stroke:#d3d3d3;stroke-linecap:square;stroke-width:0.03;"/>
     </g>
     <g id="line2d_182">
      <g>
       <use style="stroke:#000000;stroke-width:0.6;" x="45.782813" xlink:href="#m0e0e69cd55" y="79.358021"/>
      </g>
     </g>
    </g>
    <g id="ytick_41">
     <g id="line2d_183">
      <path clip-path="url(#pd058b6503a)" d="M 45.782813 72.446416 
L 380.582812 72.446416 
" style="fill:none;stroke:#d3d3d3;stroke-linecap:square;stroke-width:0.03;"/>
     </g>
     <g id="line2d_184">
      <g>
       <use style="stroke:#000000;stroke-width:0.6;" x="45.782813" xlink:href="#m0e0e69cd55" y="72.446416"/>
      </g>
     </g>
    </g>
    <g id="ytick_42">
     <g id="line2d_185">
      <path clip-path="url(#pd058b6503a)" d="M 45.782813 58.623206 
L 380.582812 58.623206 
" style="fill:none;stroke:#d3d3d3;stroke-linecap:square;stroke-width:0.03;"/>
     </g>
     <g id="line2d_186">
      <g>
       <use style="stroke:#000000;stroke-width:0.6;" x="45.782813" xlink:href="#m0e0e69cd55" y="58.623206"/>
      </g>
     </g>
    </g>
    <g id="ytick_43">
     <g id="line2d_187">
      <path clip-path="url(#pd058b6503a)" d="M 45.782813 51.7116 
L 380.582812 51.7116 
" style="fill:none;stroke:#d3d3d3;stroke-linecap:square;stroke-width:0.03;"/>
     </g>
     <g id="line2d_188">
      <g>
       <use style="stroke:#000000;stroke-width:0.6;" x="45.782813" xlink:href="#m0e0e69cd55" y="51.7116"/>
      </g>
     </g>
    </g>
    <g id="ytick_44">
     <g id="line2d_189">
      <path clip-path="url(#pd058b6503a)" d="M 45.782813 44.799995 
L 380.582812 44.799995 
" style="fill:none;stroke:#d3d3d3;stroke-linecap:square;stroke-width:0.03;"/>
     </g>
     <g id="line2d_190">
      <g>
       <use style="stroke:#000000;stroke-width:0.6;" x="45.782813" xlink:href="#m0e0e69cd55" y="44.799995"/>
      </g>
     </g>
    </g>
    <g id="ytick_45">
     <g id="line2d_191">
      <path clip-path="url(#pd058b6503a)" d="M 45.782813 37.88839 
L 380.582812 37.88839 
" style="fill:none;stroke:#d3d3d3;stroke-linecap:square;stroke-width:0.03;"/>
     </g>
     <g id="line2d_192">
      <g>
       <use style="stroke:#000000;stroke-width:0.6;" x="45.782813" xlink:href="#m0e0e69cd55" y="37.88839"/>
      </g>
     </g>
    </g>
    <g id="ytick_46">
     <g id="line2d_193">
      <path clip-path="url(#pd058b6503a)" d="M 45.782813 24.06518 
L 380.582812 24.06518 
" style="fill:none;stroke:#d3d3d3;stroke-linecap:square;stroke-width:0.03;"/>
     </g>
     <g id="line2d_194">
      <g>
       <use style="stroke:#000000;stroke-width:0.6;" x="45.782813" xlink:href="#m0e0e69cd55" y="24.06518"/>
      </g>
     </g>
    </g>
    <g id="ytick_47">
     <g id="line2d_195">
      <path clip-path="url(#pd058b6503a)" d="M 45.782813 17.153575 
L 380.582812 17.153575 
" style="fill:none;stroke:#d3d3d3;stroke-linecap:square;stroke-width:0.03;"/>
     </g>
     <g id="line2d_196">
      <g>
       <use style="stroke:#000000;stroke-width:0.6;" x="45.782813" xlink:href="#m0e0e69cd55" y="17.153575"/>
      </g>
     </g>
    </g>
    <g id="ytick_48">
     <g id="line2d_197">
      <path clip-path="url(#pd058b6503a)" d="M 45.782813 10.24197 
L 380.582812 10.24197 
" style="fill:none;stroke:#d3d3d3;stroke-linecap:square;stroke-width:0.03;"/>
     </g>
     <g id="line2d_198">
      <g>
       <use style="stroke:#000000;stroke-width:0.6;" x="45.782813" xlink:href="#m0e0e69cd55" y="10.24197"/>
      </g>
     </g>
    </g>
    <g id="text_22">
     <!-- V [cm$^{\mathregular{3}}\ \mathregular{mol}^{\mathregular{-1}}$] -->
     <g transform="translate(16.1 203.37)rotate(-90)scale(0.1 -0.1)">
      <defs>
       <path d="M 28.171875 0 
L 0.4375 71.578125 
L 10.6875 71.578125 
L 29.296875 19.578125 
Q 31.546875 13.328125 33.0625 7.859375 
Q 34.71875 13.71875 36.921875 19.578125 
L 56.25 71.578125 
L 65.921875 71.578125 
L 37.890625 0 
z
" id="ArialMT-86"/>
       <path d="M 40.4375 19 
L 49.078125 17.875 
Q 47.65625 8.9375 41.8125 3.875 
Q 35.984375 -1.171875 27.484375 -1.171875 
Q 16.84375 -1.171875 10.375 5.78125 
Q 3.90625 12.75 3.90625 25.734375 
Q 3.90625 34.125 6.6875 40.421875 
Q 9.46875 46.734375 15.15625 49.875 
Q 20.84375 53.03125 27.546875 53.03125 
Q 35.984375 53.03125 41.359375 48.75 
Q 46.734375 44.484375 48.25 36.625 
L 39.703125 35.296875 
Q 38.484375 40.53125 35.375 43.15625 
Q 32.28125 45.796875 27.875 45.796875 
Q 21.234375 45.796875 17.078125 41.03125 
Q 12.9375 36.28125 12.9375 25.984375 
Q 12.9375 15.53125 16.9375 10.796875 
Q 20.953125 6.0625 27.390625 6.0625 
Q 32.5625 6.0625 36.03125 9.234375 
Q 39.5 12.40625 40.4375 19 
z
" id="ArialMT-99"/>
       <path d="M 6.59375 0 
L 6.59375 51.859375 
L 14.453125 51.859375 
L 14.453125 44.578125 
Q 16.890625 48.390625 20.9375 50.703125 
Q 25 53.03125 30.171875 53.03125 
Q 35.9375 53.03125 39.625 50.640625 
Q 43.3125 48.25 44.828125 43.953125 
Q 50.984375 53.03125 60.84375 53.03125 
Q 68.5625 53.03125 72.703125 48.75 
Q 76.859375 44.484375 76.859375 35.59375 
L 76.859375 0 
L 68.109375 0 
L 68.109375 32.671875 
Q 68.109375 37.9375 67.25 40.25 
Q 66.40625 42.578125 64.15625 43.984375 
Q 61.921875 45.40625 58.890625 45.40625 
Q 53.421875 45.40625 49.796875 41.765625 
Q 46.1875 38.140625 46.1875 30.125 
L 46.1875 0 
L 37.40625 0 
L 37.40625 33.6875 
Q 37.40625 39.546875 35.25 42.46875 
Q 33.109375 45.40625 28.21875 45.40625 
Q 24.515625 45.40625 21.359375 43.453125 
Q 18.21875 41.5 16.796875 37.734375 
Q 15.375 33.984375 15.375 26.90625 
L 15.375 0 
z
" id="ArialMT-109"/>
       <path d="M 3.328125 25.921875 
Q 3.328125 40.328125 11.328125 47.265625 
Q 18.015625 53.03125 27.640625 53.03125 
Q 38.328125 53.03125 45.109375 46.015625 
Q 51.90625 39.015625 51.90625 26.65625 
Q 51.90625 16.65625 48.90625 10.90625 
Q 45.90625 5.171875 40.15625 2 
Q 34.421875 -1.171875 27.640625 -1.171875 
Q 16.75 -1.171875 10.03125 5.8125 
Q 3.328125 12.796875 3.328125 25.921875 
z
M 12.359375 25.921875 
Q 12.359375 15.96875 16.703125 11.015625 
Q 21.046875 6.0625 27.640625 6.0625 
Q 34.1875 6.0625 38.53125 11.03125 
Q 42.875 16.015625 42.875 26.21875 
Q 42.875 35.84375 38.5 40.796875 
Q 34.125 45.75 27.640625 45.75 
Q 21.046875 45.75 16.703125 40.8125 
Q 12.359375 35.890625 12.359375 25.921875 
z
" id="ArialMT-111"/>
       <path d="M 6.390625 0 
L 6.390625 71.578125 
L 15.1875 71.578125 
L 15.1875 0 
z
" id="ArialMT-108"/>
       <path d="M 3.171875 21.484375 
L 3.171875 30.328125 
L 30.171875 30.328125 
L 30.171875 21.484375 
z
" id="ArialMT-45"/>
      </defs>
      <use transform="translate(0 0.423438)" xlink:href="#ArialMT-86"/>
      <use transform="translate(66.699219 0.423438)" xlink:href="#ArialMT-32"/>
      <use transform="translate(94.482422 0.423438)" xlink:href="#ArialMT-91"/>
      <use transform="translate(122.265625 0.423438)" xlink:href="#ArialMT-99"/>
      <use transform="translate(172.265625 0.423438)" xlink:href="#ArialMT-109"/>
      <use transform="translate(260.030547 38.6875)scale(0.7)" xlink:href="#ArialMT-51"/>
      <use transform="translate(334.602585 0.423438)" xlink:href="#ArialMT-109"/>
      <use transform="translate(417.903366 0.423438)" xlink:href="#ArialMT-111"/>
      <use transform="translate(473.518601 0.423438)" xlink:href="#ArialMT-108"/>
      <use transform="translate(500.199538 38.6875)scale(0.7)" xlink:href="#ArialMT-45"/>
      <use transform="translate(523.510085 38.6875)scale(0.7)" xlink:href="#ArialMT-49"/>
      <use transform="translate(568.818093 0.423438)" xlink:href="#ArialMT-93"/>
     </g>
    </g>
   </g>
   <g id="line2d_199">
    <path clip-path="url(#pd058b6503a)" d="M 45.782813 316.997318 
L 53.818013 316.593335 
L 63.192413 315.907012 
L 73.571213 314.921072 
L 84.284813 313.670763 
L 94.663612 312.234531 
L 104.707613 310.622399 
L 114.082013 308.90141 
L 123.121612 307.017997 
L 131.491613 305.046807 
L 138.857213 303.102227 
L 146.222813 300.927145 
L 152.584013 298.832238 
L 158.945212 296.502336 
L 164.636813 294.186257 
L 169.993612 291.774452 
L 175.015613 289.277635 
L 179.702812 286.712393 
L 184.390013 283.888311 
L 188.742413 281.004098 
L 193.094812 277.836855 
L 197.112413 274.6354 
L 201.130012 271.141238 
L 205.147613 267.332598 
L 209.165212 263.191855 
L 213.182813 258.708988 
L 217.200412 253.883997 
L 221.552812 248.282486 
L 225.905213 242.316043 
L 230.927212 235.0243 
L 236.284012 226.843724 
L 242.980012 216.186029 
L 252.689212 200.269985 
L 269.429213 172.827112 
L 278.468813 158.439569 
L 287.173612 144.990622 
L 295.543612 132.45228 
L 303.913612 120.290965 
L 312.618412 108.021484 
L 321.658013 95.656968 
L 331.032412 83.205366 
L 341.076412 70.241614 
L 351.455213 57.213584 
L 362.168812 44.114364 
L 373.886813 30.147393 
L 380.582813 22.32 
L 380.582813 22.32 
" style="fill:none;stroke:#1f77b4;stroke-linecap:square;stroke-width:1.5;"/>
   </g>
   <g id="line2d_200">
    <path clip-path="url(#pd058b6503a)" d="M 45.782813 316.610268 
L 59.174813 315.671672 
L 71.897213 314.564779 
L 84.284813 313.265397 
L 96.672413 311.736895 
L 108.390412 310.064633 
L 119.104012 308.321526 
L 129.482813 306.410121 
L 138.857213 304.465196 
L 147.562013 302.44286 
L 155.932012 300.268124 
L 163.632412 298.033947 
L 170.663212 295.765559 
L 177.359213 293.369305 
L 183.385613 290.985147 
L 189.412013 288.352171 
L 194.768812 285.773797 
L 200.125612 282.940039 
L 205.147613 280.02265 
L 209.834812 277.046513 
L 214.522012 273.800478 
L 218.874413 270.524377 
L 223.226812 266.978378 
L 227.579213 263.149349 
L 231.931612 259.030032 
L 236.618812 254.269319 
L 241.306013 249.180649 
L 246.328012 243.384923 
L 251.684812 236.84689 
L 257.711212 229.114532 
L 264.742012 219.701271 
L 274.116413 206.736137 
L 301.570012 168.525329 
L 311.614012 155.039405 
L 321.323212 142.375271 
L 331.032412 130.085746 
L 340.741612 118.160117 
L 350.785612 106.183688 
L 361.164413 94.16337 
L 372.212813 81.730084 
L 380.582813 72.537994 
L 380.582813 72.537994 
" style="fill:none;stroke:#ff7f0e;stroke-linecap:square;stroke-width:1.5;"/>
   </g>
   <g id="line2d_201">
    <path clip-path="url(#pd058b6503a)" d="M 45.782813 277.879361 
L 46.117613 277.429416 
L 46.787213 277.186473 
L 49.465613 276.95839 
L 86.628412 274.009554 
L 122.117213 270.968448 
L 155.262412 267.916628 
L 192.425212 264.24 
L 228.583612 260.396456 
L 259.050412 256.952404 
L 289.852013 253.28165 
L 321.658013 249.29711 
L 354.803212 244.944181 
L 380.582813 241.425828 
L 380.582813 241.425828 
" style="fill:none;stroke:#2ca02c;stroke-linecap:square;stroke-width:1.5;"/>
   </g>
   <g id="patch_3">
    <path d="M 45.782813 339.84 
L 45.782813 7.2 
" style="fill:none;stroke:#000000;stroke-linecap:square;stroke-linejoin:miter;stroke-width:0.8;"/>
   </g>
   <g id="patch_4">
    <path d="M 380.582812 339.84 
L 380.582812 7.2 
" style="fill:none;stroke:#000000;stroke-linecap:square;stroke-linejoin:miter;stroke-width:0.8;"/>
   </g>
   <g id="patch_5">
    <path d="M 45.782813 339.84 
L 380.582813 339.84 
" style="fill:none;stroke:#000000;stroke-linecap:square;stroke-linejoin:miter;stroke-width:0.8;"/>
   </g>
   <g id="patch_6">
    <path d="M 45.782813 7.2 
L 380.582813 7.2 
" style="fill:none;stroke:#000000;stroke-linecap:square;stroke-linejoin:miter;stroke-width:0.8;"/>
   </g>
   <g id="legend_1">
    <g id="patch_7">
     <path d="M 52.782813 57.875 
L 292.839062 57.875 
Q 294.839062 57.875 294.839062 55.875 
L 294.839062 14.2 
Q 294.839062 12.2 292.839062 12.2 
L 52.782813 12.2 
Q 50.782813 12.2 50.782813 14.2 
L 50.782813 55.875 
Q 50.782813 57.875 52.782813 57.875 
z
" style="fill:#ffffff;opacity:0.8;stroke:#cccccc;stroke-linejoin:miter;"/>
    </g>
    <g id="text_23">
     <!-- 1000 bar -->
     <g transform="translate(153.074219 23.357812)scale(0.1 -0.1)">
      <defs>
       <path d="M 14.703125 0 
L 6.546875 0 
L 6.546875 71.578125 
L 15.328125 71.578125 
L 15.328125 46.046875 
Q 20.90625 53.03125 29.546875 53.03125 
Q 34.328125 53.03125 38.59375 51.09375 
Q 42.875 49.171875 45.625 45.671875 
Q 48.390625 42.1875 49.953125 37.25 
Q 51.515625 32.328125 51.515625 26.703125 
Q 51.515625 13.375 44.921875 6.09375 
Q 38.328125 -1.171875 29.109375 -1.171875 
Q 19.921875 -1.171875 14.703125 6.5 
z
M 14.59375 26.3125 
Q 14.59375 17 17.140625 12.84375 
Q 21.296875 6.0625 28.375 6.0625 
Q 34.125 6.0625 38.328125 11.0625 
Q 42.53125 16.0625 42.53125 25.984375 
Q 42.53125 36.140625 38.5 40.96875 
Q 34.46875 45.796875 28.765625 45.796875 
Q 23 45.796875 18.796875 40.796875 
Q 14.59375 35.796875 14.59375 26.3125 
z
" id="ArialMT-98"/>
       <path d="M 40.4375 6.390625 
Q 35.546875 2.25 31.03125 0.53125 
Q 26.515625 -1.171875 21.34375 -1.171875 
Q 12.796875 -1.171875 8.203125 3 
Q 3.609375 7.171875 3.609375 13.671875 
Q 3.609375 17.484375 5.34375 20.625 
Q 7.078125 23.78125 9.890625 25.6875 
Q 12.703125 27.59375 16.21875 28.5625 
Q 18.796875 29.25 24.03125 29.890625 
Q 34.671875 31.15625 39.703125 32.90625 
Q 39.75 34.71875 39.75 35.203125 
Q 39.75 40.578125 37.25 42.78125 
Q 33.890625 45.75 27.25 45.75 
Q 21.046875 45.75 18.09375 43.578125 
Q 15.140625 41.40625 13.71875 35.890625 
L 5.125 37.0625 
Q 6.296875 42.578125 8.984375 45.96875 
Q 11.671875 49.359375 16.75 51.1875 
Q 21.828125 53.03125 28.515625 53.03125 
Q 35.15625 53.03125 39.296875 51.46875 
Q 43.453125 49.90625 45.40625 47.53125 
Q 47.359375 45.171875 48.140625 41.546875 
Q 48.578125 39.3125 48.578125 33.453125 
L 48.578125 21.734375 
Q 48.578125 9.46875 49.140625 6.21875 
Q 49.703125 2.984375 51.375 0 
L 42.1875 0 
Q 40.828125 2.734375 40.4375 6.390625 
z
M 39.703125 26.03125 
Q 34.90625 24.078125 25.34375 22.703125 
Q 19.921875 21.921875 17.671875 20.9375 
Q 15.4375 19.96875 14.203125 18.09375 
Q 12.984375 16.21875 12.984375 13.921875 
Q 12.984375 10.40625 15.640625 8.0625 
Q 18.3125 5.71875 23.4375 5.71875 
Q 28.515625 5.71875 32.46875 7.9375 
Q 36.421875 10.15625 38.28125 14.015625 
Q 39.703125 17 39.703125 22.796875 
z
" id="ArialMT-97"/>
       <path d="M 6.5 0 
L 6.5 51.859375 
L 14.40625 51.859375 
L 14.40625 44 
Q 17.4375 49.515625 20 51.265625 
Q 22.5625 53.03125 25.640625 53.03125 
Q 30.078125 53.03125 34.671875 50.203125 
L 31.640625 42.046875 
Q 28.421875 43.953125 25.203125 43.953125 
Q 22.3125 43.953125 20.015625 42.21875 
Q 17.71875 40.484375 16.75 37.40625 
Q 15.28125 32.71875 15.28125 27.15625 
L 15.28125 0 
z
" id="ArialMT-114"/>
      </defs>
      <use xlink:href="#ArialMT-49"/>
      <use x="55.615234" xlink:href="#ArialMT-48"/>
      <use x="111.230469" xlink:href="#ArialMT-48"/>
      <use x="166.845703" xlink:href="#ArialMT-48"/>
      <use x="222.460938" xlink:href="#ArialMT-32"/>
      <use x="250.244141" xlink:href="#ArialMT-98"/>
      <use x="305.859375" xlink:href="#ArialMT-97"/>
      <use x="361.474609" xlink:href="#ArialMT-114"/>
     </g>
    </g>
    <g id="line2d_202">
     <path d="M 54.782813 34.003125 
L 74.782813 34.003125 
" style="fill:none;stroke:#1f77b4;stroke-linecap:square;stroke-width:1.5;"/>
    </g>
    <g id="line2d_203"/>
    <g id="text_24">
     <!-- 0 wt.% NaCl -->
     <g transform="translate(82.782813 37.503125)scale(0.1 -0.1)">
      <defs>
       <path d="M 16.15625 0 
L 0.296875 51.859375 
L 9.375 51.859375 
L 17.625 21.921875 
L 20.703125 10.796875 
Q 20.90625 11.625 23.390625 21.484375 
L 31.640625 51.859375 
L 40.671875 51.859375 
L 48.4375 21.78125 
L 51.03125 11.859375 
L 54 21.875 
L 62.890625 51.859375 
L 71.4375 51.859375 
L 55.21875 0 
L 46.09375 0 
L 37.84375 31.0625 
L 35.84375 39.890625 
L 25.34375 0 
z
" id="ArialMT-119"/>
       <path d="M 25.78125 7.859375 
L 27.046875 0.09375 
Q 23.34375 -0.6875 20.40625 -0.6875 
Q 15.625 -0.6875 12.984375 0.828125 
Q 10.359375 2.34375 9.28125 4.8125 
Q 8.203125 7.28125 8.203125 15.1875 
L 8.203125 45.015625 
L 1.765625 45.015625 
L 1.765625 51.859375 
L 8.203125 51.859375 
L 8.203125 64.703125 
L 16.9375 69.96875 
L 16.9375 51.859375 
L 25.78125 51.859375 
L 25.78125 45.015625 
L 16.9375 45.015625 
L 16.9375 14.703125 
Q 16.9375 10.9375 17.40625 9.859375 
Q 17.875 8.796875 18.921875 8.15625 
Q 19.96875 7.515625 21.921875 7.515625 
Q 23.390625 7.515625 25.78125 7.859375 
z
" id="ArialMT-116"/>
       <path d="M 9.078125 0 
L 9.078125 10.015625 
L 19.09375 10.015625 
L 19.09375 0 
z
" id="ArialMT-46"/>
       <path d="M 5.8125 54.390625 
Q 5.8125 62.0625 9.671875 67.421875 
Q 13.53125 72.796875 20.84375 72.796875 
Q 27.59375 72.796875 32 67.984375 
Q 36.421875 63.1875 36.421875 53.859375 
Q 36.421875 44.78125 31.953125 39.875 
Q 27.484375 34.96875 20.953125 34.96875 
Q 14.453125 34.96875 10.125 39.796875 
Q 5.8125 44.625 5.8125 54.390625 
z
M 21.09375 66.75 
Q 17.828125 66.75 15.65625 63.90625 
Q 13.484375 61.078125 13.484375 53.515625 
Q 13.484375 46.625 15.671875 43.8125 
Q 17.875 41.015625 21.09375 41.015625 
Q 24.421875 41.015625 26.59375 43.84375 
Q 28.765625 46.6875 28.765625 54.203125 
Q 28.765625 61.140625 26.5625 63.9375 
Q 24.359375 66.75 21.09375 66.75 
z
M 21.140625 -2.640625 
L 60.296875 72.796875 
L 67.4375 72.796875 
L 28.421875 -2.640625 
z
M 52.09375 16.796875 
Q 52.09375 24.515625 55.953125 29.859375 
Q 59.8125 35.203125 67.1875 35.203125 
Q 73.921875 35.203125 78.34375 30.390625 
Q 82.765625 25.59375 82.765625 16.265625 
Q 82.765625 7.171875 78.296875 2.265625 
Q 73.828125 -2.640625 67.234375 -2.640625 
Q 60.75 -2.640625 56.421875 2.21875 
Q 52.09375 7.078125 52.09375 16.796875 
z
M 67.4375 29.15625 
Q 64.109375 29.15625 61.9375 26.3125 
Q 59.765625 23.484375 59.765625 15.921875 
Q 59.765625 9.078125 61.953125 6.25 
Q 64.15625 3.421875 67.390625 3.421875 
Q 70.75 3.421875 72.921875 6.25 
Q 75.09375 9.078125 75.09375 16.609375 
Q 75.09375 23.53125 72.890625 26.34375 
Q 70.703125 29.15625 67.4375 29.15625 
z
" id="ArialMT-37"/>
       <path d="M 7.625 0 
L 7.625 71.578125 
L 17.328125 71.578125 
L 54.9375 15.375 
L 54.9375 71.578125 
L 64.015625 71.578125 
L 64.015625 0 
L 54.296875 0 
L 16.703125 56.25 
L 16.703125 0 
z
" id="ArialMT-78"/>
      </defs>
      <use xlink:href="#ArialMT-48"/>
      <use x="55.615234" xlink:href="#ArialMT-32"/>
      <use x="83.398438" xlink:href="#ArialMT-119"/>
      <use x="155.615234" xlink:href="#ArialMT-116"/>
      <use x="183.398438" xlink:href="#ArialMT-46"/>
      <use x="211.181641" xlink:href="#ArialMT-37"/>
      <use x="300.097656" xlink:href="#ArialMT-32"/>
      <use x="327.880859" xlink:href="#ArialMT-78"/>
      <use x="400.097656" xlink:href="#ArialMT-97"/>
      <use x="455.712891" xlink:href="#ArialMT-67"/>
      <use x="527.929688" xlink:href="#ArialMT-108"/>
     </g>
    </g>
    <g id="line2d_204">
     <path d="M 54.782813 48.148437 
L 74.782813 48.148437 
" style="fill:none;stroke:#ff7f0e;stroke-linecap:square;stroke-width:1.5;"/>
    </g>
    <g id="line2d_205"/>
    <g id="text_25">
     <!-- 10 wt.% NaCl -->
     <g transform="translate(82.782813 51.648437)scale(0.1 -0.1)">
      <use xlink:href="#ArialMT-49"/>
      <use x="55.615234" xlink:href="#ArialMT-48"/>
      <use x="111.230469" xlink:href="#ArialMT-32"/>
      <use x="139.013672" xlink:href="#ArialMT-119"/>
      <use x="211.230469" xlink:href="#ArialMT-116"/>
      <use x="239.013672" xlink:href="#ArialMT-46"/>
      <use x="266.796875" xlink:href="#ArialMT-37"/>
      <use x="355.712891" xlink:href="#ArialMT-32"/>
      <use x="383.496094" xlink:href="#ArialMT-78"/>
      <use x="455.712891" xlink:href="#ArialMT-97"/>
      <use x="511.328125" xlink:href="#ArialMT-67"/>
      <use x="583.544922" xlink:href="#ArialMT-108"/>
     </g>
    </g>
    <g id="line2d_206">
     <path d="M 163.357813 34.003125 
L 183.357813 34.003125 
" style="fill:none;stroke:#2ca02c;stroke-linecap:square;stroke-width:1.5;"/>
    </g>
    <g id="line2d_207"/>
    <g id="text_26">
     <!-- 100 wt.% NaCl -->
     <g transform="translate(191.357813 37.503125)scale(0.1 -0.1)">
      <use xlink:href="#ArialMT-49"/>
      <use x="55.615234" xlink:href="#ArialMT-48"/>
      <use x="111.230469" xlink:href="#ArialMT-48"/>
      <use x="166.845703" xlink:href="#ArialMT-32"/>
      <use x="194.628906" xlink:href="#ArialMT-119"/>
      <use x="266.845703" xlink:href="#ArialMT-116"/>
      <use x="294.628906" xlink:href="#ArialMT-46"/>
      <use x="322.412109" xlink:href="#ArialMT-37"/>
      <use x="411.328125" xlink:href="#ArialMT-32"/>
      <use x="439.111328" xlink:href="#ArialMT-78"/>
      <use x="511.328125" xlink:href="#ArialMT-97"/>
      <use x="566.943359" xlink:href="#ArialMT-67"/>
      <use x="639.160156" xlink:href="#ArialMT-108"/>
     </g>
    </g>
    <g id="patch_8">
     <path d="M 163.357813 51.770312 
L 183.357813 51.770312 
L 183.357813 44.770312 
L 163.357813 44.770312 
z
" style="fill:#d3d3d3;opacity:0.5;stroke:#d3d3d3;stroke-linejoin:miter;"/>
    </g>
    <g id="text_27">
     <!-- Fig. 2 (Driesner, 2007) -->
     <g transform="translate(191.357813 51.770312)scale(0.1 -0.1)">
      <defs>
       <path d="M 8.203125 0 
L 8.203125 71.578125 
L 56.5 71.578125 
L 56.5 63.140625 
L 17.671875 63.140625 
L 17.671875 40.96875 
L 51.265625 40.96875 
L 51.265625 32.515625 
L 17.671875 32.515625 
L 17.671875 0 
z
" id="ArialMT-70"/>
       <path d="M 6.640625 61.46875 
L 6.640625 71.578125 
L 15.4375 71.578125 
L 15.4375 61.46875 
z
M 6.640625 0 
L 6.640625 51.859375 
L 15.4375 51.859375 
L 15.4375 0 
z
" id="ArialMT-105"/>
       <path d="M 4.984375 -4.296875 
L 13.53125 -5.5625 
Q 14.0625 -9.515625 16.5 -11.328125 
Q 19.78125 -13.765625 25.4375 -13.765625 
Q 31.546875 -13.765625 34.859375 -11.328125 
Q 38.1875 -8.890625 39.359375 -4.5 
Q 40.046875 -1.8125 39.984375 6.78125 
Q 34.234375 0 25.640625 0 
Q 14.9375 0 9.078125 7.71875 
Q 3.21875 15.4375 3.21875 26.21875 
Q 3.21875 33.640625 5.90625 39.90625 
Q 8.59375 46.1875 13.6875 49.609375 
Q 18.796875 53.03125 25.6875 53.03125 
Q 34.859375 53.03125 40.828125 45.609375 
L 40.828125 51.859375 
L 48.921875 51.859375 
L 48.921875 7.03125 
Q 48.921875 -5.078125 46.453125 -10.125 
Q 44 -15.1875 38.640625 -18.109375 
Q 33.296875 -21.046875 25.484375 -21.046875 
Q 16.21875 -21.046875 10.5 -16.875 
Q 4.78125 -12.703125 4.984375 -4.296875 
z
M 12.25 26.859375 
Q 12.25 16.65625 16.296875 11.96875 
Q 20.359375 7.28125 26.46875 7.28125 
Q 32.515625 7.28125 36.609375 11.9375 
Q 40.71875 16.609375 40.71875 26.5625 
Q 40.71875 36.078125 36.5 40.90625 
Q 32.28125 45.75 26.3125 45.75 
Q 20.453125 45.75 16.34375 40.984375 
Q 12.25 36.234375 12.25 26.859375 
z
" id="ArialMT-103"/>
       <path d="M 23.390625 -21.046875 
Q 16.109375 -11.859375 11.078125 0.4375 
Q 6.0625 12.75 6.0625 25.921875 
Q 6.0625 37.546875 9.8125 48.1875 
Q 14.203125 60.546875 23.390625 72.796875 
L 29.6875 72.796875 
Q 23.78125 62.640625 21.875 58.296875 
Q 18.890625 51.5625 17.1875 44.234375 
Q 15.09375 35.109375 15.09375 25.875 
Q 15.09375 2.390625 29.6875 -21.046875 
z
" id="ArialMT-40"/>
       <path d="M 7.71875 0 
L 7.71875 71.578125 
L 32.375 71.578125 
Q 40.71875 71.578125 45.125 70.5625 
Q 51.265625 69.140625 55.609375 65.4375 
Q 61.28125 60.640625 64.078125 53.1875 
Q 66.890625 45.75 66.890625 36.1875 
Q 66.890625 28.03125 64.984375 21.734375 
Q 63.09375 15.4375 60.109375 11.296875 
Q 57.125 7.171875 53.578125 4.796875 
Q 50.046875 2.4375 45.046875 1.21875 
Q 40.046875 0 33.546875 0 
z
M 17.1875 8.453125 
L 32.46875 8.453125 
Q 39.546875 8.453125 43.578125 9.765625 
Q 47.609375 11.078125 50 13.484375 
Q 53.375 16.84375 55.25 22.53125 
Q 57.125 28.21875 57.125 36.328125 
Q 57.125 47.5625 53.4375 53.59375 
Q 49.75 59.625 44.484375 61.671875 
Q 40.671875 63.140625 32.234375 63.140625 
L 17.1875 63.140625 
z
" id="ArialMT-68"/>
       <path d="M 42.09375 16.703125 
L 51.171875 15.578125 
Q 49.03125 7.625 43.21875 3.21875 
Q 37.40625 -1.171875 28.375 -1.171875 
Q 17 -1.171875 10.328125 5.828125 
Q 3.65625 12.84375 3.65625 25.484375 
Q 3.65625 38.578125 10.390625 45.796875 
Q 17.140625 53.03125 27.875 53.03125 
Q 38.28125 53.03125 44.875 45.953125 
Q 51.46875 38.875 51.46875 26.03125 
Q 51.46875 25.25 51.421875 23.6875 
L 12.75 23.6875 
Q 13.234375 15.140625 17.578125 10.59375 
Q 21.921875 6.0625 28.421875 6.0625 
Q 33.25 6.0625 36.671875 8.59375 
Q 40.09375 11.140625 42.09375 16.703125 
z
M 13.234375 30.90625 
L 42.1875 30.90625 
Q 41.609375 37.453125 38.875 40.71875 
Q 34.671875 45.796875 27.984375 45.796875 
Q 21.921875 45.796875 17.796875 41.75 
Q 13.671875 37.703125 13.234375 30.90625 
z
" id="ArialMT-101"/>
       <path d="M 3.078125 15.484375 
L 11.765625 16.84375 
Q 12.5 11.625 15.84375 8.84375 
Q 19.1875 6.0625 25.203125 6.0625 
Q 31.25 6.0625 34.171875 8.515625 
Q 37.109375 10.984375 37.109375 14.3125 
Q 37.109375 17.28125 34.515625 19 
Q 32.71875 20.171875 25.53125 21.96875 
Q 15.875 24.421875 12.140625 26.203125 
Q 8.40625 27.984375 6.46875 31.125 
Q 4.546875 34.28125 4.546875 38.09375 
Q 4.546875 41.546875 6.125 44.5 
Q 7.71875 47.46875 10.453125 49.421875 
Q 12.5 50.921875 16.03125 51.96875 
Q 19.578125 53.03125 23.640625 53.03125 
Q 29.734375 53.03125 34.34375 51.265625 
Q 38.96875 49.515625 41.15625 46.5 
Q 43.359375 43.5 44.1875 38.484375 
L 35.59375 37.3125 
Q 35.015625 41.3125 32.203125 43.546875 
Q 29.390625 45.796875 24.265625 45.796875 
Q 18.21875 45.796875 15.625 43.796875 
Q 13.03125 41.796875 13.03125 39.109375 
Q 13.03125 37.40625 14.109375 36.03125 
Q 15.1875 34.625 17.484375 33.6875 
Q 18.796875 33.203125 25.25 31.453125 
Q 34.578125 28.953125 38.25 27.359375 
Q 41.9375 25.78125 44.03125 22.75 
Q 46.140625 19.734375 46.140625 15.234375 
Q 46.140625 10.84375 43.578125 6.953125 
Q 41.015625 3.078125 36.171875 0.953125 
Q 31.34375 -1.171875 25.25 -1.171875 
Q 15.140625 -1.171875 9.84375 3.03125 
Q 4.546875 7.234375 3.078125 15.484375 
z
" id="ArialMT-115"/>
       <path d="M 6.59375 0 
L 6.59375 51.859375 
L 14.5 51.859375 
L 14.5 44.484375 
Q 20.21875 53.03125 31 53.03125 
Q 35.6875 53.03125 39.625 51.34375 
Q 43.5625 49.65625 45.515625 46.921875 
Q 47.46875 44.1875 48.25 40.4375 
Q 48.734375 37.984375 48.734375 31.890625 
L 48.734375 0 
L 39.9375 0 
L 39.9375 31.546875 
Q 39.9375 36.921875 38.90625 39.578125 
Q 37.890625 42.234375 35.28125 43.8125 
Q 32.671875 45.40625 29.15625 45.40625 
Q 23.53125 45.40625 19.453125 41.84375 
Q 15.375 38.28125 15.375 28.328125 
L 15.375 0 
z
" id="ArialMT-110"/>
       <path d="M 8.890625 0 
L 8.890625 10.015625 
L 18.890625 10.015625 
L 18.890625 0 
Q 18.890625 -5.515625 16.9375 -8.90625 
Q 14.984375 -12.3125 10.75 -14.15625 
L 8.296875 -10.40625 
Q 11.078125 -9.1875 12.390625 -6.8125 
Q 13.71875 -4.4375 13.875 0 
z
" id="ArialMT-44"/>
       <path d="M 12.359375 -21.046875 
L 6.0625 -21.046875 
Q 20.65625 2.390625 20.65625 25.875 
Q 20.65625 35.0625 18.5625 44.09375 
Q 16.890625 51.421875 13.921875 58.15625 
Q 12.015625 62.546875 6.0625 72.796875 
L 12.359375 72.796875 
Q 21.53125 60.546875 25.921875 48.1875 
Q 29.6875 37.546875 29.6875 25.921875 
Q 29.6875 12.75 24.625 0.4375 
Q 19.578125 -11.859375 12.359375 -21.046875 
z
" id="ArialMT-41"/>
      </defs>
      <use xlink:href="#ArialMT-70"/>
      <use x="61.083984" xlink:href="#ArialMT-105"/>
      <use x="83.300781" xlink:href="#ArialMT-103"/>
      <use x="138.916016" xlink:href="#ArialMT-46"/>
      <use x="166.699219" xlink:href="#ArialMT-32"/>
      <use x="194.482422" xlink:href="#ArialMT-50"/>
      <use x="250.097656" xlink:href="#ArialMT-32"/>
      <use x="277.880859" xlink:href="#ArialMT-40"/>
      <use x="311.181641" xlink:href="#ArialMT-68"/>
      <use x="383.398438" xlink:href="#ArialMT-114"/>
      <use x="416.699219" xlink:href="#ArialMT-105"/>
      <use x="438.916016" xlink:href="#ArialMT-101"/>
      <use x="494.53125" xlink:href="#ArialMT-115"/>
      <use x="544.53125" xlink:href="#ArialMT-110"/>
      <use x="600.146484" xlink:href="#ArialMT-101"/>
      <use x="655.761719" xlink:href="#ArialMT-114"/>
      <use x="683.5625" xlink:href="#ArialMT-44"/>
      <use x="711.345703" xlink:href="#ArialMT-32"/>
      <use x="739.128906" xlink:href="#ArialMT-50"/>
      <use x="794.744141" xlink:href="#ArialMT-48"/>
      <use x="850.359375" xlink:href="#ArialMT-48"/>
      <use x="905.974609" xlink:href="#ArialMT-55"/>
      <use x="961.589844" xlink:href="#ArialMT-41"/>
     </g>
    </g>
   </g>
  </g>
 </g>
 <defs>
  <clipPath id="pd058b6503a">
   <rect height="332.64" width="334.8" x="45.782813" y="7.2"/>
  </clipPath>
 </defs>
</svg>
