<?xml version="1.0" encoding="utf-8" standalone="no"?>
<!DOCTYPE svg PUBLIC "-//W3C//DTD SVG 1.1//EN"
  "http://www.w3.org/Graphics/SVG/1.1/DTD/svg11.dtd">
<!-- Created with matplotlib (https://matplotlib.org/) -->
<svg height="376.485313pt" version="1.1" viewBox="0 0 415.551562 376.485313" width="415.551562pt" xmlns="http://www.w3.org/2000/svg" xmlns:xlink="http://www.w3.org/1999/xlink">
 <metadata>
  <rdf:RDF xmlns:cc="http://creativecommons.org/ns#" xmlns:dc="http://purl.org/dc/elements/1.1/" xmlns:rdf="http://www.w3.org/1999/02/22-rdf-syntax-ns#">
   <cc:Work>
    <dc:type rdf:resource="http://purl.org/dc/dcmitype/StillImage"/>
    <dc:date>2020-11-17T01:14:39.932944</dc:date>
    <dc:format>image/svg+xml</dc:format>
    <dc:creator>
     <cc:Agent>
      <dc:title>Matplotlib v3.3.2, https://matplotlib.org/</dc:title>
     </cc:Agent>
    </dc:creator>
   </cc:Work>
  </rdf:RDF>
 </metadata>
 <defs>
  <style type="text/css">*{stroke-linecap:butt;stroke-linejoin:round;}</style>
 </defs>
 <g id="figure_1">
  <g id="patch_1">
   <path d="M 0 376.485313 
L 415.551562 376.485313 
L 415.551562 0 
L 0 0 
z
" style="fill:#ffffff;"/>
  </g>
  <g id="axes_1">
   <g id="patch_2">
    <path d="M 44.307813 339.84 
L 379.107813 339.84 
L 379.107813 7.2 
L 44.307813 7.2 
z
" style="fill:#ffffff;"/>
   </g>
   <g id="matplotlib.axis_1">
    <g id="xtick_1">
     <g id="line2d_1">
      <defs>
       <path d="M 0 0 
L 0 3.5 
" id="mfeb5536f39" style="stroke:#000000;stroke-width:0.8;"/>
      </defs>
      <g>
       <use style="stroke:#000000;stroke-width:0.8;" x="59.525994" xlink:href="#mfeb5536f39" y="339.84"/>
      </g>
     </g>
     <g id="text_1">
      <!-- 0 -->
      <g transform="translate(56.745526 353.997813)scale(0.1 -0.1)">
       <defs>
        <path d="M 4.15625 35.296875 
Q 4.15625 48 6.765625 55.734375 
Q 9.375 63.484375 14.515625 67.671875 
Q 19.671875 71.875 27.484375 71.875 
Q 33.25 71.875 37.59375 69.546875 
Q 41.9375 67.234375 44.765625 62.859375 
Q 47.609375 58.5 49.21875 52.21875 
Q 50.828125 45.953125 50.828125 35.296875 
Q 50.828125 22.703125 48.234375 14.96875 
Q 45.65625 7.234375 40.5 3 
Q 35.359375 -1.21875 27.484375 -1.21875 
Q 17.140625 -1.21875 11.234375 6.203125 
Q 4.15625 15.140625 4.15625 35.296875 
z
M 13.1875 35.296875 
Q 13.1875 17.671875 17.3125 11.828125 
Q 21.4375 6 27.484375 6 
Q 33.546875 6 37.671875 11.859375 
Q 41.796875 17.71875 41.796875 35.296875 
Q 41.796875 52.984375 37.671875 58.78125 
Q 33.546875 64.59375 27.390625 64.59375 
Q 21.34375 64.59375 17.71875 59.46875 
Q 13.1875 52.9375 13.1875 35.296875 
z
" id="ArialMT-48"/>
       </defs>
       <use xlink:href="#ArialMT-48"/>
      </g>
     </g>
    </g>
    <g id="xtick_2">
     <g id="line2d_2">
      <g>
       <use style="stroke:#000000;stroke-width:0.8;" x="100.222196" xlink:href="#mfeb5536f39" y="339.84"/>
      </g>
     </g>
     <g id="text_2">
      <!-- 50 -->
      <g transform="translate(94.661258 353.997813)scale(0.1 -0.1)">
       <defs>
        <path d="M 4.15625 18.75 
L 13.375 19.53125 
Q 14.40625 12.796875 18.140625 9.390625 
Q 21.875 6 27.15625 6 
Q 33.5 6 37.890625 10.78125 
Q 42.28125 15.578125 42.28125 23.484375 
Q 42.28125 31 38.0625 35.34375 
Q 33.84375 39.703125 27 39.703125 
Q 22.75 39.703125 19.328125 37.765625 
Q 15.921875 35.84375 13.96875 32.765625 
L 5.71875 33.84375 
L 12.640625 70.609375 
L 48.25 70.609375 
L 48.25 62.203125 
L 19.671875 62.203125 
L 15.828125 42.96875 
Q 22.265625 47.46875 29.34375 47.46875 
Q 38.71875 47.46875 45.15625 40.96875 
Q 51.609375 34.46875 51.609375 24.265625 
Q 51.609375 14.546875 45.953125 7.46875 
Q 39.0625 -1.21875 27.15625 -1.21875 
Q 17.390625 -1.21875 11.203125 4.25 
Q 5.03125 9.71875 4.15625 18.75 
z
" id="ArialMT-53"/>
       </defs>
       <use xlink:href="#ArialMT-53"/>
       <use x="55.615234" xlink:href="#ArialMT-48"/>
      </g>
     </g>
    </g>
    <g id="xtick_3">
     <g id="line2d_3">
      <g>
       <use style="stroke:#000000;stroke-width:0.8;" x="140.918398" xlink:href="#mfeb5536f39" y="339.84"/>
      </g>
     </g>
     <g id="text_3">
      <!-- 100 -->
      <g transform="translate(132.576991 353.997813)scale(0.1 -0.1)">
       <defs>
        <path d="M 37.25 0 
L 28.46875 0 
L 28.46875 56 
Q 25.296875 52.984375 20.140625 49.953125 
Q 14.984375 46.921875 10.890625 45.40625 
L 10.890625 53.90625 
Q 18.265625 57.375 23.78125 62.296875 
Q 29.296875 67.234375 31.59375 71.875 
L 37.25 71.875 
z
" id="ArialMT-49"/>
       </defs>
       <use xlink:href="#ArialMT-49"/>
       <use x="55.615234" xlink:href="#ArialMT-48"/>
       <use x="111.230469" xlink:href="#ArialMT-48"/>
      </g>
     </g>
    </g>
    <g id="xtick_4">
     <g id="line2d_4">
      <g>
       <use style="stroke:#000000;stroke-width:0.8;" x="181.614599" xlink:href="#mfeb5536f39" y="339.84"/>
      </g>
     </g>
     <g id="text_4">
      <!-- 150 -->
      <g transform="translate(173.273193 353.997813)scale(0.1 -0.1)">
       <use xlink:href="#ArialMT-49"/>
       <use x="55.615234" xlink:href="#ArialMT-53"/>
       <use x="111.230469" xlink:href="#ArialMT-48"/>
      </g>
     </g>
    </g>
    <g id="xtick_5">
     <g id="line2d_5">
      <g>
       <use style="stroke:#000000;stroke-width:0.8;" x="222.310801" xlink:href="#mfeb5536f39" y="339.84"/>
      </g>
     </g>
     <g id="text_5">
      <!-- 200 -->
      <g transform="translate(213.969395 353.997813)scale(0.1 -0.1)">
       <defs>
        <path d="M 50.34375 8.453125 
L 50.34375 0 
L 3.03125 0 
Q 2.9375 3.171875 4.046875 6.109375 
Q 5.859375 10.9375 9.828125 15.625 
Q 13.8125 20.3125 21.34375 26.46875 
Q 33.015625 36.03125 37.109375 41.625 
Q 41.21875 47.21875 41.21875 52.203125 
Q 41.21875 57.421875 37.46875 61 
Q 33.734375 64.59375 27.734375 64.59375 
Q 21.390625 64.59375 17.578125 60.78125 
Q 13.765625 56.984375 13.71875 50.25 
L 4.6875 51.171875 
Q 5.609375 61.28125 11.65625 66.578125 
Q 17.71875 71.875 27.9375 71.875 
Q 38.234375 71.875 44.234375 66.15625 
Q 50.25 60.453125 50.25 52 
Q 50.25 47.703125 48.484375 43.546875 
Q 46.734375 39.40625 42.65625 34.8125 
Q 38.578125 30.21875 29.109375 22.21875 
Q 21.1875 15.578125 18.9375 13.203125 
Q 16.703125 10.84375 15.234375 8.453125 
z
" id="ArialMT-50"/>
       </defs>
       <use xlink:href="#ArialMT-50"/>
       <use x="55.615234" xlink:href="#ArialMT-48"/>
       <use x="111.230469" xlink:href="#ArialMT-48"/>
      </g>
     </g>
    </g>
    <g id="xtick_6">
     <g id="line2d_6">
      <g>
       <use style="stroke:#000000;stroke-width:0.8;" x="263.007003" xlink:href="#mfeb5536f39" y="339.84"/>
      </g>
     </g>
     <g id="text_6">
      <!-- 250 -->
      <g transform="translate(254.665596 353.997813)scale(0.1 -0.1)">
       <use xlink:href="#ArialMT-50"/>
       <use x="55.615234" xlink:href="#ArialMT-53"/>
       <use x="111.230469" xlink:href="#ArialMT-48"/>
      </g>
     </g>
    </g>
    <g id="xtick_7">
     <g id="line2d_7">
      <g>
       <use style="stroke:#000000;stroke-width:0.8;" x="303.703204" xlink:href="#mfeb5536f39" y="339.84"/>
      </g>
     </g>
     <g id="text_7">
      <!-- 300 -->
      <g transform="translate(295.361798 353.997813)scale(0.1 -0.1)">
       <defs>
        <path d="M 4.203125 18.890625 
L 12.984375 20.0625 
Q 14.5 12.59375 18.140625 9.296875 
Q 21.78125 6 27 6 
Q 33.203125 6 37.46875 10.296875 
Q 41.75 14.59375 41.75 20.953125 
Q 41.75 27 37.796875 30.921875 
Q 33.84375 34.859375 27.734375 34.859375 
Q 25.25 34.859375 21.53125 33.890625 
L 22.515625 41.609375 
Q 23.390625 41.5 23.921875 41.5 
Q 29.546875 41.5 34.03125 44.421875 
Q 38.53125 47.359375 38.53125 53.46875 
Q 38.53125 58.296875 35.25 61.46875 
Q 31.984375 64.65625 26.8125 64.65625 
Q 21.6875 64.65625 18.265625 61.421875 
Q 14.84375 58.203125 13.875 51.765625 
L 5.078125 53.328125 
Q 6.6875 62.15625 12.390625 67.015625 
Q 18.109375 71.875 26.609375 71.875 
Q 32.46875 71.875 37.390625 69.359375 
Q 42.328125 66.84375 44.9375 62.5 
Q 47.5625 58.15625 47.5625 53.265625 
Q 47.5625 48.640625 45.0625 44.828125 
Q 42.578125 41.015625 37.703125 38.765625 
Q 44.046875 37.3125 47.5625 32.6875 
Q 51.078125 28.078125 51.078125 21.140625 
Q 51.078125 11.765625 44.234375 5.25 
Q 37.40625 -1.265625 26.953125 -1.265625 
Q 17.53125 -1.265625 11.296875 4.34375 
Q 5.078125 9.96875 4.203125 18.890625 
z
" id="ArialMT-51"/>
       </defs>
       <use xlink:href="#ArialMT-51"/>
       <use x="55.615234" xlink:href="#ArialMT-48"/>
       <use x="111.230469" xlink:href="#ArialMT-48"/>
      </g>
     </g>
    </g>
    <g id="xtick_8">
     <g id="line2d_8">
      <g>
       <use style="stroke:#000000;stroke-width:0.8;" x="344.399406" xlink:href="#mfeb5536f39" y="339.84"/>
      </g>
     </g>
     <g id="text_8">
      <!-- 350 -->
      <g transform="translate(336.058 353.997813)scale(0.1 -0.1)">
       <use xlink:href="#ArialMT-51"/>
       <use x="55.615234" xlink:href="#ArialMT-53"/>
       <use x="111.230469" xlink:href="#ArialMT-48"/>
      </g>
     </g>
    </g>
    <g id="text_9">
     <!-- T [$^{\circ}$C] -->
     <g transform="translate(198.557813 367.285313)scale(0.1 -0.1)">
      <defs>
       <path d="M 25.921875 0 
L 25.921875 63.140625 
L 2.34375 63.140625 
L 2.34375 71.578125 
L 59.078125 71.578125 
L 59.078125 63.140625 
L 35.40625 63.140625 
L 35.40625 0 
z
" id="ArialMT-84"/>
       <path id="ArialMT-32"/>
       <path d="M 6.78125 -19.875 
L 6.78125 71.578125 
L 26.171875 71.578125 
L 26.171875 64.3125 
L 15.578125 64.3125 
L 15.578125 -12.59375 
L 26.171875 -12.59375 
L 26.171875 -19.875 
z
" id="ArialMT-91"/>
       <path d="M 25 5.609375 
Q 19.828125 5.609375 15.359375 8.21875 
Q 10.890625 10.84375 8.25 15.375 
Q 5.609375 19.921875 5.609375 25 
Q 5.609375 30.078125 8.25 34.609375 
Q 10.890625 39.15625 15.359375 41.765625 
Q 19.828125 44.390625 25 44.390625 
Q 30.171875 44.390625 34.609375 41.75 
Q 39.0625 39.109375 41.671875 34.59375 
Q 44.28125 30.078125 44.28125 25 
Q 44.28125 19.921875 41.671875 15.40625 
Q 39.0625 10.890625 34.609375 8.25 
Q 30.171875 5.609375 25 5.609375 
z
M 25 9.625 
Q 31.25 9.625 35.765625 14.1875 
Q 40.28125 18.75 40.28125 25 
Q 40.28125 29 38.203125 32.59375 
Q 36.140625 36.1875 32.625 38.28125 
Q 29.109375 40.375 25 40.375 
Q 21.921875 40.375 19.140625 39.171875 
Q 16.359375 37.984375 14.15625 35.78125 
Q 11.96875 33.59375 10.796875 30.828125 
Q 9.625 28.078125 9.625 25 
Q 9.625 18.75 14.140625 14.1875 
Q 18.65625 9.625 25 9.625 
z
" id="Cmsy10-177"/>
       <path d="M 58.796875 25.09375 
L 68.265625 22.703125 
Q 65.28125 11.03125 57.546875 4.90625 
Q 49.8125 -1.21875 38.625 -1.21875 
Q 27.046875 -1.21875 19.796875 3.484375 
Q 12.546875 8.203125 8.765625 17.140625 
Q 4.984375 26.078125 4.984375 36.328125 
Q 4.984375 47.515625 9.25 55.828125 
Q 13.53125 64.15625 21.40625 68.46875 
Q 29.296875 72.796875 38.765625 72.796875 
Q 49.515625 72.796875 56.828125 67.328125 
Q 64.15625 61.859375 67.046875 51.953125 
L 57.71875 49.75 
Q 55.21875 57.5625 50.484375 61.125 
Q 45.75 64.703125 38.578125 64.703125 
Q 30.328125 64.703125 24.78125 60.734375 
Q 19.234375 56.78125 16.984375 50.109375 
Q 14.75 43.453125 14.75 36.375 
Q 14.75 27.25 17.40625 20.4375 
Q 20.0625 13.625 25.671875 10.25 
Q 31.296875 6.890625 37.84375 6.890625 
Q 45.796875 6.890625 51.3125 11.46875 
Q 56.84375 16.0625 58.796875 25.09375 
z
" id="ArialMT-67"/>
       <path d="M 21.296875 -19.875 
L 1.90625 -19.875 
L 1.90625 -12.59375 
L 12.5 -12.59375 
L 12.5 64.3125 
L 1.90625 64.3125 
L 1.90625 71.578125 
L 21.296875 71.578125 
z
" id="ArialMT-93"/>
      </defs>
      <use transform="translate(0 0.203125)" xlink:href="#ArialMT-84"/>
      <use transform="translate(61.083984 0.203125)" xlink:href="#ArialMT-32"/>
      <use transform="translate(88.867188 0.203125)" xlink:href="#ArialMT-91"/>
      <use transform="translate(121.114531 38.467188)scale(0.7)" xlink:href="#Cmsy10-177"/>
      <use transform="translate(162.491875 0.203125)" xlink:href="#ArialMT-67"/>
      <use transform="translate(234.708672 0.203125)" xlink:href="#ArialMT-93"/>
     </g>
    </g>
   </g>
   <g id="matplotlib.axis_2">
    <g id="ytick_1">
     <g id="line2d_9">
      <defs>
       <path d="M 0 0 
L -3.5 0 
" id="ma39d02a068" style="stroke:#000000;stroke-width:0.8;"/>
      </defs>
      <g>
       <use style="stroke:#000000;stroke-width:0.8;" x="44.307813" xlink:href="#ma39d02a068" y="291.687098"/>
      </g>
     </g>
     <g id="text_10">
      <!-- −50 -->
      <g transform="translate(20.345313 295.266004)scale(0.1 -0.1)">
       <defs>
        <path d="M 52.828125 31.203125 
L 5.5625 31.203125 
L 5.5625 39.40625 
L 52.828125 39.40625 
z
" id="ArialMT-8722"/>
       </defs>
       <use xlink:href="#ArialMT-8722"/>
       <use x="58.398438" xlink:href="#ArialMT-53"/>
       <use x="114.013672" xlink:href="#ArialMT-48"/>
      </g>
     </g>
    </g>
    <g id="ytick_2">
     <g id="line2d_10">
      <g>
       <use style="stroke:#000000;stroke-width:0.8;" x="44.307813" xlink:href="#ma39d02a068" y="241.922263"/>
      </g>
     </g>
     <g id="text_11">
      <!-- 0 -->
      <g transform="translate(31.746875 245.501169)scale(0.1 -0.1)">
       <use xlink:href="#ArialMT-48"/>
      </g>
     </g>
    </g>
    <g id="ytick_3">
     <g id="line2d_11">
      <g>
       <use style="stroke:#000000;stroke-width:0.8;" x="44.307813" xlink:href="#ma39d02a068" y="192.157428"/>
      </g>
     </g>
     <g id="text_12">
      <!-- 50 -->
      <g transform="translate(26.185938 195.736335)scale(0.1 -0.1)">
       <use xlink:href="#ArialMT-53"/>
       <use x="55.615234" xlink:href="#ArialMT-48"/>
      </g>
     </g>
    </g>
    <g id="ytick_4">
     <g id="line2d_12">
      <g>
       <use style="stroke:#000000;stroke-width:0.8;" x="44.307813" xlink:href="#ma39d02a068" y="142.392593"/>
      </g>
     </g>
     <g id="text_13">
      <!-- 100 -->
      <g transform="translate(20.625 145.9715)scale(0.1 -0.1)">
       <use xlink:href="#ArialMT-49"/>
       <use x="55.615234" xlink:href="#ArialMT-48"/>
       <use x="111.230469" xlink:href="#ArialMT-48"/>
      </g>
     </g>
    </g>
    <g id="ytick_5">
     <g id="line2d_13">
      <g>
       <use style="stroke:#000000;stroke-width:0.8;" x="44.307813" xlink:href="#ma39d02a068" y="92.627759"/>
      </g>
     </g>
     <g id="text_14">
      <!-- 150 -->
      <g transform="translate(20.625 96.206665)scale(0.1 -0.1)">
       <use xlink:href="#ArialMT-49"/>
       <use x="55.615234" xlink:href="#ArialMT-53"/>
       <use x="111.230469" xlink:href="#ArialMT-48"/>
      </g>
     </g>
    </g>
    <g id="ytick_6">
     <g id="line2d_14">
      <g>
       <use style="stroke:#000000;stroke-width:0.8;" x="44.307813" xlink:href="#ma39d02a068" y="42.862924"/>
      </g>
     </g>
     <g id="text_15">
      <!-- 200 -->
      <g transform="translate(20.625 46.44183)scale(0.1 -0.1)">
       <use xlink:href="#ArialMT-50"/>
       <use x="55.615234" xlink:href="#ArialMT-48"/>
       <use x="111.230469" xlink:href="#ArialMT-48"/>
      </g>
     </g>
    </g>
    <g id="text_16">
     <!-- P [bar] -->
     <g transform="translate(14.357813 188.160625)rotate(-90)scale(0.1 -0.1)">
      <defs>
       <path d="M 7.71875 0 
L 7.71875 71.578125 
L 34.71875 71.578125 
Q 41.84375 71.578125 45.609375 70.90625 
Q 50.875 70.015625 54.4375 67.546875 
Q 58.015625 65.09375 60.1875 60.640625 
Q 62.359375 56.203125 62.359375 50.875 
Q 62.359375 41.75 56.546875 35.421875 
Q 50.734375 29.109375 35.546875 29.109375 
L 17.1875 29.109375 
L 17.1875 0 
z
M 17.1875 37.546875 
L 35.6875 37.546875 
Q 44.875 37.546875 48.734375 40.96875 
Q 52.59375 44.390625 52.59375 50.59375 
Q 52.59375 55.078125 50.3125 58.265625 
Q 48.046875 61.46875 44.34375 62.5 
Q 41.9375 63.140625 35.5 63.140625 
L 17.1875 63.140625 
z
" id="ArialMT-80"/>
       <path d="M 14.703125 0 
L 6.546875 0 
L 6.546875 71.578125 
L 15.328125 71.578125 
L 15.328125 46.046875 
Q 20.90625 53.03125 29.546875 53.03125 
Q 34.328125 53.03125 38.59375 51.09375 
Q 42.875 49.171875 45.625 45.671875 
Q 48.390625 42.1875 49.953125 37.25 
Q 51.515625 32.328125 51.515625 26.703125 
Q 51.515625 13.375 44.921875 6.09375 
Q 38.328125 -1.171875 29.109375 -1.171875 
Q 19.921875 -1.171875 14.703125 6.5 
z
M 14.59375 26.3125 
Q 14.59375 17 17.140625 12.84375 
Q 21.296875 6.0625 28.375 6.0625 
Q 34.125 6.0625 38.328125 11.0625 
Q 42.53125 16.0625 42.53125 25.984375 
Q 42.53125 36.140625 38.5 40.96875 
Q 34.46875 45.796875 28.765625 45.796875 
Q 23 45.796875 18.796875 40.796875 
Q 14.59375 35.796875 14.59375 26.3125 
z
" id="ArialMT-98"/>
       <path d="M 40.4375 6.390625 
Q 35.546875 2.25 31.03125 0.53125 
Q 26.515625 -1.171875 21.34375 -1.171875 
Q 12.796875 -1.171875 8.203125 3 
Q 3.609375 7.171875 3.609375 13.671875 
Q 3.609375 17.484375 5.34375 20.625 
Q 7.078125 23.78125 9.890625 25.6875 
Q 12.703125 27.59375 16.21875 28.5625 
Q 18.796875 29.25 24.03125 29.890625 
Q 34.671875 31.15625 39.703125 32.90625 
Q 39.75 34.71875 39.75 35.203125 
Q 39.75 40.578125 37.25 42.78125 
Q 33.890625 45.75 27.25 45.75 
Q 21.046875 45.75 18.09375 43.578125 
Q 15.140625 41.40625 13.71875 35.890625 
L 5.125 37.0625 
Q 6.296875 42.578125 8.984375 45.96875 
Q 11.671875 49.359375 16.75 51.1875 
Q 21.828125 53.03125 28.515625 53.03125 
Q 35.15625 53.03125 39.296875 51.46875 
Q 43.453125 49.90625 45.40625 47.53125 
Q 47.359375 45.171875 48.140625 41.546875 
Q 48.578125 39.3125 48.578125 33.453125 
L 48.578125 21.734375 
Q 48.578125 9.46875 49.140625 6.21875 
Q 49.703125 2.984375 51.375 0 
L 42.1875 0 
Q 40.828125 2.734375 40.4375 6.390625 
z
M 39.703125 26.03125 
Q 34.90625 24.078125 25.34375 22.703125 
Q 19.921875 21.921875 17.671875 20.9375 
Q 15.4375 19.96875 14.203125 18.09375 
Q 12.984375 16.21875 12.984375 13.921875 
Q 12.984375 10.40625 15.640625 8.0625 
Q 18.3125 5.71875 23.4375 5.71875 
Q 28.515625 5.71875 32.46875 7.9375 
Q 36.421875 10.15625 38.28125 14.015625 
Q 39.703125 17 39.703125 22.796875 
z
" id="ArialMT-97"/>
       <path d="M 6.5 0 
L 6.5 51.859375 
L 14.40625 51.859375 
L 14.40625 44 
Q 17.4375 49.515625 20 51.265625 
Q 22.5625 53.03125 25.640625 53.03125 
Q 30.078125 53.03125 34.671875 50.203125 
L 31.640625 42.046875 
Q 28.421875 43.953125 25.203125 43.953125 
Q 22.3125 43.953125 20.015625 42.21875 
Q 17.71875 40.484375 16.75 37.40625 
Q 15.28125 32.71875 15.28125 27.15625 
L 15.28125 0 
z
" id="ArialMT-114"/>
      </defs>
      <use xlink:href="#ArialMT-80"/>
      <use x="64.949219" xlink:href="#ArialMT-32"/>
      <use x="92.732422" xlink:href="#ArialMT-91"/>
      <use x="120.515625" xlink:href="#ArialMT-98"/>
      <use x="176.130859" xlink:href="#ArialMT-97"/>
      <use x="231.746094" xlink:href="#ArialMT-114"/>
      <use x="265.046875" xlink:href="#ArialMT-93"/>
     </g>
    </g>
   </g>
   <g id="line2d_15">
    <path clip-path="url(#p39416381e3)" d="M 59.525994 241.916175 
L 101.850044 241.786586 
L 121.384221 241.521754 
L 136.034853 241.110677 
L 148.243714 240.542513 
L 158.010802 239.881447 
L 166.963967 239.067344 
L 175.103207 238.115612 
L 182.428523 237.054665 
L 189.75384 235.76904 
L 196.265232 234.411575 
L 202.776624 232.826854 
L 208.474092 231.233672 
L 214.171561 229.428901 
L 219.869029 227.393619 
L 225.566497 225.108318 
L 231.263965 222.552595 
L 236.147509 220.13074 
L 241.031054 217.481061 
L 245.914598 214.589226 
L 250.798142 211.440705 
L 255.681686 208.020567 
L 260.56523 204.313385 
L 265.448775 200.303335 
L 270.332319 195.973893 
L 275.215863 191.308341 
L 280.099407 186.289258 
L 284.982951 180.898732 
L 289.866496 175.117949 
L 294.75004 168.927701 
L 299.633584 162.307684 
L 304.517128 155.236798 
L 309.400672 147.692847 
L 313.470293 141.028042 
L 317.539913 134.003238 
L 321.609533 126.605197 
L 326.493077 117.208601 
L 330.562697 108.926737 
L 334.632317 100.212915 
L 338.701938 91.046232 
L 342.771558 81.402802 
L 346.841178 71.255753 
L 350.910798 60.572238 
L 354.980418 49.312446 
L 359.050038 37.423627 
L 363.119659 24.810232 
L 363.119659 24.810232 
" style="fill:none;stroke:#1f77b4;stroke-linecap:square;stroke-width:1.5;"/>
   </g>
   <g id="line2d_16">
    <path clip-path="url(#p39416381e3)" d="M 59.525994 241.912313 
L 177.544979 242.021795 
L 201.148776 242.276545 
L 217.427257 242.672943 
L 229.636117 243.180258 
L 240.21713 243.838438 
L 249.170294 244.612739 
L 257.309534 245.542545 
L 264.634851 246.611106 
L 271.146243 247.787148 
L 276.843711 249.025397 
L 282.541179 250.493908 
L 287.424723 251.965503 
L 292.308268 253.663679 
L 297.191812 255.621228 
L 301.261432 257.477755 
L 305.331052 259.56529 
L 309.400672 261.911802 
L 313.470293 264.548642 
L 316.725989 266.890774 
L 319.981685 269.461127 
L 323.237381 272.281599 
L 326.493077 275.375877 
L 329.748773 278.769441 
L 333.004469 282.489362 
L 336.260165 286.56341 
L 339.515862 291.018458 
L 342.771558 295.877397 
L 346.027254 301.150976 
L 349.28295 306.82138 
L 357.42219 321.525894 
L 359.050038 323.749387 
L 359.863962 324.471474 
L 360.677886 324.72 
L 361.49181 324.156662 
L 362.305735 322.027324 
L 363.119659 316.006177 
L 363.119659 316.006177 
" style="fill:none;stroke:#ff7f0e;stroke-linecap:square;stroke-width:1.5;"/>
   </g>
   <g id="line2d_17">
    <defs>
     <path d="M 0 3 
C 0.795609 3 1.55874 2.683901 2.12132 2.12132 
C 2.683901 1.55874 3 0.795609 3 0 
C 3 -0.795609 2.683901 -1.55874 2.12132 -2.12132 
C 1.55874 -2.683901 0.795609 -3 0 -3 
C -0.795609 -3 -1.55874 -2.683901 -2.12132 -2.12132 
C -2.683901 -1.55874 -3 -0.795609 -3 0 
C -3 0.795609 -2.683901 1.55874 -2.12132 2.12132 
C -1.55874 2.683901 -0.795609 3 0 3 
z
" id="m055fafbc9d" style="stroke:#ffffff;"/>
    </defs>
    <g clip-path="url(#p39416381e3)">
     <use style="fill:#ff0000;stroke:#ffffff;" x="363.889631" xlink:href="#m055fafbc9d" y="22.32"/>
    </g>
   </g>
   <g id="line2d_18">
    <path clip-path="url(#p39416381e3)" d="M 59.525994 241.912313 
L 177.544979 242.021795 
L 201.148776 242.276545 
L 217.427257 242.672943 
L 229.636117 243.180258 
L 240.21713 243.838438 
L 249.170294 244.612739 
L 257.309534 245.542545 
L 264.634851 246.611106 
L 271.146243 247.787148 
L 276.843711 249.025397 
L 282.541179 250.493908 
L 287.424723 251.965503 
L 292.308268 253.663679 
L 297.191812 255.621228 
L 301.261432 257.477755 
L 305.331052 259.56529 
L 309.400672 261.911802 
L 313.470293 264.548642 
L 316.725989 266.890774 
L 319.981685 269.461127 
L 323.237381 272.281599 
L 326.493077 275.375877 
L 329.748773 278.769441 
L 333.004469 282.489362 
L 336.260165 286.56341 
L 339.515862 291.018458 
L 342.771558 295.877397 
L 346.027254 301.150976 
L 349.28295 306.82138 
L 357.42219 321.525894 
L 359.050038 323.749387 
L 359.863962 324.471474 
L 360.677886 324.72 
L 361.49181 324.156662 
L 362.305735 322.027324 
L 363.119659 316.006177 
L 363.119659 316.006177 
" style="fill:none;stroke:#d62728;stroke-dasharray:1.5,2.475;stroke-dashoffset:0;stroke-width:1.5;"/>
   </g>
   <g id="line2d_19">
    <path clip-path="url(#p39416381e3)" d="M 59.932956 241.915955 
L 62.995004 241.914015 
L 66.057052 241.911566 
L 69.1191 241.908496 
L 72.181148 241.904676 
L 75.243196 241.899956 
L 78.305244 241.894162 
L 81.367292 241.887093 
L 84.42934 241.878524 
L 87.491388 241.868194 
L 90.553436 241.855814 
L 93.615484 241.841055 
L 96.677532 241.823552 
L 99.73958 241.802897 
L 102.801628 241.778639 
L 105.863676 241.750282 
L 108.925724 241.717279 
L 111.987772 241.679034 
L 115.04982 241.634895 
L 118.111868 241.584155 
L 121.173916 241.526049 
L 124.235964 241.459752 
L 127.298012 241.384378 
L 130.36006 241.298975 
L 133.422108 241.202526 
L 136.484156 241.093949 
L 139.546204 240.972091 
L 142.608252 240.835732 
L 145.6703 240.68358 
L 148.732348 240.514272 
L 151.794396 240.326373 
L 154.856444 240.118375 
L 157.918492 239.888697 
L 160.98054 239.635685 
L 164.042588 239.35761 
L 167.104636 239.05267 
L 170.166684 238.71899 
L 173.228732 238.35462 
L 176.29078 237.957537 
L 179.352828 237.525647 
L 182.414876 237.05678 
L 185.476924 236.548697 
L 188.538972 235.999085 
L 191.60102 235.405562 
L 194.663068 234.765674 
L 197.725116 234.076899 
L 200.787164 233.336646 
L 203.849212 232.542253 
L 206.91126 231.690994 
L 209.973308 230.780075 
L 213.035355 229.806634 
L 216.097403 228.767747 
L 219.159451 227.66042 
L 222.221499 226.481601 
L 225.283547 225.228167 
L 228.345595 223.896938 
L 231.407643 222.484665 
L 234.469691 220.98804 
L 237.531739 219.40369 
L 240.593787 217.728179 
L 243.655835 215.958007 
L 246.717883 214.089611 
L 249.779931 212.119362 
L 252.841979 210.043569 
L 255.904027 207.858469 
L 258.966075 205.560236 
L 262.028123 203.144972 
L 265.090171 200.608707 
L 268.152219 197.947396 
L 271.214267 195.15692 
L 274.276315 192.233077 
L 277.338363 189.17158 
L 280.400411 185.968053 
L 283.462459 182.618027 
L 286.524507 179.116931 
L 289.586555 175.460086 
L 292.648603 171.642697 
L 295.710651 167.659843 
L 298.772699 163.506467 
L 301.834747 159.177361 
L 304.896795 154.667156 
L 307.958843 149.970298 
L 311.020891 145.081034 
L 314.082939 139.993383 
L 317.144987 134.701113 
L 320.207035 129.197702 
L 323.269083 123.476301 
L 326.331131 117.529683 
L 329.393179 111.350183 
L 332.455227 104.929625 
L 335.517275 98.259233 
L 338.579323 91.329529 
L 341.641371 84.130201 
L 344.703419 76.649969 
L 347.765467 68.876394 
L 350.827515 60.795559 
L 353.889563 52.391191 
L 356.951611 43.641715 
L 360.013659 34.512153 
L 363.075707 24.94733 
" style="fill:none;stroke:#9467bd;stroke-dasharray:5.55,2.4;stroke-dashoffset:0;stroke-width:1.5;"/>
   </g>
   <g id="patch_3">
    <path d="M 44.307813 339.84 
L 44.307813 7.2 
" style="fill:none;stroke:#000000;stroke-linecap:square;stroke-linejoin:miter;stroke-width:0.8;"/>
   </g>
   <g id="patch_4">
    <path d="M 379.107813 339.84 
L 379.107813 7.2 
" style="fill:none;stroke:#000000;stroke-linecap:square;stroke-linejoin:miter;stroke-width:0.8;"/>
   </g>
   <g id="patch_5">
    <path d="M 44.307813 339.84 
L 379.107813 339.84 
" style="fill:none;stroke:#000000;stroke-linecap:square;stroke-linejoin:miter;stroke-width:0.8;"/>
   </g>
   <g id="patch_6">
    <path d="M 44.307813 7.2 
L 379.107813 7.2 
" style="fill:none;stroke:#000000;stroke-linecap:square;stroke-linejoin:miter;stroke-width:0.8;"/>
   </g>
   <g id="legend_1">
    <g id="patch_7">
     <path d="M 51.307813 72.639063 
L 196.670313 72.639063 
Q 198.670313 72.639063 198.670313 70.639063 
L 198.670313 14.2 
Q 198.670313 12.2 196.670313 12.2 
L 51.307813 12.2 
Q 49.307813 12.2 49.307813 14.2 
L 49.307813 70.639063 
Q 49.307813 72.639063 51.307813 72.639063 
z
" style="fill:#ffffff;opacity:0.8;stroke:#cccccc;stroke-linejoin:miter;"/>
    </g>
    <g id="line2d_20">
     <path d="M 53.307813 19.985938 
L 73.307813 19.985938 
" style="fill:none;stroke:#1f77b4;stroke-linecap:square;stroke-width:1.5;"/>
    </g>
    <g id="line2d_21"/>
    <g id="text_17">
     <!-- cH2O::P_Boiling -->
     <g transform="translate(81.307813 23.485938)scale(0.1 -0.1)">
      <defs>
       <path d="M 40.4375 19 
L 49.078125 17.875 
Q 47.65625 8.9375 41.8125 3.875 
Q 35.984375 -1.171875 27.484375 -1.171875 
Q 16.84375 -1.171875 10.375 5.78125 
Q 3.90625 12.75 3.90625 25.734375 
Q 3.90625 34.125 6.6875 40.421875 
Q 9.46875 46.734375 15.15625 49.875 
Q 20.84375 53.03125 27.546875 53.03125 
Q 35.984375 53.03125 41.359375 48.75 
Q 46.734375 44.484375 48.25 36.625 
L 39.703125 35.296875 
Q 38.484375 40.53125 35.375 43.15625 
Q 32.28125 45.796875 27.875 45.796875 
Q 21.234375 45.796875 17.078125 41.03125 
Q 12.9375 36.28125 12.9375 25.984375 
Q 12.9375 15.53125 16.9375 10.796875 
Q 20.953125 6.0625 27.390625 6.0625 
Q 32.5625 6.0625 36.03125 9.234375 
Q 39.5 12.40625 40.4375 19 
z
" id="ArialMT-99"/>
       <path d="M 8.015625 0 
L 8.015625 71.578125 
L 17.484375 71.578125 
L 17.484375 42.1875 
L 54.6875 42.1875 
L 54.6875 71.578125 
L 64.15625 71.578125 
L 64.15625 0 
L 54.6875 0 
L 54.6875 33.734375 
L 17.484375 33.734375 
L 17.484375 0 
z
" id="ArialMT-72"/>
       <path d="M 4.828125 34.859375 
Q 4.828125 52.6875 14.390625 62.765625 
Q 23.96875 72.859375 39.109375 72.859375 
Q 49.03125 72.859375 56.984375 68.109375 
Q 64.9375 63.375 69.109375 54.90625 
Q 73.296875 46.4375 73.296875 35.6875 
Q 73.296875 24.8125 68.890625 16.21875 
Q 64.5 7.625 56.4375 3.203125 
Q 48.390625 -1.21875 39.0625 -1.21875 
Q 28.953125 -1.21875 20.984375 3.65625 
Q 13.03125 8.546875 8.921875 16.984375 
Q 4.828125 25.4375 4.828125 34.859375 
z
M 14.59375 34.71875 
Q 14.59375 21.78125 21.546875 14.328125 
Q 28.515625 6.890625 39.015625 6.890625 
Q 49.703125 6.890625 56.609375 14.40625 
Q 63.53125 21.921875 63.53125 35.75 
Q 63.53125 44.484375 60.578125 51 
Q 57.625 57.515625 51.921875 61.109375 
Q 46.234375 64.703125 39.15625 64.703125 
Q 29.109375 64.703125 21.84375 57.78125 
Q 14.59375 50.875 14.59375 34.71875 
z
" id="ArialMT-79"/>
       <path d="M 9.03125 41.84375 
L 9.03125 51.859375 
L 19.046875 51.859375 
L 19.046875 41.84375 
z
M 9.03125 0 
L 9.03125 10.015625 
L 19.046875 10.015625 
L 19.046875 0 
z
" id="ArialMT-58"/>
       <path d="M -1.515625 -19.875 
L -1.515625 -13.53125 
L 56.734375 -13.53125 
L 56.734375 -19.875 
z
" id="ArialMT-95"/>
       <path d="M 7.328125 0 
L 7.328125 71.578125 
L 34.1875 71.578125 
Q 42.390625 71.578125 47.34375 69.40625 
Q 52.296875 67.234375 55.09375 62.71875 
Q 57.90625 58.203125 57.90625 53.265625 
Q 57.90625 48.6875 55.421875 44.625 
Q 52.9375 40.578125 47.90625 38.09375 
Q 54.390625 36.1875 57.875 31.59375 
Q 61.375 27 61.375 20.75 
Q 61.375 15.71875 59.25 11.390625 
Q 57.125 7.078125 54 4.734375 
Q 50.875 2.390625 46.15625 1.1875 
Q 41.453125 0 34.625 0 
z
M 16.796875 41.5 
L 32.28125 41.5 
Q 38.578125 41.5 41.3125 42.328125 
Q 44.921875 43.40625 46.75 45.890625 
Q 48.578125 48.390625 48.578125 52.15625 
Q 48.578125 55.71875 46.875 58.421875 
Q 45.171875 61.140625 41.984375 62.140625 
Q 38.8125 63.140625 31.109375 63.140625 
L 16.796875 63.140625 
z
M 16.796875 8.453125 
L 34.625 8.453125 
Q 39.203125 8.453125 41.0625 8.796875 
Q 44.34375 9.375 46.53125 10.734375 
Q 48.734375 12.109375 50.140625 14.71875 
Q 51.5625 17.328125 51.5625 20.75 
Q 51.5625 24.75 49.515625 27.703125 
Q 47.46875 30.671875 43.828125 31.859375 
Q 40.1875 33.0625 33.34375 33.0625 
L 16.796875 33.0625 
z
" id="ArialMT-66"/>
       <path d="M 3.328125 25.921875 
Q 3.328125 40.328125 11.328125 47.265625 
Q 18.015625 53.03125 27.640625 53.03125 
Q 38.328125 53.03125 45.109375 46.015625 
Q 51.90625 39.015625 51.90625 26.65625 
Q 51.90625 16.65625 48.90625 10.90625 
Q 45.90625 5.171875 40.15625 2 
Q 34.421875 -1.171875 27.640625 -1.171875 
Q 16.75 -1.171875 10.03125 5.8125 
Q 3.328125 12.796875 3.328125 25.921875 
z
M 12.359375 25.921875 
Q 12.359375 15.96875 16.703125 11.015625 
Q 21.046875 6.0625 27.640625 6.0625 
Q 34.1875 6.0625 38.53125 11.03125 
Q 42.875 16.015625 42.875 26.21875 
Q 42.875 35.84375 38.5 40.796875 
Q 34.125 45.75 27.640625 45.75 
Q 21.046875 45.75 16.703125 40.8125 
Q 12.359375 35.890625 12.359375 25.921875 
z
" id="ArialMT-111"/>
       <path d="M 6.640625 61.46875 
L 6.640625 71.578125 
L 15.4375 71.578125 
L 15.4375 61.46875 
z
M 6.640625 0 
L 6.640625 51.859375 
L 15.4375 51.859375 
L 15.4375 0 
z
" id="ArialMT-105"/>
       <path d="M 6.390625 0 
L 6.390625 71.578125 
L 15.1875 71.578125 
L 15.1875 0 
z
" id="ArialMT-108"/>
       <path d="M 6.59375 0 
L 6.59375 51.859375 
L 14.5 51.859375 
L 14.5 44.484375 
Q 20.21875 53.03125 31 53.03125 
Q 35.6875 53.03125 39.625 51.34375 
Q 43.5625 49.65625 45.515625 46.921875 
Q 47.46875 44.1875 48.25 40.4375 
Q 48.734375 37.984375 48.734375 31.890625 
L 48.734375 0 
L 39.9375 0 
L 39.9375 31.546875 
Q 39.9375 36.921875 38.90625 39.578125 
Q 37.890625 42.234375 35.28125 43.8125 
Q 32.671875 45.40625 29.15625 45.40625 
Q 23.53125 45.40625 19.453125 41.84375 
Q 15.375 38.28125 15.375 28.328125 
L 15.375 0 
z
" id="ArialMT-110"/>
       <path d="M 4.984375 -4.296875 
L 13.53125 -5.5625 
Q 14.0625 -9.515625 16.5 -11.328125 
Q 19.78125 -13.765625 25.4375 -13.765625 
Q 31.546875 -13.765625 34.859375 -11.328125 
Q 38.1875 -8.890625 39.359375 -4.5 
Q 40.046875 -1.8125 39.984375 6.78125 
Q 34.234375 0 25.640625 0 
Q 14.9375 0 9.078125 7.71875 
Q 3.21875 15.4375 3.21875 26.21875 
Q 3.21875 33.640625 5.90625 39.90625 
Q 8.59375 46.1875 13.6875 49.609375 
Q 18.796875 53.03125 25.6875 53.03125 
Q 34.859375 53.03125 40.828125 45.609375 
L 40.828125 51.859375 
L 48.921875 51.859375 
L 48.921875 7.03125 
Q 48.921875 -5.078125 46.453125 -10.125 
Q 44 -15.1875 38.640625 -18.109375 
Q 33.296875 -21.046875 25.484375 -21.046875 
Q 16.21875 -21.046875 10.5 -16.875 
Q 4.78125 -12.703125 4.984375 -4.296875 
z
M 12.25 26.859375 
Q 12.25 16.65625 16.296875 11.96875 
Q 20.359375 7.28125 26.46875 7.28125 
Q 32.515625 7.28125 36.609375 11.9375 
Q 40.71875 16.609375 40.71875 26.5625 
Q 40.71875 36.078125 36.5 40.90625 
Q 32.28125 45.75 26.3125 45.75 
Q 20.453125 45.75 16.34375 40.984375 
Q 12.25 36.234375 12.25 26.859375 
z
" id="ArialMT-103"/>
      </defs>
      <use xlink:href="#ArialMT-99"/>
      <use x="50" xlink:href="#ArialMT-72"/>
      <use x="122.216797" xlink:href="#ArialMT-50"/>
      <use x="177.832031" xlink:href="#ArialMT-79"/>
      <use x="255.615234" xlink:href="#ArialMT-58"/>
      <use x="283.398438" xlink:href="#ArialMT-58"/>
      <use x="311.181641" xlink:href="#ArialMT-80"/>
      <use x="377.880859" xlink:href="#ArialMT-95"/>
      <use x="433.496094" xlink:href="#ArialMT-66"/>
      <use x="500.195312" xlink:href="#ArialMT-111"/>
      <use x="555.810547" xlink:href="#ArialMT-105"/>
      <use x="578.027344" xlink:href="#ArialMT-108"/>
      <use x="600.244141" xlink:href="#ArialMT-105"/>
      <use x="622.460938" xlink:href="#ArialMT-110"/>
      <use x="678.076172" xlink:href="#ArialMT-103"/>
     </g>
    </g>
    <g id="line2d_22">
     <path d="M 53.307813 34.376563 
L 73.307813 34.376563 
" style="fill:none;stroke:#ff7f0e;stroke-linecap:square;stroke-width:1.5;"/>
    </g>
    <g id="line2d_23"/>
    <g id="text_18">
     <!-- cH2O::BoilingCurve -->
     <g transform="translate(81.307813 37.876563)scale(0.1 -0.1)">
      <defs>
       <path d="M 40.578125 0 
L 40.578125 7.625 
Q 34.515625 -1.171875 24.125 -1.171875 
Q 19.53125 -1.171875 15.546875 0.578125 
Q 11.578125 2.34375 9.640625 5 
Q 7.71875 7.671875 6.9375 11.53125 
Q 6.390625 14.109375 6.390625 19.734375 
L 6.390625 51.859375 
L 15.1875 51.859375 
L 15.1875 23.09375 
Q 15.1875 16.21875 15.71875 13.8125 
Q 16.546875 10.359375 19.234375 8.375 
Q 21.921875 6.390625 25.875 6.390625 
Q 29.828125 6.390625 33.296875 8.421875 
Q 36.765625 10.453125 38.203125 13.9375 
Q 39.65625 17.4375 39.65625 24.078125 
L 39.65625 51.859375 
L 48.4375 51.859375 
L 48.4375 0 
z
" id="ArialMT-117"/>
       <path d="M 21 0 
L 1.265625 51.859375 
L 10.546875 51.859375 
L 21.6875 20.796875 
Q 23.484375 15.765625 25 10.359375 
Q 26.171875 14.453125 28.265625 20.21875 
L 39.796875 51.859375 
L 48.828125 51.859375 
L 29.203125 0 
z
" id="ArialMT-118"/>
       <path d="M 42.09375 16.703125 
L 51.171875 15.578125 
Q 49.03125 7.625 43.21875 3.21875 
Q 37.40625 -1.171875 28.375 -1.171875 
Q 17 -1.171875 10.328125 5.828125 
Q 3.65625 12.84375 3.65625 25.484375 
Q 3.65625 38.578125 10.390625 45.796875 
Q 17.140625 53.03125 27.875 53.03125 
Q 38.28125 53.03125 44.875 45.953125 
Q 51.46875 38.875 51.46875 26.03125 
Q 51.46875 25.25 51.421875 23.6875 
L 12.75 23.6875 
Q 13.234375 15.140625 17.578125 10.59375 
Q 21.921875 6.0625 28.421875 6.0625 
Q 33.25 6.0625 36.671875 8.59375 
Q 40.09375 11.140625 42.09375 16.703125 
z
M 13.234375 30.90625 
L 42.1875 30.90625 
Q 41.609375 37.453125 38.875 40.71875 
Q 34.671875 45.796875 27.984375 45.796875 
Q 21.921875 45.796875 17.796875 41.75 
Q 13.671875 37.703125 13.234375 30.90625 
z
" id="ArialMT-101"/>
      </defs>
      <use xlink:href="#ArialMT-99"/>
      <use x="50" xlink:href="#ArialMT-72"/>
      <use x="122.216797" xlink:href="#ArialMT-50"/>
      <use x="177.832031" xlink:href="#ArialMT-79"/>
      <use x="255.615234" xlink:href="#ArialMT-58"/>
      <use x="283.398438" xlink:href="#ArialMT-58"/>
      <use x="311.181641" xlink:href="#ArialMT-66"/>
      <use x="377.880859" xlink:href="#ArialMT-111"/>
      <use x="433.496094" xlink:href="#ArialMT-105"/>
      <use x="455.712891" xlink:href="#ArialMT-108"/>
      <use x="477.929688" xlink:href="#ArialMT-105"/>
      <use x="500.146484" xlink:href="#ArialMT-110"/>
      <use x="555.761719" xlink:href="#ArialMT-103"/>
      <use x="611.376953" xlink:href="#ArialMT-67"/>
      <use x="683.59375" xlink:href="#ArialMT-117"/>
      <use x="739.208984" xlink:href="#ArialMT-114"/>
      <use x="772.509766" xlink:href="#ArialMT-118"/>
      <use x="822.509766" xlink:href="#ArialMT-101"/>
     </g>
    </g>
    <g id="line2d_24"/>
    <g id="line2d_25">
     <g>
      <use style="fill:#ff0000;stroke:#ffffff;" x="63.307813" xlink:href="#m055fafbc9d" y="48.760938"/>
     </g>
    </g>
    <g id="text_19">
     <!-- Critical point -->
     <g transform="translate(81.307813 52.260938)scale(0.1 -0.1)">
      <defs>
       <path d="M 25.78125 7.859375 
L 27.046875 0.09375 
Q 23.34375 -0.6875 20.40625 -0.6875 
Q 15.625 -0.6875 12.984375 0.828125 
Q 10.359375 2.34375 9.28125 4.8125 
Q 8.203125 7.28125 8.203125 15.1875 
L 8.203125 45.015625 
L 1.765625 45.015625 
L 1.765625 51.859375 
L 8.203125 51.859375 
L 8.203125 64.703125 
L 16.9375 69.96875 
L 16.9375 51.859375 
L 25.78125 51.859375 
L 25.78125 45.015625 
L 16.9375 45.015625 
L 16.9375 14.703125 
Q 16.9375 10.9375 17.40625 9.859375 
Q 17.875 8.796875 18.921875 8.15625 
Q 19.96875 7.515625 21.921875 7.515625 
Q 23.390625 7.515625 25.78125 7.859375 
z
" id="ArialMT-116"/>
       <path d="M 6.59375 -19.875 
L 6.59375 51.859375 
L 14.59375 51.859375 
L 14.59375 45.125 
Q 17.4375 49.078125 21 51.046875 
Q 24.5625 53.03125 29.640625 53.03125 
Q 36.28125 53.03125 41.359375 49.609375 
Q 46.4375 46.1875 49.015625 39.953125 
Q 51.609375 33.734375 51.609375 26.3125 
Q 51.609375 18.359375 48.75 11.984375 
Q 45.90625 5.609375 40.453125 2.21875 
Q 35.015625 -1.171875 29 -1.171875 
Q 24.609375 -1.171875 21.109375 0.6875 
Q 17.625 2.546875 15.375 5.375 
L 15.375 -19.875 
z
M 14.546875 25.640625 
Q 14.546875 15.625 18.59375 10.84375 
Q 22.65625 6.0625 28.421875 6.0625 
Q 34.28125 6.0625 38.453125 11.015625 
Q 42.625 15.96875 42.625 26.375 
Q 42.625 36.28125 38.546875 41.203125 
Q 34.46875 46.140625 28.8125 46.140625 
Q 23.1875 46.140625 18.859375 40.890625 
Q 14.546875 35.640625 14.546875 25.640625 
z
" id="ArialMT-112"/>
      </defs>
      <use xlink:href="#ArialMT-67"/>
      <use x="72.216797" xlink:href="#ArialMT-114"/>
      <use x="105.517578" xlink:href="#ArialMT-105"/>
      <use x="127.734375" xlink:href="#ArialMT-116"/>
      <use x="155.517578" xlink:href="#ArialMT-105"/>
      <use x="177.734375" xlink:href="#ArialMT-99"/>
      <use x="227.734375" xlink:href="#ArialMT-97"/>
      <use x="283.349609" xlink:href="#ArialMT-108"/>
      <use x="305.566406" xlink:href="#ArialMT-32"/>
      <use x="333.349609" xlink:href="#ArialMT-112"/>
      <use x="388.964844" xlink:href="#ArialMT-111"/>
      <use x="444.580078" xlink:href="#ArialMT-105"/>
      <use x="466.796875" xlink:href="#ArialMT-110"/>
      <use x="522.412109" xlink:href="#ArialMT-116"/>
     </g>
    </g>
    <g id="line2d_26">
     <path d="M 53.307813 63.034375 
L 73.307813 63.034375 
" style="fill:none;stroke:#d62728;stroke-dasharray:1.5,2.475;stroke-dashoffset:0;stroke-width:1.5;"/>
    </g>
    <g id="line2d_27"/>
    <g id="text_20">
     <!-- cH2O::Pressure_T_Rho() -->
     <g transform="translate(81.307813 66.534375)scale(0.1 -0.1)">
      <defs>
       <path d="M 3.078125 15.484375 
L 11.765625 16.84375 
Q 12.5 11.625 15.84375 8.84375 
Q 19.1875 6.0625 25.203125 6.0625 
Q 31.25 6.0625 34.171875 8.515625 
Q 37.109375 10.984375 37.109375 14.3125 
Q 37.109375 17.28125 34.515625 19 
Q 32.71875 20.171875 25.53125 21.96875 
Q 15.875 24.421875 12.140625 26.203125 
Q 8.40625 27.984375 6.46875 31.125 
Q 4.546875 34.28125 4.546875 38.09375 
Q 4.546875 41.546875 6.125 44.5 
Q 7.71875 47.46875 10.453125 49.421875 
Q 12.5 50.921875 16.03125 51.96875 
Q 19.578125 53.03125 23.640625 53.03125 
Q 29.734375 53.03125 34.34375 51.265625 
Q 38.96875 49.515625 41.15625 46.5 
Q 43.359375 43.5 44.1875 38.484375 
L 35.59375 37.3125 
Q 35.015625 41.3125 32.203125 43.546875 
Q 29.390625 45.796875 24.265625 45.796875 
Q 18.21875 45.796875 15.625 43.796875 
Q 13.03125 41.796875 13.03125 39.109375 
Q 13.03125 37.40625 14.109375 36.03125 
Q 15.1875 34.625 17.484375 33.6875 
Q 18.796875 33.203125 25.25 31.453125 
Q 34.578125 28.953125 38.25 27.359375 
Q 41.9375 25.78125 44.03125 22.75 
Q 46.140625 19.734375 46.140625 15.234375 
Q 46.140625 10.84375 43.578125 6.953125 
Q 41.015625 3.078125 36.171875 0.953125 
Q 31.34375 -1.171875 25.25 -1.171875 
Q 15.140625 -1.171875 9.84375 3.03125 
Q 4.546875 7.234375 3.078125 15.484375 
z
" id="ArialMT-115"/>
       <path d="M 7.859375 0 
L 7.859375 71.578125 
L 39.59375 71.578125 
Q 49.171875 71.578125 54.140625 69.640625 
Q 59.125 67.71875 62.109375 62.828125 
Q 65.09375 57.953125 65.09375 52.046875 
Q 65.09375 44.4375 60.15625 39.203125 
Q 55.21875 33.984375 44.921875 32.5625 
Q 48.6875 30.765625 50.640625 29 
Q 54.78125 25.203125 58.5 19.484375 
L 70.953125 0 
L 59.03125 0 
L 49.5625 14.890625 
Q 45.40625 21.34375 42.71875 24.75 
Q 40.046875 28.171875 37.921875 29.53125 
Q 35.796875 30.90625 33.59375 31.453125 
Q 31.984375 31.78125 28.328125 31.78125 
L 17.328125 31.78125 
L 17.328125 0 
z
M 17.328125 39.984375 
L 37.703125 39.984375 
Q 44.1875 39.984375 47.84375 41.328125 
Q 51.515625 42.671875 53.421875 45.625 
Q 55.328125 48.578125 55.328125 52.046875 
Q 55.328125 57.125 51.640625 60.390625 
Q 47.953125 63.671875 39.984375 63.671875 
L 17.328125 63.671875 
z
" id="ArialMT-82"/>
       <path d="M 6.59375 0 
L 6.59375 71.578125 
L 15.375 71.578125 
L 15.375 45.90625 
Q 21.53125 53.03125 30.90625 53.03125 
Q 36.671875 53.03125 40.921875 50.75 
Q 45.171875 48.484375 47 44.484375 
Q 48.828125 40.484375 48.828125 32.859375 
L 48.828125 0 
L 40.046875 0 
L 40.046875 32.859375 
Q 40.046875 39.453125 37.1875 42.453125 
Q 34.328125 45.453125 29.109375 45.453125 
Q 25.203125 45.453125 21.75 43.421875 
Q 18.3125 41.40625 16.84375 37.9375 
Q 15.375 34.46875 15.375 28.375 
L 15.375 0 
z
" id="ArialMT-104"/>
       <path d="M 23.390625 -21.046875 
Q 16.109375 -11.859375 11.078125 0.4375 
Q 6.0625 12.75 6.0625 25.921875 
Q 6.0625 37.546875 9.8125 48.1875 
Q 14.203125 60.546875 23.390625 72.796875 
L 29.6875 72.796875 
Q 23.78125 62.640625 21.875 58.296875 
Q 18.890625 51.5625 17.1875 44.234375 
Q 15.09375 35.109375 15.09375 25.875 
Q 15.09375 2.390625 29.6875 -21.046875 
z
" id="ArialMT-40"/>
       <path d="M 12.359375 -21.046875 
L 6.0625 -21.046875 
Q 20.65625 2.390625 20.65625 25.875 
Q 20.65625 35.0625 18.5625 44.09375 
Q 16.890625 51.421875 13.921875 58.15625 
Q 12.015625 62.546875 6.0625 72.796875 
L 12.359375 72.796875 
Q 21.53125 60.546875 25.921875 48.1875 
Q 29.6875 37.546875 29.6875 25.921875 
Q 29.6875 12.75 24.625 0.4375 
Q 19.578125 -11.859375 12.359375 -21.046875 
z
" id="ArialMT-41"/>
      </defs>
      <use xlink:href="#ArialMT-99"/>
      <use x="50" xlink:href="#ArialMT-72"/>
      <use x="122.216797" xlink:href="#ArialMT-50"/>
      <use x="177.832031" xlink:href="#ArialMT-79"/>
      <use x="255.615234" xlink:href="#ArialMT-58"/>
      <use x="283.398438" xlink:href="#ArialMT-58"/>
      <use x="311.181641" xlink:href="#ArialMT-80"/>
      <use x="377.880859" xlink:href="#ArialMT-114"/>
      <use x="411.181641" xlink:href="#ArialMT-101"/>
      <use x="466.796875" xlink:href="#ArialMT-115"/>
      <use x="516.796875" xlink:href="#ArialMT-115"/>
      <use x="566.796875" xlink:href="#ArialMT-117"/>
      <use x="622.412109" xlink:href="#ArialMT-114"/>
      <use x="655.712891" xlink:href="#ArialMT-101"/>
      <use x="711.328125" xlink:href="#ArialMT-95"/>
      <use x="766.943359" xlink:href="#ArialMT-84"/>
      <use x="828.027344" xlink:href="#ArialMT-95"/>
      <use x="883.642578" xlink:href="#ArialMT-82"/>
      <use x="955.859375" xlink:href="#ArialMT-104"/>
      <use x="1011.474609" xlink:href="#ArialMT-111"/>
      <use x="1067.089844" xlink:href="#ArialMT-40"/>
      <use x="1100.390625" xlink:href="#ArialMT-41"/>
     </g>
    </g>
   </g>
  </g>
  <g id="axes_2">
   <g id="matplotlib.axis_3">
    <g id="ytick_7">
     <g id="line2d_28">
      <defs>
       <path d="M 0 0 
L 3.5 0 
" id="mc4d1e22c87" style="stroke:#000000;stroke-width:0.8;"/>
      </defs>
      <g>
       <use style="stroke:#000000;stroke-width:0.8;" x="379.107813" xlink:href="#mc4d1e22c87" y="324.721468"/>
      </g>
     </g>
     <g id="text_21">
      <!-- 0 -->
      <g transform="translate(386.107813 328.300374)scale(0.1 -0.1)">
       <use xlink:href="#ArialMT-48"/>
      </g>
     </g>
    </g>
    <g id="ytick_8">
     <g id="line2d_29">
      <g>
       <use style="stroke:#000000;stroke-width:0.8;" x="379.107813" xlink:href="#mc4d1e22c87" y="264.236613"/>
      </g>
     </g>
     <g id="text_22">
      <!-- 200 -->
      <g transform="translate(386.107813 267.815519)scale(0.1 -0.1)">
       <use xlink:href="#ArialMT-50"/>
       <use x="55.615234" xlink:href="#ArialMT-48"/>
       <use x="111.230469" xlink:href="#ArialMT-48"/>
      </g>
     </g>
    </g>
    <g id="ytick_9">
     <g id="line2d_30">
      <g>
       <use style="stroke:#000000;stroke-width:0.8;" x="379.107813" xlink:href="#mc4d1e22c87" y="203.751758"/>
      </g>
     </g>
     <g id="text_23">
      <!-- 400 -->
      <g transform="translate(386.107813 207.330664)scale(0.1 -0.1)">
       <defs>
        <path d="M 32.328125 0 
L 32.328125 17.140625 
L 1.265625 17.140625 
L 1.265625 25.203125 
L 33.9375 71.578125 
L 41.109375 71.578125 
L 41.109375 25.203125 
L 50.78125 25.203125 
L 50.78125 17.140625 
L 41.109375 17.140625 
L 41.109375 0 
z
M 32.328125 25.203125 
L 32.328125 57.46875 
L 9.90625 25.203125 
z
" id="ArialMT-52"/>
       </defs>
       <use xlink:href="#ArialMT-52"/>
       <use x="55.615234" xlink:href="#ArialMT-48"/>
       <use x="111.230469" xlink:href="#ArialMT-48"/>
      </g>
     </g>
    </g>
    <g id="ytick_10">
     <g id="line2d_31">
      <g>
       <use style="stroke:#000000;stroke-width:0.8;" x="379.107813" xlink:href="#mc4d1e22c87" y="143.266903"/>
      </g>
     </g>
     <g id="text_24">
      <!-- 600 -->
      <g transform="translate(386.107813 146.845809)scale(0.1 -0.1)">
       <defs>
        <path d="M 49.75 54.046875 
L 41.015625 53.375 
Q 39.84375 58.546875 37.703125 60.890625 
Q 34.125 64.65625 28.90625 64.65625 
Q 24.703125 64.65625 21.53125 62.3125 
Q 17.390625 59.28125 14.984375 53.46875 
Q 12.59375 47.65625 12.5 36.921875 
Q 15.671875 41.75 20.265625 44.09375 
Q 24.859375 46.4375 29.890625 46.4375 
Q 38.671875 46.4375 44.84375 39.96875 
Q 51.03125 33.5 51.03125 23.25 
Q 51.03125 16.5 48.125 10.71875 
Q 45.21875 4.9375 40.140625 1.859375 
Q 35.0625 -1.21875 28.609375 -1.21875 
Q 17.625 -1.21875 10.6875 6.859375 
Q 3.765625 14.9375 3.765625 33.5 
Q 3.765625 54.25 11.421875 63.671875 
Q 18.109375 71.875 29.4375 71.875 
Q 37.890625 71.875 43.28125 67.140625 
Q 48.6875 62.40625 49.75 54.046875 
z
M 13.875 23.1875 
Q 13.875 18.65625 15.796875 14.5 
Q 17.71875 10.359375 21.1875 8.171875 
Q 24.65625 6 28.46875 6 
Q 34.03125 6 38.03125 10.484375 
Q 42.046875 14.984375 42.046875 22.703125 
Q 42.046875 30.125 38.078125 34.390625 
Q 34.125 38.671875 28.125 38.671875 
Q 22.171875 38.671875 18.015625 34.390625 
Q 13.875 30.125 13.875 23.1875 
z
" id="ArialMT-54"/>
       </defs>
       <use xlink:href="#ArialMT-54"/>
       <use x="55.615234" xlink:href="#ArialMT-48"/>
       <use x="111.230469" xlink:href="#ArialMT-48"/>
      </g>
     </g>
    </g>
    <g id="ytick_11">
     <g id="line2d_32">
      <g>
       <use style="stroke:#000000;stroke-width:0.8;" x="379.107813" xlink:href="#mc4d1e22c87" y="82.782048"/>
      </g>
     </g>
     <g id="text_25">
      <!-- 800 -->
      <g transform="translate(386.107813 86.360954)scale(0.1 -0.1)">
       <defs>
        <path d="M 17.671875 38.8125 
Q 12.203125 40.828125 9.5625 44.53125 
Q 6.9375 48.25 6.9375 53.421875 
Q 6.9375 61.234375 12.546875 66.546875 
Q 18.171875 71.875 27.484375 71.875 
Q 36.859375 71.875 42.578125 66.421875 
Q 48.296875 60.984375 48.296875 53.171875 
Q 48.296875 48.1875 45.671875 44.5 
Q 43.0625 40.828125 37.75 38.8125 
Q 44.34375 36.671875 47.78125 31.875 
Q 51.21875 27.09375 51.21875 20.453125 
Q 51.21875 11.28125 44.71875 5.03125 
Q 38.234375 -1.21875 27.640625 -1.21875 
Q 17.046875 -1.21875 10.546875 5.046875 
Q 4.046875 11.328125 4.046875 20.703125 
Q 4.046875 27.6875 7.59375 32.390625 
Q 11.140625 37.109375 17.671875 38.8125 
z
M 15.921875 53.71875 
Q 15.921875 48.640625 19.1875 45.40625 
Q 22.46875 42.1875 27.6875 42.1875 
Q 32.765625 42.1875 36.015625 45.375 
Q 39.265625 48.578125 39.265625 53.21875 
Q 39.265625 58.0625 35.90625 61.359375 
Q 32.5625 64.65625 27.59375 64.65625 
Q 22.5625 64.65625 19.234375 61.421875 
Q 15.921875 58.203125 15.921875 53.71875 
z
M 13.09375 20.65625 
Q 13.09375 16.890625 14.875 13.375 
Q 16.65625 9.859375 20.171875 7.921875 
Q 23.6875 6 27.734375 6 
Q 34.03125 6 38.125 10.046875 
Q 42.234375 14.109375 42.234375 20.359375 
Q 42.234375 26.703125 38.015625 30.859375 
Q 33.796875 35.015625 27.4375 35.015625 
Q 21.234375 35.015625 17.15625 30.90625 
Q 13.09375 26.8125 13.09375 20.65625 
z
" id="ArialMT-56"/>
       </defs>
       <use xlink:href="#ArialMT-56"/>
       <use x="55.615234" xlink:href="#ArialMT-48"/>
       <use x="111.230469" xlink:href="#ArialMT-48"/>
      </g>
     </g>
    </g>
    <g id="ytick_12">
     <g id="line2d_33">
      <g>
       <use style="stroke:#000000;stroke-width:0.8;" x="379.107813" xlink:href="#mc4d1e22c87" y="22.297193"/>
      </g>
     </g>
     <g id="text_26">
      <!-- 1000 -->
      <g transform="translate(386.107813 25.876099)scale(0.1 -0.1)">
       <use xlink:href="#ArialMT-49"/>
       <use x="55.615234" xlink:href="#ArialMT-48"/>
       <use x="111.230469" xlink:href="#ArialMT-48"/>
       <use x="166.845703" xlink:href="#ArialMT-48"/>
      </g>
     </g>
    </g>
   </g>
   <g id="line2d_34">
    <path clip-path="url(#p39416381e3)" d="M 59.525994 324.72 
L 131.151309 324.60213 
L 160.452574 324.33996 
L 182.428523 323.931273 
L 200.334852 323.386664 
L 215.799409 322.704543 
L 229.636117 321.877818 
L 241.844978 320.935328 
L 253.239914 319.833838 
L 263.820927 318.577628 
L 272.774091 317.30291 
L 280.913331 315.942666 
L 289.052572 314.353668 
L 296.377888 312.68976 
L 302.88928 310.987868 
L 308.586748 309.293536 
L 314.284217 307.370571 
L 319.167761 305.504976 
L 324.051305 303.397774 
L 328.120925 301.419829 
L 332.190545 299.197162 
L 335.446241 297.206303 
L 338.701938 294.985571 
L 341.957634 292.48304 
L 344.399406 290.378167 
L 346.841178 288.030448 
L 349.28295 285.379094 
L 351.724722 282.334589 
L 353.35257 280.019531 
L 354.980418 277.404771 
L 356.608266 274.39202 
L 358.236114 270.819785 
L 359.863962 266.384733 
L 360.677886 263.65747 
L 361.49181 260.382518 
L 362.305735 256.199083 
L 363.119659 250.086484 
L 363.119659 250.086484 
" style="fill:none;stroke:#1f77b4;stroke-linecap:square;stroke-width:1.5;"/>
   </g>
   <g id="line2d_35">
    <path clip-path="url(#p39416381e3)" d="M 59.525994 22.361004 
L 65.223463 22.341649 
L 70.920931 22.540039 
L 77.432323 22.985208 
L 84.757639 23.719796 
L 92.89688 24.781911 
L 101.03612 26.066911 
L 109.989284 27.706353 
L 118.942449 29.557795 
L 128.709537 31.797246 
L 139.29055 34.462814 
L 149.871562 37.363063 
L 160.452574 40.488013 
L 171.033587 43.832523 
L 182.428523 47.678755 
L 193.009536 51.479623 
L 203.590548 55.507612 
L 214.171561 59.773004 
L 224.752573 64.289711 
L 234.519661 68.699057 
L 244.28675 73.35881 
L 253.239914 77.871887 
L 262.193078 82.641723 
L 270.332319 87.226475 
L 278.471559 92.079175 
L 285.796875 96.705964 
L 293.122192 101.61431 
L 299.633584 106.250172 
L 305.331052 110.549133 
L 311.02852 115.111505 
L 316.725989 119.981443 
L 321.609533 124.445528 
L 326.493077 129.229275 
L 330.562697 133.508276 
L 334.632317 138.109964 
L 338.701938 143.108432 
L 341.957634 147.463342 
L 345.21333 152.219871 
L 347.655102 156.119935 
L 350.096874 160.385931 
L 352.538646 165.127944 
L 354.980418 170.525612 
L 356.608266 174.63828 
L 358.236114 179.349446 
L 359.863962 184.975142 
L 360.677886 188.323583 
L 361.49181 192.243305 
L 362.305735 197.102658 
L 363.119659 203.938354 
L 363.119659 203.938354 
" style="fill:none;stroke:#ff7f0e;stroke-linecap:square;stroke-width:1.5;"/>
   </g>
   <g id="line2d_36">
    <path clip-path="url(#p39416381e3)" d="M 59.932956 22.350524 
L 62.995004 22.32 
L 66.057052 22.357337 
L 69.1191 22.455339 
L 72.181148 22.608134 
L 75.243196 22.810865 
L 78.305244 23.059457 
L 81.367292 23.350461 
L 84.42934 23.680926 
L 87.491388 24.048307 
L 90.553436 24.450395 
L 93.615484 24.885259 
L 96.677532 25.351201 
L 99.73958 25.846721 
L 102.801628 26.37049 
L 105.863676 26.921324 
L 108.925724 27.498165 
L 111.987772 28.100067 
L 115.04982 28.72618 
L 118.111868 29.375742 
L 121.173916 30.048066 
L 124.235964 30.742534 
L 127.298012 31.458593 
L 130.36006 32.195742 
L 133.422108 32.953537 
L 136.484156 33.731576 
L 139.546204 34.529506 
L 142.608252 35.347011 
L 145.6703 36.183814 
L 148.732348 37.039676 
L 151.794396 37.914389 
L 154.856444 38.807779 
L 157.918492 39.719703 
L 160.98054 40.650046 
L 164.042588 41.598724 
L 167.104636 42.565679 
L 170.166684 43.55088 
L 173.228732 44.554324 
L 176.29078 45.576033 
L 179.352828 46.616056 
L 182.414876 47.674466 
L 185.476924 48.751364 
L 188.538972 49.846875 
L 191.60102 50.961151 
L 194.663068 52.094371 
L 197.725116 53.24674 
L 200.787164 54.418491 
L 203.849212 55.609884 
L 206.91126 56.82121 
L 209.973308 58.052789 
L 213.035355 59.304971 
L 216.097403 60.57814 
L 219.159451 61.872713 
L 222.221499 63.189143 
L 225.283547 64.52792 
L 228.345595 65.889574 
L 231.407643 67.274677 
L 234.469691 68.683846 
L 237.531739 70.117744 
L 240.593787 71.577087 
L 243.655835 73.062645 
L 246.717883 74.57525 
L 249.779931 76.115795 
L 252.841979 77.685247 
L 255.904027 79.284646 
L 258.966075 80.915118 
L 262.028123 82.577883 
L 265.090171 84.274262 
L 268.152219 86.005688 
L 271.214267 87.773723 
L 274.276315 89.580068 
L 277.338363 91.426585 
L 280.400411 93.315312 
L 283.462459 95.248492 
L 286.524507 97.228596 
L 289.586555 99.258359 
L 292.648603 101.340815 
L 295.710651 103.479348 
L 298.772699 105.677743 
L 301.834747 107.940255 
L 304.896795 110.271689 
L 307.958843 112.677497 
L 311.020891 115.163908 
L 314.082939 117.738076 
L 317.144987 120.408289 
L 320.207035 123.184232 
L 323.269083 126.07735 
L 326.331131 129.101372 
L 329.393179 132.27307 
L 332.455227 135.613437 
L 335.517275 139.149535 
L 338.579323 142.917516 
L 341.641371 146.96757 
L 344.703419 151.372122 
L 347.765467 156.239219 
L 350.827515 161.733353 
L 353.889563 168.104152 
L 356.951611 175.733588 
L 360.013659 185.510737 
L 363.075707 203.672489 
" style="fill:none;stroke:#2ca02c;stroke-dasharray:5.55,2.4;stroke-dashoffset:0;stroke-width:1.5;"/>
   </g>
   <g id="line2d_37">
    <path clip-path="url(#p39416381e3)" d="M 59.932956 324.71995 
L 62.995004 324.719509 
L 66.057052 324.718961 
L 69.1191 324.718284 
L 72.181148 324.717453 
L 75.243196 324.71644 
L 78.305244 324.715213 
L 81.367292 324.713736 
L 84.42934 324.711968 
L 87.491388 324.709865 
L 90.553436 324.707376 
L 93.615484 324.704446 
L 96.677532 324.701013 
L 99.73958 324.69701 
L 102.801628 324.692365 
L 105.863676 324.686997 
L 108.925724 324.680821 
L 111.987772 324.673744 
L 115.04982 324.665666 
L 118.111868 324.656479 
L 121.173916 324.646068 
L 124.235964 324.634313 
L 127.298012 324.621081 
L 130.36006 324.606236 
L 133.422108 324.589631 
L 136.484156 324.571112 
L 139.546204 324.550516 
L 142.608252 324.527671 
L 145.6703 324.502399 
L 148.732348 324.474509 
L 151.794396 324.443805 
L 154.856444 324.410078 
L 157.918492 324.373113 
L 160.98054 324.332683 
L 164.042588 324.288553 
L 167.104636 324.240477 
L 170.166684 324.188198 
L 173.228732 324.13145 
L 176.29078 324.069954 
L 179.352828 324.003422 
L 182.414876 323.931552 
L 185.476924 323.85403 
L 188.538972 323.770531 
L 191.60102 323.680716 
L 194.663068 323.584231 
L 197.725116 323.480707 
L 200.787164 323.369761 
L 203.849212 323.250993 
L 206.91126 323.123986 
L 209.973308 322.988304 
L 213.035355 322.84349 
L 216.097403 322.68907 
L 219.159451 322.524543 
L 222.221499 322.349386 
L 225.283547 322.16305 
L 228.345595 321.964957 
L 231.407643 321.7545 
L 234.469691 321.531036 
L 237.531739 321.29389 
L 240.593787 321.042345 
L 243.655835 320.775641 
L 246.717883 320.492973 
L 249.779931 320.193482 
L 252.841979 319.876253 
L 255.904027 319.540308 
L 258.966075 319.1846 
L 262.028123 318.808003 
L 265.090171 318.409305 
L 268.152219 317.987198 
L 271.214267 317.540265 
L 274.276315 317.066966 
L 277.338363 316.565624 
L 280.400411 316.034405 
L 283.462459 315.471296 
L 286.524507 314.87408 
L 289.586555 314.240304 
L 292.648603 313.567246 
L 295.710651 312.851864 
L 298.772699 312.090751 
L 301.834747 311.280063 
L 304.896795 310.415443 
L 307.958843 309.491918 
L 311.020891 308.503777 
L 314.082939 307.444409 
L 317.144987 306.306099 
L 320.207035 305.079759 
L 323.269083 303.754575 
L 326.331131 302.317522 
L 329.393179 300.752699 
L 332.455227 299.040383 
L 335.517275 297.155647 
L 338.579323 295.066267 
L 341.641371 292.729409 
L 344.703419 290.08609 
L 347.765467 287.051253 
L 350.827515 283.494163 
L 353.889563 279.194096 
L 356.951611 273.717752 
L 360.013659 265.951447 
L 363.075707 250.378091 
" style="fill:none;stroke:#d62728;stroke-dasharray:5.55,2.4;stroke-dashoffset:0;stroke-width:1.5;"/>
   </g>
   <g id="patch_8">
    <path d="M 44.307813 339.84 
L 44.307813 7.2 
" style="fill:none;stroke:#000000;stroke-linecap:square;stroke-linejoin:miter;stroke-width:0.8;"/>
   </g>
   <g id="patch_9">
    <path d="M 379.107813 339.84 
L 379.107813 7.2 
" style="fill:none;stroke:#000000;stroke-linecap:square;stroke-linejoin:miter;stroke-width:0.8;"/>
   </g>
   <g id="patch_10">
    <path d="M 44.307813 339.84 
L 379.107813 339.84 
" style="fill:none;stroke:#000000;stroke-linecap:square;stroke-linejoin:miter;stroke-width:0.8;"/>
   </g>
   <g id="patch_11">
    <path d="M 44.307813 7.2 
L 379.107813 7.2 
" style="fill:none;stroke:#000000;stroke-linecap:square;stroke-linejoin:miter;stroke-width:0.8;"/>
   </g>
  </g>
 </g>
 <defs>
  <clipPath id="p39416381e3">
   <rect height="332.64" width="334.8" x="44.307813" y="7.2"/>
  </clipPath>
 </defs>
</svg>
